G04 #@! TF.GenerationSoftware,KiCad,Pcbnew,6.0.0-unknown-f1f26a9~86~ubuntu18.04.1*
G04 #@! TF.CreationDate,2019-06-07T10:14:52-04:00*
G04 #@! TF.ProjectId,backlight_controller_6x3,6261636b-6c69-4676-9874-5f636f6e7472,1.0*
G04 #@! TF.SameCoordinates,Original*
G04 #@! TF.FileFunction,Legend,Top*
G04 #@! TF.FilePolarity,Positive*
%FSLAX46Y46*%
G04 Gerber Fmt 4.6, Leading zero omitted, Abs format (unit mm)*
G04 Created by KiCad (PCBNEW 6.0.0-unknown-f1f26a9~86~ubuntu18.04.1) date 2019-06-07 10:14:52*
%MOMM*%
%LPD*%
G04 APERTURE LIST*
%ADD10C,0.127000*%
%ADD11C,0.381000*%
%ADD12C,0.317500*%
%ADD13C,0.190500*%
%ADD14C,0.254000*%
%ADD15C,0.228600*%
%ADD16C,0.400000*%
%ADD17C,0.158750*%
%ADD18C,0.285750*%
%ADD19O,2.743200X1.727200*%
%ADD20R,2.743200X1.727200*%
%ADD21R,2.870200X1.793240*%
%ADD22R,1.295400X1.295400*%
%ADD23C,2.403200*%
%ADD24R,13.203200X3.603200*%
%ADD25R,13.203200X3.603201*%
%ADD26R,2.603200X1.203200*%
%ADD27C,1.803200*%
%ADD28C,2.203200*%
%ADD29R,2.351600X7.951600*%
%ADD30C,1.601600*%
%ADD31C,1.000000*%
%ADD32C,3.759200*%
%ADD33O,4.203200X3.203200*%
%ADD34R,4.203200X3.203200*%
%ADD35C,4.203200*%
G04 APERTURE END LIST*
D10*
X188749214Y-130350380D02*
X188773404Y-130277809D01*
X188797595Y-130253619D01*
X188845976Y-130229428D01*
X188918547Y-130229428D01*
X188966928Y-130253619D01*
X188991119Y-130277809D01*
X189015309Y-130326190D01*
X189015309Y-130519714D01*
X188507309Y-130519714D01*
X188507309Y-130350380D01*
X188531500Y-130302000D01*
X188555690Y-130277809D01*
X188604071Y-130253619D01*
X188652452Y-130253619D01*
X188700833Y-130277809D01*
X188725023Y-130302000D01*
X188749214Y-130350380D01*
X188749214Y-130519714D01*
X189015309Y-129939142D02*
X188991119Y-129987523D01*
X188966928Y-130011714D01*
X188918547Y-130035904D01*
X188773404Y-130035904D01*
X188725023Y-130011714D01*
X188700833Y-129987523D01*
X188676642Y-129939142D01*
X188676642Y-129866571D01*
X188700833Y-129818190D01*
X188725023Y-129794000D01*
X188773404Y-129769809D01*
X188918547Y-129769809D01*
X188966928Y-129794000D01*
X188991119Y-129818190D01*
X189015309Y-129866571D01*
X189015309Y-129939142D01*
X188676642Y-129624666D02*
X188676642Y-129431142D01*
X188507309Y-129552095D02*
X188942738Y-129552095D01*
X188991119Y-129527904D01*
X189015309Y-129479523D01*
X189015309Y-129431142D01*
X189015309Y-129261809D02*
X188507309Y-129261809D01*
X189015309Y-129044095D02*
X188749214Y-129044095D01*
X188700833Y-129068285D01*
X188676642Y-129116666D01*
X188676642Y-129189238D01*
X188700833Y-129237619D01*
X188725023Y-129261809D01*
X188507309Y-128415142D02*
X188918547Y-128415142D01*
X188966928Y-128390952D01*
X188991119Y-128366761D01*
X189015309Y-128318380D01*
X189015309Y-128221619D01*
X188991119Y-128173238D01*
X188966928Y-128149047D01*
X188918547Y-128124857D01*
X188507309Y-128124857D01*
X188991119Y-127907142D02*
X189015309Y-127834571D01*
X189015309Y-127713619D01*
X188991119Y-127665238D01*
X188966928Y-127641047D01*
X188918547Y-127616857D01*
X188870166Y-127616857D01*
X188821785Y-127641047D01*
X188797595Y-127665238D01*
X188773404Y-127713619D01*
X188749214Y-127810380D01*
X188725023Y-127858761D01*
X188700833Y-127882952D01*
X188652452Y-127907142D01*
X188604071Y-127907142D01*
X188555690Y-127882952D01*
X188531500Y-127858761D01*
X188507309Y-127810380D01*
X188507309Y-127689428D01*
X188531500Y-127616857D01*
X188749214Y-127229809D02*
X188773404Y-127157238D01*
X188797595Y-127133047D01*
X188845976Y-127108857D01*
X188918547Y-127108857D01*
X188966928Y-127133047D01*
X188991119Y-127157238D01*
X189015309Y-127205619D01*
X189015309Y-127399142D01*
X188507309Y-127399142D01*
X188507309Y-127229809D01*
X188531500Y-127181428D01*
X188555690Y-127157238D01*
X188604071Y-127133047D01*
X188652452Y-127133047D01*
X188700833Y-127157238D01*
X188725023Y-127181428D01*
X188749214Y-127229809D01*
X188749214Y-127399142D01*
X188676642Y-126504095D02*
X189184642Y-126504095D01*
X188700833Y-126504095D02*
X188676642Y-126455714D01*
X188676642Y-126358952D01*
X188700833Y-126310571D01*
X188725023Y-126286380D01*
X188773404Y-126262190D01*
X188918547Y-126262190D01*
X188966928Y-126286380D01*
X188991119Y-126310571D01*
X189015309Y-126358952D01*
X189015309Y-126455714D01*
X188991119Y-126504095D01*
X189015309Y-125971904D02*
X188991119Y-126020285D01*
X188966928Y-126044476D01*
X188918547Y-126068666D01*
X188773404Y-126068666D01*
X188725023Y-126044476D01*
X188700833Y-126020285D01*
X188676642Y-125971904D01*
X188676642Y-125899333D01*
X188700833Y-125850952D01*
X188725023Y-125826761D01*
X188773404Y-125802571D01*
X188918547Y-125802571D01*
X188966928Y-125826761D01*
X188991119Y-125850952D01*
X189015309Y-125899333D01*
X189015309Y-125971904D01*
X188676642Y-125633238D02*
X189015309Y-125536476D01*
X188773404Y-125439714D01*
X189015309Y-125342952D01*
X188676642Y-125246190D01*
X188991119Y-124859142D02*
X189015309Y-124907523D01*
X189015309Y-125004285D01*
X188991119Y-125052666D01*
X188942738Y-125076857D01*
X188749214Y-125076857D01*
X188700833Y-125052666D01*
X188676642Y-125004285D01*
X188676642Y-124907523D01*
X188700833Y-124859142D01*
X188749214Y-124834952D01*
X188797595Y-124834952D01*
X188845976Y-125076857D01*
X189015309Y-124617238D02*
X188676642Y-124617238D01*
X188773404Y-124617238D02*
X188725023Y-124593047D01*
X188700833Y-124568857D01*
X188676642Y-124520476D01*
X188676642Y-124472095D01*
X189015309Y-123698000D02*
X188749214Y-123698000D01*
X188700833Y-123722190D01*
X188676642Y-123770571D01*
X188676642Y-123867333D01*
X188700833Y-123915714D01*
X188991119Y-123698000D02*
X189015309Y-123746380D01*
X189015309Y-123867333D01*
X188991119Y-123915714D01*
X188942738Y-123939904D01*
X188894357Y-123939904D01*
X188845976Y-123915714D01*
X188821785Y-123867333D01*
X188821785Y-123746380D01*
X188797595Y-123698000D01*
X188676642Y-123456095D02*
X189015309Y-123456095D01*
X188725023Y-123456095D02*
X188700833Y-123431904D01*
X188676642Y-123383523D01*
X188676642Y-123310952D01*
X188700833Y-123262571D01*
X188749214Y-123238380D01*
X189015309Y-123238380D01*
X189015309Y-122778761D02*
X188507309Y-122778761D01*
X188991119Y-122778761D02*
X189015309Y-122827142D01*
X189015309Y-122923904D01*
X188991119Y-122972285D01*
X188966928Y-122996476D01*
X188918547Y-123020666D01*
X188773404Y-123020666D01*
X188725023Y-122996476D01*
X188700833Y-122972285D01*
X188676642Y-122923904D01*
X188676642Y-122827142D01*
X188700833Y-122778761D01*
X188555690Y-122174000D02*
X188531500Y-122149809D01*
X188507309Y-122101428D01*
X188507309Y-121980476D01*
X188531500Y-121932095D01*
X188555690Y-121907904D01*
X188604071Y-121883714D01*
X188652452Y-121883714D01*
X188725023Y-121907904D01*
X189015309Y-122198190D01*
X189015309Y-121883714D01*
X188676642Y-121448285D02*
X189015309Y-121448285D01*
X188483119Y-121569238D02*
X188845976Y-121690190D01*
X188845976Y-121375714D01*
X188507309Y-121254761D02*
X189015309Y-121085428D01*
X188507309Y-120916095D01*
X188676642Y-120359714D02*
X189184642Y-120359714D01*
X188700833Y-120359714D02*
X188676642Y-120311333D01*
X188676642Y-120214571D01*
X188700833Y-120166190D01*
X188725023Y-120142000D01*
X188773404Y-120117809D01*
X188918547Y-120117809D01*
X188966928Y-120142000D01*
X188991119Y-120166190D01*
X189015309Y-120214571D01*
X189015309Y-120311333D01*
X188991119Y-120359714D01*
X189015309Y-119827523D02*
X188991119Y-119875904D01*
X188966928Y-119900095D01*
X188918547Y-119924285D01*
X188773404Y-119924285D01*
X188725023Y-119900095D01*
X188700833Y-119875904D01*
X188676642Y-119827523D01*
X188676642Y-119754952D01*
X188700833Y-119706571D01*
X188725023Y-119682380D01*
X188773404Y-119658190D01*
X188918547Y-119658190D01*
X188966928Y-119682380D01*
X188991119Y-119706571D01*
X189015309Y-119754952D01*
X189015309Y-119827523D01*
X188676642Y-119488857D02*
X189015309Y-119392095D01*
X188773404Y-119295333D01*
X189015309Y-119198571D01*
X188676642Y-119101809D01*
X188991119Y-118714761D02*
X189015309Y-118763142D01*
X189015309Y-118859904D01*
X188991119Y-118908285D01*
X188942738Y-118932476D01*
X188749214Y-118932476D01*
X188700833Y-118908285D01*
X188676642Y-118859904D01*
X188676642Y-118763142D01*
X188700833Y-118714761D01*
X188749214Y-118690571D01*
X188797595Y-118690571D01*
X188845976Y-118932476D01*
X189015309Y-118472857D02*
X188676642Y-118472857D01*
X188773404Y-118472857D02*
X188725023Y-118448666D01*
X188700833Y-118424476D01*
X188676642Y-118376095D01*
X188676642Y-118327714D01*
X189904309Y-132334000D02*
X189565642Y-132334000D01*
X189614023Y-132334000D02*
X189589833Y-132309809D01*
X189565642Y-132261428D01*
X189565642Y-132188857D01*
X189589833Y-132140476D01*
X189638214Y-132116285D01*
X189904309Y-132116285D01*
X189638214Y-132116285D02*
X189589833Y-132092095D01*
X189565642Y-132043714D01*
X189565642Y-131971142D01*
X189589833Y-131922761D01*
X189638214Y-131898571D01*
X189904309Y-131898571D01*
X189565642Y-131438952D02*
X189904309Y-131438952D01*
X189565642Y-131656666D02*
X189831738Y-131656666D01*
X189880119Y-131632476D01*
X189904309Y-131584095D01*
X189904309Y-131511523D01*
X189880119Y-131463142D01*
X189855928Y-131438952D01*
X189880119Y-131221238D02*
X189904309Y-131172857D01*
X189904309Y-131076095D01*
X189880119Y-131027714D01*
X189831738Y-131003523D01*
X189807547Y-131003523D01*
X189759166Y-131027714D01*
X189734976Y-131076095D01*
X189734976Y-131148666D01*
X189710785Y-131197047D01*
X189662404Y-131221238D01*
X189638214Y-131221238D01*
X189589833Y-131197047D01*
X189565642Y-131148666D01*
X189565642Y-131076095D01*
X189589833Y-131027714D01*
X189565642Y-130858380D02*
X189565642Y-130664857D01*
X189396309Y-130785809D02*
X189831738Y-130785809D01*
X189880119Y-130761619D01*
X189904309Y-130713238D01*
X189904309Y-130664857D01*
X189904309Y-130108476D02*
X189396309Y-130108476D01*
X189589833Y-130108476D02*
X189565642Y-130060095D01*
X189565642Y-129963333D01*
X189589833Y-129914952D01*
X189614023Y-129890761D01*
X189662404Y-129866571D01*
X189807547Y-129866571D01*
X189855928Y-129890761D01*
X189880119Y-129914952D01*
X189904309Y-129963333D01*
X189904309Y-130060095D01*
X189880119Y-130108476D01*
X189880119Y-129455333D02*
X189904309Y-129503714D01*
X189904309Y-129600476D01*
X189880119Y-129648857D01*
X189831738Y-129673047D01*
X189638214Y-129673047D01*
X189589833Y-129648857D01*
X189565642Y-129600476D01*
X189565642Y-129503714D01*
X189589833Y-129455333D01*
X189638214Y-129431142D01*
X189686595Y-129431142D01*
X189734976Y-129673047D01*
X189880119Y-128608666D02*
X189904309Y-128657047D01*
X189904309Y-128753809D01*
X189880119Y-128802190D01*
X189855928Y-128826380D01*
X189807547Y-128850571D01*
X189662404Y-128850571D01*
X189614023Y-128826380D01*
X189589833Y-128802190D01*
X189565642Y-128753809D01*
X189565642Y-128657047D01*
X189589833Y-128608666D01*
X189904309Y-128318380D02*
X189880119Y-128366761D01*
X189855928Y-128390952D01*
X189807547Y-128415142D01*
X189662404Y-128415142D01*
X189614023Y-128390952D01*
X189589833Y-128366761D01*
X189565642Y-128318380D01*
X189565642Y-128245809D01*
X189589833Y-128197428D01*
X189614023Y-128173238D01*
X189662404Y-128149047D01*
X189807547Y-128149047D01*
X189855928Y-128173238D01*
X189880119Y-128197428D01*
X189904309Y-128245809D01*
X189904309Y-128318380D01*
X189565642Y-127931333D02*
X189904309Y-127931333D01*
X189614023Y-127931333D02*
X189589833Y-127907142D01*
X189565642Y-127858761D01*
X189565642Y-127786190D01*
X189589833Y-127737809D01*
X189638214Y-127713619D01*
X189904309Y-127713619D01*
X189565642Y-127471714D02*
X189904309Y-127471714D01*
X189614023Y-127471714D02*
X189589833Y-127447523D01*
X189565642Y-127399142D01*
X189565642Y-127326571D01*
X189589833Y-127278190D01*
X189638214Y-127254000D01*
X189904309Y-127254000D01*
X189880119Y-126818571D02*
X189904309Y-126866952D01*
X189904309Y-126963714D01*
X189880119Y-127012095D01*
X189831738Y-127036285D01*
X189638214Y-127036285D01*
X189589833Y-127012095D01*
X189565642Y-126963714D01*
X189565642Y-126866952D01*
X189589833Y-126818571D01*
X189638214Y-126794380D01*
X189686595Y-126794380D01*
X189734976Y-127036285D01*
X189880119Y-126358952D02*
X189904309Y-126407333D01*
X189904309Y-126504095D01*
X189880119Y-126552476D01*
X189855928Y-126576666D01*
X189807547Y-126600857D01*
X189662404Y-126600857D01*
X189614023Y-126576666D01*
X189589833Y-126552476D01*
X189565642Y-126504095D01*
X189565642Y-126407333D01*
X189589833Y-126358952D01*
X189565642Y-126213809D02*
X189565642Y-126020285D01*
X189396309Y-126141238D02*
X189831738Y-126141238D01*
X189880119Y-126117047D01*
X189904309Y-126068666D01*
X189904309Y-126020285D01*
X189880119Y-125657428D02*
X189904309Y-125705809D01*
X189904309Y-125802571D01*
X189880119Y-125850952D01*
X189831738Y-125875142D01*
X189638214Y-125875142D01*
X189589833Y-125850952D01*
X189565642Y-125802571D01*
X189565642Y-125705809D01*
X189589833Y-125657428D01*
X189638214Y-125633238D01*
X189686595Y-125633238D01*
X189734976Y-125875142D01*
X189904309Y-125197809D02*
X189396309Y-125197809D01*
X189880119Y-125197809D02*
X189904309Y-125246190D01*
X189904309Y-125342952D01*
X189880119Y-125391333D01*
X189855928Y-125415523D01*
X189807547Y-125439714D01*
X189662404Y-125439714D01*
X189614023Y-125415523D01*
X189589833Y-125391333D01*
X189565642Y-125342952D01*
X189565642Y-125246190D01*
X189589833Y-125197809D01*
X189565642Y-124641428D02*
X189565642Y-124447904D01*
X189904309Y-124568857D02*
X189468880Y-124568857D01*
X189420500Y-124544666D01*
X189396309Y-124496285D01*
X189396309Y-124447904D01*
X189904309Y-124206000D02*
X189880119Y-124254380D01*
X189855928Y-124278571D01*
X189807547Y-124302761D01*
X189662404Y-124302761D01*
X189614023Y-124278571D01*
X189589833Y-124254380D01*
X189565642Y-124206000D01*
X189565642Y-124133428D01*
X189589833Y-124085047D01*
X189614023Y-124060857D01*
X189662404Y-124036666D01*
X189807547Y-124036666D01*
X189855928Y-124060857D01*
X189880119Y-124085047D01*
X189904309Y-124133428D01*
X189904309Y-124206000D01*
X189904309Y-123818952D02*
X189565642Y-123818952D01*
X189662404Y-123818952D02*
X189614023Y-123794761D01*
X189589833Y-123770571D01*
X189565642Y-123722190D01*
X189565642Y-123673809D01*
X189904309Y-123117428D02*
X189396309Y-123117428D01*
X189589833Y-123117428D02*
X189565642Y-123069047D01*
X189565642Y-122972285D01*
X189589833Y-122923904D01*
X189614023Y-122899714D01*
X189662404Y-122875523D01*
X189807547Y-122875523D01*
X189855928Y-122899714D01*
X189880119Y-122923904D01*
X189904309Y-122972285D01*
X189904309Y-123069047D01*
X189880119Y-123117428D01*
X189904309Y-122585238D02*
X189880119Y-122633619D01*
X189855928Y-122657809D01*
X189807547Y-122682000D01*
X189662404Y-122682000D01*
X189614023Y-122657809D01*
X189589833Y-122633619D01*
X189565642Y-122585238D01*
X189565642Y-122512666D01*
X189589833Y-122464285D01*
X189614023Y-122440095D01*
X189662404Y-122415904D01*
X189807547Y-122415904D01*
X189855928Y-122440095D01*
X189880119Y-122464285D01*
X189904309Y-122512666D01*
X189904309Y-122585238D01*
X189904309Y-121980476D02*
X189638214Y-121980476D01*
X189589833Y-122004666D01*
X189565642Y-122053047D01*
X189565642Y-122149809D01*
X189589833Y-122198190D01*
X189880119Y-121980476D02*
X189904309Y-122028857D01*
X189904309Y-122149809D01*
X189880119Y-122198190D01*
X189831738Y-122222380D01*
X189783357Y-122222380D01*
X189734976Y-122198190D01*
X189710785Y-122149809D01*
X189710785Y-122028857D01*
X189686595Y-121980476D01*
X189904309Y-121738571D02*
X189565642Y-121738571D01*
X189662404Y-121738571D02*
X189614023Y-121714380D01*
X189589833Y-121690190D01*
X189565642Y-121641809D01*
X189565642Y-121593428D01*
X189904309Y-121206380D02*
X189396309Y-121206380D01*
X189880119Y-121206380D02*
X189904309Y-121254761D01*
X189904309Y-121351523D01*
X189880119Y-121399904D01*
X189855928Y-121424095D01*
X189807547Y-121448285D01*
X189662404Y-121448285D01*
X189614023Y-121424095D01*
X189589833Y-121399904D01*
X189565642Y-121351523D01*
X189565642Y-121254761D01*
X189589833Y-121206380D01*
X189565642Y-120650000D02*
X189565642Y-120456476D01*
X189396309Y-120577428D02*
X189831738Y-120577428D01*
X189880119Y-120553238D01*
X189904309Y-120504857D01*
X189904309Y-120456476D01*
X189904309Y-120214571D02*
X189880119Y-120262952D01*
X189855928Y-120287142D01*
X189807547Y-120311333D01*
X189662404Y-120311333D01*
X189614023Y-120287142D01*
X189589833Y-120262952D01*
X189565642Y-120214571D01*
X189565642Y-120142000D01*
X189589833Y-120093619D01*
X189614023Y-120069428D01*
X189662404Y-120045238D01*
X189807547Y-120045238D01*
X189855928Y-120069428D01*
X189880119Y-120093619D01*
X189904309Y-120142000D01*
X189904309Y-120214571D01*
X189904309Y-119367904D02*
X189880119Y-119416285D01*
X189855928Y-119440476D01*
X189807547Y-119464666D01*
X189662404Y-119464666D01*
X189614023Y-119440476D01*
X189589833Y-119416285D01*
X189565642Y-119367904D01*
X189565642Y-119295333D01*
X189589833Y-119246952D01*
X189614023Y-119222761D01*
X189662404Y-119198571D01*
X189807547Y-119198571D01*
X189855928Y-119222761D01*
X189880119Y-119246952D01*
X189904309Y-119295333D01*
X189904309Y-119367904D01*
X189565642Y-118980857D02*
X190073642Y-118980857D01*
X189589833Y-118980857D02*
X189565642Y-118932476D01*
X189565642Y-118835714D01*
X189589833Y-118787333D01*
X189614023Y-118763142D01*
X189662404Y-118738952D01*
X189807547Y-118738952D01*
X189855928Y-118763142D01*
X189880119Y-118787333D01*
X189904309Y-118835714D01*
X189904309Y-118932476D01*
X189880119Y-118980857D01*
X189880119Y-118327714D02*
X189904309Y-118376095D01*
X189904309Y-118472857D01*
X189880119Y-118521238D01*
X189831738Y-118545428D01*
X189638214Y-118545428D01*
X189589833Y-118521238D01*
X189565642Y-118472857D01*
X189565642Y-118376095D01*
X189589833Y-118327714D01*
X189638214Y-118303523D01*
X189686595Y-118303523D01*
X189734976Y-118545428D01*
X189904309Y-118085809D02*
X189565642Y-118085809D01*
X189662404Y-118085809D02*
X189614023Y-118061619D01*
X189589833Y-118037428D01*
X189565642Y-117989047D01*
X189565642Y-117940666D01*
X189904309Y-117553619D02*
X189638214Y-117553619D01*
X189589833Y-117577809D01*
X189565642Y-117626190D01*
X189565642Y-117722952D01*
X189589833Y-117771333D01*
X189880119Y-117553619D02*
X189904309Y-117602000D01*
X189904309Y-117722952D01*
X189880119Y-117771333D01*
X189831738Y-117795523D01*
X189783357Y-117795523D01*
X189734976Y-117771333D01*
X189710785Y-117722952D01*
X189710785Y-117602000D01*
X189686595Y-117553619D01*
X189565642Y-117384285D02*
X189565642Y-117190761D01*
X189396309Y-117311714D02*
X189831738Y-117311714D01*
X189880119Y-117287523D01*
X189904309Y-117239142D01*
X189904309Y-117190761D01*
X189880119Y-116827904D02*
X189904309Y-116876285D01*
X189904309Y-116973047D01*
X189880119Y-117021428D01*
X189831738Y-117045619D01*
X189638214Y-117045619D01*
X189589833Y-117021428D01*
X189565642Y-116973047D01*
X189565642Y-116876285D01*
X189589833Y-116827904D01*
X189638214Y-116803714D01*
X189686595Y-116803714D01*
X189734976Y-117045619D01*
X189855928Y-116586000D02*
X189880119Y-116561809D01*
X189904309Y-116586000D01*
X189880119Y-116610190D01*
X189855928Y-116586000D01*
X189904309Y-116586000D01*
X189710785Y-116586000D02*
X189420500Y-116610190D01*
X189396309Y-116586000D01*
X189420500Y-116561809D01*
X189710785Y-116586000D01*
X189396309Y-116586000D01*
D11*
X107315000Y-130810000D02*
X111760000Y-130810000D01*
X78105000Y-130810000D02*
X76200000Y-130810000D01*
X88265000Y-130810000D02*
X97155000Y-130810000D01*
X92710000Y-84455000D02*
X92710000Y-130810000D01*
X73660000Y-84455000D02*
X73660000Y-128270000D01*
X111760000Y-84455000D02*
X73660000Y-84455000D01*
D12*
X181513994Y-78679523D02*
X180788279Y-78679523D01*
X181151136Y-78679523D02*
X181151136Y-77409523D01*
X181030184Y-77590952D01*
X180909232Y-77711904D01*
X180788279Y-77772380D01*
X182602565Y-77832857D02*
X182602565Y-78679523D01*
X182300184Y-77349047D02*
X181997803Y-78256190D01*
X182783994Y-78256190D01*
X162463994Y-78679523D02*
X161738279Y-78679523D01*
X162101136Y-78679523D02*
X162101136Y-77409523D01*
X161980184Y-77590952D01*
X161859232Y-77711904D01*
X161738279Y-77772380D01*
X162947803Y-77530476D02*
X163008279Y-77470000D01*
X163129232Y-77409523D01*
X163431613Y-77409523D01*
X163552565Y-77470000D01*
X163613041Y-77530476D01*
X163673517Y-77651428D01*
X163673517Y-77772380D01*
X163613041Y-77953809D01*
X162887327Y-78679523D01*
X163673517Y-78679523D01*
X143413994Y-78679523D02*
X142688279Y-78679523D01*
X143051136Y-78679523D02*
X143051136Y-77409523D01*
X142930184Y-77590952D01*
X142809232Y-77711904D01*
X142688279Y-77772380D01*
X144200184Y-77409523D02*
X144321136Y-77409523D01*
X144442089Y-77470000D01*
X144502565Y-77530476D01*
X144563041Y-77651428D01*
X144623517Y-77893333D01*
X144623517Y-78195714D01*
X144563041Y-78437619D01*
X144502565Y-78558571D01*
X144442089Y-78619047D01*
X144321136Y-78679523D01*
X144200184Y-78679523D01*
X144079232Y-78619047D01*
X144018755Y-78558571D01*
X143958279Y-78437619D01*
X143897803Y-78195714D01*
X143897803Y-77893333D01*
X143958279Y-77651428D01*
X144018755Y-77530476D01*
X144079232Y-77470000D01*
X144200184Y-77409523D01*
X181513994Y-133289523D02*
X180788279Y-133289523D01*
X181151136Y-133289523D02*
X181151136Y-132019523D01*
X181030184Y-132200952D01*
X180909232Y-132321904D01*
X180788279Y-132382380D01*
X182663041Y-132019523D02*
X182058279Y-132019523D01*
X181997803Y-132624285D01*
X182058279Y-132563809D01*
X182179232Y-132503333D01*
X182481613Y-132503333D01*
X182602565Y-132563809D01*
X182663041Y-132624285D01*
X182723517Y-132745238D01*
X182723517Y-133047619D01*
X182663041Y-133168571D01*
X182602565Y-133229047D01*
X182481613Y-133289523D01*
X182179232Y-133289523D01*
X182058279Y-133229047D01*
X181997803Y-133168571D01*
X162463994Y-133289523D02*
X161738279Y-133289523D01*
X162101136Y-133289523D02*
X162101136Y-132019523D01*
X161980184Y-132200952D01*
X161859232Y-132321904D01*
X161738279Y-132382380D01*
X162887327Y-132019523D02*
X163673517Y-132019523D01*
X163250184Y-132503333D01*
X163431613Y-132503333D01*
X163552565Y-132563809D01*
X163613041Y-132624285D01*
X163673517Y-132745238D01*
X163673517Y-133047619D01*
X163613041Y-133168571D01*
X163552565Y-133229047D01*
X163431613Y-133289523D01*
X163068755Y-133289523D01*
X162947803Y-133229047D01*
X162887327Y-133168571D01*
X143413994Y-133289523D02*
X142688279Y-133289523D01*
X143051136Y-133289523D02*
X143051136Y-132019523D01*
X142930184Y-132200952D01*
X142809232Y-132321904D01*
X142688279Y-132382380D01*
X144623517Y-133289523D02*
X143897803Y-133289523D01*
X144260660Y-133289523D02*
X144260660Y-132019523D01*
X144139708Y-132200952D01*
X144018755Y-132321904D01*
X143897803Y-132382380D01*
X123759232Y-133289523D02*
X124001136Y-133289523D01*
X124122089Y-133229047D01*
X124182565Y-133168571D01*
X124303517Y-132987142D01*
X124363994Y-132745238D01*
X124363994Y-132261428D01*
X124303517Y-132140476D01*
X124243041Y-132080000D01*
X124122089Y-132019523D01*
X123880184Y-132019523D01*
X123759232Y-132080000D01*
X123698755Y-132140476D01*
X123638279Y-132261428D01*
X123638279Y-132563809D01*
X123698755Y-132684761D01*
X123759232Y-132745238D01*
X123880184Y-132805714D01*
X124122089Y-132805714D01*
X124243041Y-132745238D01*
X124303517Y-132684761D01*
X124363994Y-132563809D01*
X123880184Y-77953809D02*
X123759232Y-77893333D01*
X123698755Y-77832857D01*
X123638279Y-77711904D01*
X123638279Y-77651428D01*
X123698755Y-77530476D01*
X123759232Y-77470000D01*
X123880184Y-77409523D01*
X124122089Y-77409523D01*
X124243041Y-77470000D01*
X124303517Y-77530476D01*
X124363994Y-77651428D01*
X124363994Y-77711904D01*
X124303517Y-77832857D01*
X124243041Y-77893333D01*
X124122089Y-77953809D01*
X123880184Y-77953809D01*
X123759232Y-78014285D01*
X123698755Y-78074761D01*
X123638279Y-78195714D01*
X123638279Y-78437619D01*
X123698755Y-78558571D01*
X123759232Y-78619047D01*
X123880184Y-78679523D01*
X124122089Y-78679523D01*
X124243041Y-78619047D01*
X124303517Y-78558571D01*
X124363994Y-78437619D01*
X124363994Y-78195714D01*
X124303517Y-78074761D01*
X124243041Y-78014285D01*
X124122089Y-77953809D01*
X169786904Y-105984523D02*
X170210238Y-107254523D01*
X170633571Y-105984523D01*
X171480238Y-106589285D02*
X171661666Y-106649761D01*
X171722142Y-106710238D01*
X171782619Y-106831190D01*
X171782619Y-107012619D01*
X171722142Y-107133571D01*
X171661666Y-107194047D01*
X171540714Y-107254523D01*
X171056904Y-107254523D01*
X171056904Y-105984523D01*
X171480238Y-105984523D01*
X171601190Y-106045000D01*
X171661666Y-106105476D01*
X171722142Y-106226428D01*
X171722142Y-106347380D01*
X171661666Y-106468333D01*
X171601190Y-106528809D01*
X171480238Y-106589285D01*
X171056904Y-106589285D01*
X172205952Y-105984523D02*
X172992142Y-105984523D01*
X172568809Y-106468333D01*
X172750238Y-106468333D01*
X172871190Y-106528809D01*
X172931666Y-106589285D01*
X172992142Y-106710238D01*
X172992142Y-107012619D01*
X172931666Y-107133571D01*
X172871190Y-107194047D01*
X172750238Y-107254523D01*
X172387380Y-107254523D01*
X172266428Y-107194047D01*
X172205952Y-107133571D01*
X170210238Y-104714523D02*
X170210238Y-103444523D01*
X171238333Y-104049285D02*
X171419761Y-104109761D01*
X171480238Y-104170238D01*
X171540714Y-104291190D01*
X171540714Y-104472619D01*
X171480238Y-104593571D01*
X171419761Y-104654047D01*
X171298809Y-104714523D01*
X170815000Y-104714523D01*
X170815000Y-103444523D01*
X171238333Y-103444523D01*
X171359285Y-103505000D01*
X171419761Y-103565476D01*
X171480238Y-103686428D01*
X171480238Y-103807380D01*
X171419761Y-103928333D01*
X171359285Y-103988809D01*
X171238333Y-104049285D01*
X170815000Y-104049285D01*
X171964047Y-103444523D02*
X172750238Y-103444523D01*
X172326904Y-103928333D01*
X172508333Y-103928333D01*
X172629285Y-103988809D01*
X172689761Y-104049285D01*
X172750238Y-104170238D01*
X172750238Y-104472619D01*
X172689761Y-104593571D01*
X172629285Y-104654047D01*
X172508333Y-104714523D01*
X172145476Y-104714523D01*
X172024523Y-104654047D01*
X171964047Y-104593571D01*
X150404285Y-105984523D02*
X150827619Y-107254523D01*
X151250952Y-105984523D01*
X151674285Y-107254523D02*
X151674285Y-106407857D01*
X151674285Y-105984523D02*
X151613809Y-106045000D01*
X151674285Y-106105476D01*
X151734761Y-106045000D01*
X151674285Y-105984523D01*
X151674285Y-106105476D01*
X152218571Y-107194047D02*
X152339523Y-107254523D01*
X152581428Y-107254523D01*
X152702380Y-107194047D01*
X152762857Y-107073095D01*
X152762857Y-107012619D01*
X152702380Y-106891666D01*
X152581428Y-106831190D01*
X152400000Y-106831190D01*
X152279047Y-106770714D01*
X152218571Y-106649761D01*
X152218571Y-106589285D01*
X152279047Y-106468333D01*
X152400000Y-106407857D01*
X152581428Y-106407857D01*
X152702380Y-106468333D01*
X153307142Y-107254523D02*
X153307142Y-106407857D01*
X153307142Y-105984523D02*
X153246666Y-106045000D01*
X153307142Y-106105476D01*
X153367619Y-106045000D01*
X153307142Y-105984523D01*
X153307142Y-106105476D01*
X153911904Y-107254523D02*
X153911904Y-105984523D01*
X153911904Y-106468333D02*
X154032857Y-106407857D01*
X154274761Y-106407857D01*
X154395714Y-106468333D01*
X154456190Y-106528809D01*
X154516666Y-106649761D01*
X154516666Y-107012619D01*
X154456190Y-107133571D01*
X154395714Y-107194047D01*
X154274761Y-107254523D01*
X154032857Y-107254523D01*
X153911904Y-107194047D01*
X155242380Y-107254523D02*
X155121428Y-107194047D01*
X155060952Y-107073095D01*
X155060952Y-105984523D01*
X156210000Y-107194047D02*
X156089047Y-107254523D01*
X155847142Y-107254523D01*
X155726190Y-107194047D01*
X155665714Y-107073095D01*
X155665714Y-106589285D01*
X155726190Y-106468333D01*
X155847142Y-106407857D01*
X156089047Y-106407857D01*
X156210000Y-106468333D01*
X156270476Y-106589285D01*
X156270476Y-106710238D01*
X155665714Y-106831190D01*
X158205714Y-106589285D02*
X158387142Y-106649761D01*
X158447619Y-106710238D01*
X158508095Y-106831190D01*
X158508095Y-107012619D01*
X158447619Y-107133571D01*
X158387142Y-107194047D01*
X158266190Y-107254523D01*
X157782380Y-107254523D01*
X157782380Y-105984523D01*
X158205714Y-105984523D01*
X158326666Y-106045000D01*
X158387142Y-106105476D01*
X158447619Y-106226428D01*
X158447619Y-106347380D01*
X158387142Y-106468333D01*
X158326666Y-106528809D01*
X158205714Y-106589285D01*
X157782380Y-106589285D01*
X159596666Y-107254523D02*
X159596666Y-106589285D01*
X159536190Y-106468333D01*
X159415238Y-106407857D01*
X159173333Y-106407857D01*
X159052380Y-106468333D01*
X159596666Y-107194047D02*
X159475714Y-107254523D01*
X159173333Y-107254523D01*
X159052380Y-107194047D01*
X158991904Y-107073095D01*
X158991904Y-106952142D01*
X159052380Y-106831190D01*
X159173333Y-106770714D01*
X159475714Y-106770714D01*
X159596666Y-106710238D01*
X160745714Y-107194047D02*
X160624761Y-107254523D01*
X160382857Y-107254523D01*
X160261904Y-107194047D01*
X160201428Y-107133571D01*
X160140952Y-107012619D01*
X160140952Y-106649761D01*
X160201428Y-106528809D01*
X160261904Y-106468333D01*
X160382857Y-106407857D01*
X160624761Y-106407857D01*
X160745714Y-106468333D01*
X161290000Y-107254523D02*
X161290000Y-105984523D01*
X161410952Y-106770714D02*
X161773809Y-107254523D01*
X161773809Y-106407857D02*
X161290000Y-106891666D01*
X162499523Y-107254523D02*
X162378571Y-107194047D01*
X162318095Y-107073095D01*
X162318095Y-105984523D01*
X162983333Y-107254523D02*
X162983333Y-106407857D01*
X162983333Y-105984523D02*
X162922857Y-106045000D01*
X162983333Y-106105476D01*
X163043809Y-106045000D01*
X162983333Y-105984523D01*
X162983333Y-106105476D01*
X164132380Y-106407857D02*
X164132380Y-107435952D01*
X164071904Y-107556904D01*
X164011428Y-107617380D01*
X163890476Y-107677857D01*
X163709047Y-107677857D01*
X163588095Y-107617380D01*
X164132380Y-107194047D02*
X164011428Y-107254523D01*
X163769523Y-107254523D01*
X163648571Y-107194047D01*
X163588095Y-107133571D01*
X163527619Y-107012619D01*
X163527619Y-106649761D01*
X163588095Y-106528809D01*
X163648571Y-106468333D01*
X163769523Y-106407857D01*
X164011428Y-106407857D01*
X164132380Y-106468333D01*
X164737142Y-107254523D02*
X164737142Y-105984523D01*
X165281428Y-107254523D02*
X165281428Y-106589285D01*
X165220952Y-106468333D01*
X165100000Y-106407857D01*
X164918571Y-106407857D01*
X164797619Y-106468333D01*
X164737142Y-106528809D01*
X165704761Y-106407857D02*
X166188571Y-106407857D01*
X165886190Y-105984523D02*
X165886190Y-107073095D01*
X165946666Y-107194047D01*
X166067619Y-107254523D01*
X166188571Y-107254523D01*
X167519047Y-106105476D02*
X167579523Y-106045000D01*
X167700476Y-105984523D01*
X168002857Y-105984523D01*
X168123809Y-106045000D01*
X168184285Y-106105476D01*
X168244761Y-106226428D01*
X168244761Y-106347380D01*
X168184285Y-106528809D01*
X167458571Y-107254523D01*
X168244761Y-107254523D01*
X131354285Y-105984523D02*
X131777619Y-107254523D01*
X132200952Y-105984523D01*
X132624285Y-107254523D02*
X132624285Y-106407857D01*
X132624285Y-105984523D02*
X132563809Y-106045000D01*
X132624285Y-106105476D01*
X132684761Y-106045000D01*
X132624285Y-105984523D01*
X132624285Y-106105476D01*
X133168571Y-107194047D02*
X133289523Y-107254523D01*
X133531428Y-107254523D01*
X133652380Y-107194047D01*
X133712857Y-107073095D01*
X133712857Y-107012619D01*
X133652380Y-106891666D01*
X133531428Y-106831190D01*
X133350000Y-106831190D01*
X133229047Y-106770714D01*
X133168571Y-106649761D01*
X133168571Y-106589285D01*
X133229047Y-106468333D01*
X133350000Y-106407857D01*
X133531428Y-106407857D01*
X133652380Y-106468333D01*
X134257142Y-107254523D02*
X134257142Y-106407857D01*
X134257142Y-105984523D02*
X134196666Y-106045000D01*
X134257142Y-106105476D01*
X134317619Y-106045000D01*
X134257142Y-105984523D01*
X134257142Y-106105476D01*
X134861904Y-107254523D02*
X134861904Y-105984523D01*
X134861904Y-106468333D02*
X134982857Y-106407857D01*
X135224761Y-106407857D01*
X135345714Y-106468333D01*
X135406190Y-106528809D01*
X135466666Y-106649761D01*
X135466666Y-107012619D01*
X135406190Y-107133571D01*
X135345714Y-107194047D01*
X135224761Y-107254523D01*
X134982857Y-107254523D01*
X134861904Y-107194047D01*
X136192380Y-107254523D02*
X136071428Y-107194047D01*
X136010952Y-107073095D01*
X136010952Y-105984523D01*
X137160000Y-107194047D02*
X137039047Y-107254523D01*
X136797142Y-107254523D01*
X136676190Y-107194047D01*
X136615714Y-107073095D01*
X136615714Y-106589285D01*
X136676190Y-106468333D01*
X136797142Y-106407857D01*
X137039047Y-106407857D01*
X137160000Y-106468333D01*
X137220476Y-106589285D01*
X137220476Y-106710238D01*
X136615714Y-106831190D01*
X139155714Y-106589285D02*
X139337142Y-106649761D01*
X139397619Y-106710238D01*
X139458095Y-106831190D01*
X139458095Y-107012619D01*
X139397619Y-107133571D01*
X139337142Y-107194047D01*
X139216190Y-107254523D01*
X138732380Y-107254523D01*
X138732380Y-105984523D01*
X139155714Y-105984523D01*
X139276666Y-106045000D01*
X139337142Y-106105476D01*
X139397619Y-106226428D01*
X139397619Y-106347380D01*
X139337142Y-106468333D01*
X139276666Y-106528809D01*
X139155714Y-106589285D01*
X138732380Y-106589285D01*
X140546666Y-107254523D02*
X140546666Y-106589285D01*
X140486190Y-106468333D01*
X140365238Y-106407857D01*
X140123333Y-106407857D01*
X140002380Y-106468333D01*
X140546666Y-107194047D02*
X140425714Y-107254523D01*
X140123333Y-107254523D01*
X140002380Y-107194047D01*
X139941904Y-107073095D01*
X139941904Y-106952142D01*
X140002380Y-106831190D01*
X140123333Y-106770714D01*
X140425714Y-106770714D01*
X140546666Y-106710238D01*
X141695714Y-107194047D02*
X141574761Y-107254523D01*
X141332857Y-107254523D01*
X141211904Y-107194047D01*
X141151428Y-107133571D01*
X141090952Y-107012619D01*
X141090952Y-106649761D01*
X141151428Y-106528809D01*
X141211904Y-106468333D01*
X141332857Y-106407857D01*
X141574761Y-106407857D01*
X141695714Y-106468333D01*
X142240000Y-107254523D02*
X142240000Y-105984523D01*
X142360952Y-106770714D02*
X142723809Y-107254523D01*
X142723809Y-106407857D02*
X142240000Y-106891666D01*
X143449523Y-107254523D02*
X143328571Y-107194047D01*
X143268095Y-107073095D01*
X143268095Y-105984523D01*
X143933333Y-107254523D02*
X143933333Y-106407857D01*
X143933333Y-105984523D02*
X143872857Y-106045000D01*
X143933333Y-106105476D01*
X143993809Y-106045000D01*
X143933333Y-105984523D01*
X143933333Y-106105476D01*
X145082380Y-106407857D02*
X145082380Y-107435952D01*
X145021904Y-107556904D01*
X144961428Y-107617380D01*
X144840476Y-107677857D01*
X144659047Y-107677857D01*
X144538095Y-107617380D01*
X145082380Y-107194047D02*
X144961428Y-107254523D01*
X144719523Y-107254523D01*
X144598571Y-107194047D01*
X144538095Y-107133571D01*
X144477619Y-107012619D01*
X144477619Y-106649761D01*
X144538095Y-106528809D01*
X144598571Y-106468333D01*
X144719523Y-106407857D01*
X144961428Y-106407857D01*
X145082380Y-106468333D01*
X145687142Y-107254523D02*
X145687142Y-105984523D01*
X146231428Y-107254523D02*
X146231428Y-106589285D01*
X146170952Y-106468333D01*
X146050000Y-106407857D01*
X145868571Y-106407857D01*
X145747619Y-106468333D01*
X145687142Y-106528809D01*
X146654761Y-106407857D02*
X147138571Y-106407857D01*
X146836190Y-105984523D02*
X146836190Y-107073095D01*
X146896666Y-107194047D01*
X147017619Y-107254523D01*
X147138571Y-107254523D01*
X149194761Y-107254523D02*
X148469047Y-107254523D01*
X148831904Y-107254523D02*
X148831904Y-105984523D01*
X148710952Y-106165952D01*
X148590000Y-106286904D01*
X148469047Y-106347380D01*
X152762857Y-104714523D02*
X152762857Y-103444523D01*
X154093333Y-104714523D02*
X153670000Y-104109761D01*
X153367619Y-104714523D02*
X153367619Y-103444523D01*
X153851428Y-103444523D01*
X153972380Y-103505000D01*
X154032857Y-103565476D01*
X154093333Y-103686428D01*
X154093333Y-103867857D01*
X154032857Y-103988809D01*
X153972380Y-104049285D01*
X153851428Y-104109761D01*
X153367619Y-104109761D01*
X156028571Y-104049285D02*
X156210000Y-104109761D01*
X156270476Y-104170238D01*
X156330952Y-104291190D01*
X156330952Y-104472619D01*
X156270476Y-104593571D01*
X156210000Y-104654047D01*
X156089047Y-104714523D01*
X155605238Y-104714523D01*
X155605238Y-103444523D01*
X156028571Y-103444523D01*
X156149523Y-103505000D01*
X156210000Y-103565476D01*
X156270476Y-103686428D01*
X156270476Y-103807380D01*
X156210000Y-103928333D01*
X156149523Y-103988809D01*
X156028571Y-104049285D01*
X155605238Y-104049285D01*
X157419523Y-104714523D02*
X157419523Y-104049285D01*
X157359047Y-103928333D01*
X157238095Y-103867857D01*
X156996190Y-103867857D01*
X156875238Y-103928333D01*
X157419523Y-104654047D02*
X157298571Y-104714523D01*
X156996190Y-104714523D01*
X156875238Y-104654047D01*
X156814761Y-104533095D01*
X156814761Y-104412142D01*
X156875238Y-104291190D01*
X156996190Y-104230714D01*
X157298571Y-104230714D01*
X157419523Y-104170238D01*
X158568571Y-104654047D02*
X158447619Y-104714523D01*
X158205714Y-104714523D01*
X158084761Y-104654047D01*
X158024285Y-104593571D01*
X157963809Y-104472619D01*
X157963809Y-104109761D01*
X158024285Y-103988809D01*
X158084761Y-103928333D01*
X158205714Y-103867857D01*
X158447619Y-103867857D01*
X158568571Y-103928333D01*
X159112857Y-104714523D02*
X159112857Y-103444523D01*
X159233809Y-104230714D02*
X159596666Y-104714523D01*
X159596666Y-103867857D02*
X159112857Y-104351666D01*
X160322380Y-104714523D02*
X160201428Y-104654047D01*
X160140952Y-104533095D01*
X160140952Y-103444523D01*
X160806190Y-104714523D02*
X160806190Y-103867857D01*
X160806190Y-103444523D02*
X160745714Y-103505000D01*
X160806190Y-103565476D01*
X160866666Y-103505000D01*
X160806190Y-103444523D01*
X160806190Y-103565476D01*
X161955238Y-103867857D02*
X161955238Y-104895952D01*
X161894761Y-105016904D01*
X161834285Y-105077380D01*
X161713333Y-105137857D01*
X161531904Y-105137857D01*
X161410952Y-105077380D01*
X161955238Y-104654047D02*
X161834285Y-104714523D01*
X161592380Y-104714523D01*
X161471428Y-104654047D01*
X161410952Y-104593571D01*
X161350476Y-104472619D01*
X161350476Y-104109761D01*
X161410952Y-103988809D01*
X161471428Y-103928333D01*
X161592380Y-103867857D01*
X161834285Y-103867857D01*
X161955238Y-103928333D01*
X162560000Y-104714523D02*
X162560000Y-103444523D01*
X163104285Y-104714523D02*
X163104285Y-104049285D01*
X163043809Y-103928333D01*
X162922857Y-103867857D01*
X162741428Y-103867857D01*
X162620476Y-103928333D01*
X162560000Y-103988809D01*
X163527619Y-103867857D02*
X164011428Y-103867857D01*
X163709047Y-103444523D02*
X163709047Y-104533095D01*
X163769523Y-104654047D01*
X163890476Y-104714523D01*
X164011428Y-104714523D01*
X165341904Y-103565476D02*
X165402380Y-103505000D01*
X165523333Y-103444523D01*
X165825714Y-103444523D01*
X165946666Y-103505000D01*
X166007142Y-103565476D01*
X166067619Y-103686428D01*
X166067619Y-103807380D01*
X166007142Y-103988809D01*
X165281428Y-104714523D01*
X166067619Y-104714523D01*
X133712857Y-104714523D02*
X133712857Y-103444523D01*
X135043333Y-104714523D02*
X134620000Y-104109761D01*
X134317619Y-104714523D02*
X134317619Y-103444523D01*
X134801428Y-103444523D01*
X134922380Y-103505000D01*
X134982857Y-103565476D01*
X135043333Y-103686428D01*
X135043333Y-103867857D01*
X134982857Y-103988809D01*
X134922380Y-104049285D01*
X134801428Y-104109761D01*
X134317619Y-104109761D01*
X136978571Y-104049285D02*
X137160000Y-104109761D01*
X137220476Y-104170238D01*
X137280952Y-104291190D01*
X137280952Y-104472619D01*
X137220476Y-104593571D01*
X137160000Y-104654047D01*
X137039047Y-104714523D01*
X136555238Y-104714523D01*
X136555238Y-103444523D01*
X136978571Y-103444523D01*
X137099523Y-103505000D01*
X137160000Y-103565476D01*
X137220476Y-103686428D01*
X137220476Y-103807380D01*
X137160000Y-103928333D01*
X137099523Y-103988809D01*
X136978571Y-104049285D01*
X136555238Y-104049285D01*
X138369523Y-104714523D02*
X138369523Y-104049285D01*
X138309047Y-103928333D01*
X138188095Y-103867857D01*
X137946190Y-103867857D01*
X137825238Y-103928333D01*
X138369523Y-104654047D02*
X138248571Y-104714523D01*
X137946190Y-104714523D01*
X137825238Y-104654047D01*
X137764761Y-104533095D01*
X137764761Y-104412142D01*
X137825238Y-104291190D01*
X137946190Y-104230714D01*
X138248571Y-104230714D01*
X138369523Y-104170238D01*
X139518571Y-104654047D02*
X139397619Y-104714523D01*
X139155714Y-104714523D01*
X139034761Y-104654047D01*
X138974285Y-104593571D01*
X138913809Y-104472619D01*
X138913809Y-104109761D01*
X138974285Y-103988809D01*
X139034761Y-103928333D01*
X139155714Y-103867857D01*
X139397619Y-103867857D01*
X139518571Y-103928333D01*
X140062857Y-104714523D02*
X140062857Y-103444523D01*
X140183809Y-104230714D02*
X140546666Y-104714523D01*
X140546666Y-103867857D02*
X140062857Y-104351666D01*
X141272380Y-104714523D02*
X141151428Y-104654047D01*
X141090952Y-104533095D01*
X141090952Y-103444523D01*
X141756190Y-104714523D02*
X141756190Y-103867857D01*
X141756190Y-103444523D02*
X141695714Y-103505000D01*
X141756190Y-103565476D01*
X141816666Y-103505000D01*
X141756190Y-103444523D01*
X141756190Y-103565476D01*
X142905238Y-103867857D02*
X142905238Y-104895952D01*
X142844761Y-105016904D01*
X142784285Y-105077380D01*
X142663333Y-105137857D01*
X142481904Y-105137857D01*
X142360952Y-105077380D01*
X142905238Y-104654047D02*
X142784285Y-104714523D01*
X142542380Y-104714523D01*
X142421428Y-104654047D01*
X142360952Y-104593571D01*
X142300476Y-104472619D01*
X142300476Y-104109761D01*
X142360952Y-103988809D01*
X142421428Y-103928333D01*
X142542380Y-103867857D01*
X142784285Y-103867857D01*
X142905238Y-103928333D01*
X143510000Y-104714523D02*
X143510000Y-103444523D01*
X144054285Y-104714523D02*
X144054285Y-104049285D01*
X143993809Y-103928333D01*
X143872857Y-103867857D01*
X143691428Y-103867857D01*
X143570476Y-103928333D01*
X143510000Y-103988809D01*
X144477619Y-103867857D02*
X144961428Y-103867857D01*
X144659047Y-103444523D02*
X144659047Y-104533095D01*
X144719523Y-104654047D01*
X144840476Y-104714523D01*
X144961428Y-104714523D01*
X147017619Y-104714523D02*
X146291904Y-104714523D01*
X146654761Y-104714523D02*
X146654761Y-103444523D01*
X146533809Y-103625952D01*
X146412857Y-103746904D01*
X146291904Y-103807380D01*
D11*
X187960000Y-80010000D02*
X187960000Y-130810000D01*
X149860000Y-80010000D02*
X149860000Y-130810000D01*
X111760000Y-105410000D02*
X172720000Y-105410000D01*
D12*
X98031904Y-86458273D02*
X97427142Y-86458273D01*
X97427142Y-85188273D01*
X98636666Y-86458273D02*
X98515714Y-86397797D01*
X98455238Y-86337321D01*
X98394761Y-86216369D01*
X98394761Y-85853511D01*
X98455238Y-85732559D01*
X98515714Y-85672083D01*
X98636666Y-85611607D01*
X98818095Y-85611607D01*
X98939047Y-85672083D01*
X98999523Y-85732559D01*
X99060000Y-85853511D01*
X99060000Y-86216369D01*
X98999523Y-86337321D01*
X98939047Y-86397797D01*
X98818095Y-86458273D01*
X98636666Y-86458273D01*
X99483333Y-85611607D02*
X99725238Y-86458273D01*
X99967142Y-85853511D01*
X100209047Y-86458273D01*
X100450952Y-85611607D01*
X101720952Y-85188273D02*
X102144285Y-86458273D01*
X102567619Y-85188273D01*
X103172380Y-86458273D02*
X103051428Y-86397797D01*
X102990952Y-86337321D01*
X102930476Y-86216369D01*
X102930476Y-85853511D01*
X102990952Y-85732559D01*
X103051428Y-85672083D01*
X103172380Y-85611607D01*
X103353809Y-85611607D01*
X103474761Y-85672083D01*
X103535238Y-85732559D01*
X103595714Y-85853511D01*
X103595714Y-86216369D01*
X103535238Y-86337321D01*
X103474761Y-86397797D01*
X103353809Y-86458273D01*
X103172380Y-86458273D01*
X104321428Y-86458273D02*
X104200476Y-86397797D01*
X104140000Y-86276845D01*
X104140000Y-85188273D01*
X104623809Y-85611607D02*
X105107619Y-85611607D01*
X104805238Y-85188273D02*
X104805238Y-86276845D01*
X104865714Y-86397797D01*
X104986666Y-86458273D01*
X105107619Y-86458273D01*
X106075238Y-86458273D02*
X106075238Y-85793035D01*
X106014761Y-85672083D01*
X105893809Y-85611607D01*
X105651904Y-85611607D01*
X105530952Y-85672083D01*
X106075238Y-86397797D02*
X105954285Y-86458273D01*
X105651904Y-86458273D01*
X105530952Y-86397797D01*
X105470476Y-86276845D01*
X105470476Y-86155892D01*
X105530952Y-86034940D01*
X105651904Y-85974464D01*
X105954285Y-85974464D01*
X106075238Y-85913988D01*
X107224285Y-85611607D02*
X107224285Y-86639702D01*
X107163809Y-86760654D01*
X107103333Y-86821130D01*
X106982380Y-86881607D01*
X106800952Y-86881607D01*
X106680000Y-86821130D01*
X107224285Y-86397797D02*
X107103333Y-86458273D01*
X106861428Y-86458273D01*
X106740476Y-86397797D01*
X106680000Y-86337321D01*
X106619523Y-86216369D01*
X106619523Y-85853511D01*
X106680000Y-85732559D01*
X106740476Y-85672083D01*
X106861428Y-85611607D01*
X107103333Y-85611607D01*
X107224285Y-85672083D01*
X108312857Y-86397797D02*
X108191904Y-86458273D01*
X107950000Y-86458273D01*
X107829047Y-86397797D01*
X107768571Y-86276845D01*
X107768571Y-85793035D01*
X107829047Y-85672083D01*
X107950000Y-85611607D01*
X108191904Y-85611607D01*
X108312857Y-85672083D01*
X108373333Y-85793035D01*
X108373333Y-85913988D01*
X107768571Y-86034940D01*
X99574047Y-88559821D02*
X99513571Y-88620297D01*
X99332142Y-88680773D01*
X99211190Y-88680773D01*
X99029761Y-88620297D01*
X98908809Y-88499345D01*
X98848333Y-88378392D01*
X98787857Y-88136488D01*
X98787857Y-87955059D01*
X98848333Y-87713154D01*
X98908809Y-87592202D01*
X99029761Y-87471250D01*
X99211190Y-87410773D01*
X99332142Y-87410773D01*
X99513571Y-87471250D01*
X99574047Y-87531726D01*
X100118333Y-88680773D02*
X100118333Y-87410773D01*
X100662619Y-88680773D02*
X100662619Y-88015535D01*
X100602142Y-87894583D01*
X100481190Y-87834107D01*
X100299761Y-87834107D01*
X100178809Y-87894583D01*
X100118333Y-87955059D01*
X101811666Y-88680773D02*
X101811666Y-88015535D01*
X101751190Y-87894583D01*
X101630238Y-87834107D01*
X101388333Y-87834107D01*
X101267380Y-87894583D01*
X101811666Y-88620297D02*
X101690714Y-88680773D01*
X101388333Y-88680773D01*
X101267380Y-88620297D01*
X101206904Y-88499345D01*
X101206904Y-88378392D01*
X101267380Y-88257440D01*
X101388333Y-88196964D01*
X101690714Y-88196964D01*
X101811666Y-88136488D01*
X102416428Y-87834107D02*
X102416428Y-88680773D01*
X102416428Y-87955059D02*
X102476904Y-87894583D01*
X102597857Y-87834107D01*
X102779285Y-87834107D01*
X102900238Y-87894583D01*
X102960714Y-88015535D01*
X102960714Y-88680773D01*
X103565476Y-87834107D02*
X103565476Y-88680773D01*
X103565476Y-87955059D02*
X103625952Y-87894583D01*
X103746904Y-87834107D01*
X103928333Y-87834107D01*
X104049285Y-87894583D01*
X104109761Y-88015535D01*
X104109761Y-88680773D01*
X105198333Y-88620297D02*
X105077380Y-88680773D01*
X104835476Y-88680773D01*
X104714523Y-88620297D01*
X104654047Y-88499345D01*
X104654047Y-88015535D01*
X104714523Y-87894583D01*
X104835476Y-87834107D01*
X105077380Y-87834107D01*
X105198333Y-87894583D01*
X105258809Y-88015535D01*
X105258809Y-88136488D01*
X104654047Y-88257440D01*
X105984523Y-88680773D02*
X105863571Y-88620297D01*
X105803095Y-88499345D01*
X105803095Y-87410773D01*
X106407857Y-88620297D02*
X106528809Y-88680773D01*
X106770714Y-88680773D01*
X106891666Y-88620297D01*
X106952142Y-88499345D01*
X106952142Y-88438869D01*
X106891666Y-88317916D01*
X106770714Y-88257440D01*
X106589285Y-88257440D01*
X106468333Y-88196964D01*
X106407857Y-88076011D01*
X106407857Y-88015535D01*
X106468333Y-87894583D01*
X106589285Y-87834107D01*
X106770714Y-87834107D01*
X106891666Y-87894583D01*
X76744285Y-86458273D02*
X76744285Y-85188273D01*
X76744285Y-85793035D02*
X77470000Y-85793035D01*
X77470000Y-86458273D02*
X77470000Y-85188273D01*
X78074761Y-86458273D02*
X78074761Y-85611607D01*
X78074761Y-85188273D02*
X78014285Y-85248750D01*
X78074761Y-85309226D01*
X78135238Y-85248750D01*
X78074761Y-85188273D01*
X78074761Y-85309226D01*
X79223809Y-85611607D02*
X79223809Y-86639702D01*
X79163333Y-86760654D01*
X79102857Y-86821130D01*
X78981904Y-86881607D01*
X78800476Y-86881607D01*
X78679523Y-86821130D01*
X79223809Y-86397797D02*
X79102857Y-86458273D01*
X78860952Y-86458273D01*
X78740000Y-86397797D01*
X78679523Y-86337321D01*
X78619047Y-86216369D01*
X78619047Y-85853511D01*
X78679523Y-85732559D01*
X78740000Y-85672083D01*
X78860952Y-85611607D01*
X79102857Y-85611607D01*
X79223809Y-85672083D01*
X79828571Y-86458273D02*
X79828571Y-85188273D01*
X80372857Y-86458273D02*
X80372857Y-85793035D01*
X80312380Y-85672083D01*
X80191428Y-85611607D01*
X80010000Y-85611607D01*
X79889047Y-85672083D01*
X79828571Y-85732559D01*
X81763809Y-85188273D02*
X82187142Y-86458273D01*
X82610476Y-85188273D01*
X83215238Y-86458273D02*
X83094285Y-86397797D01*
X83033809Y-86337321D01*
X82973333Y-86216369D01*
X82973333Y-85853511D01*
X83033809Y-85732559D01*
X83094285Y-85672083D01*
X83215238Y-85611607D01*
X83396666Y-85611607D01*
X83517619Y-85672083D01*
X83578095Y-85732559D01*
X83638571Y-85853511D01*
X83638571Y-86216369D01*
X83578095Y-86337321D01*
X83517619Y-86397797D01*
X83396666Y-86458273D01*
X83215238Y-86458273D01*
X84364285Y-86458273D02*
X84243333Y-86397797D01*
X84182857Y-86276845D01*
X84182857Y-85188273D01*
X84666666Y-85611607D02*
X85150476Y-85611607D01*
X84848095Y-85188273D02*
X84848095Y-86276845D01*
X84908571Y-86397797D01*
X85029523Y-86458273D01*
X85150476Y-86458273D01*
X86118095Y-86458273D02*
X86118095Y-85793035D01*
X86057619Y-85672083D01*
X85936666Y-85611607D01*
X85694761Y-85611607D01*
X85573809Y-85672083D01*
X86118095Y-86397797D02*
X85997142Y-86458273D01*
X85694761Y-86458273D01*
X85573809Y-86397797D01*
X85513333Y-86276845D01*
X85513333Y-86155892D01*
X85573809Y-86034940D01*
X85694761Y-85974464D01*
X85997142Y-85974464D01*
X86118095Y-85913988D01*
X87267142Y-85611607D02*
X87267142Y-86639702D01*
X87206666Y-86760654D01*
X87146190Y-86821130D01*
X87025238Y-86881607D01*
X86843809Y-86881607D01*
X86722857Y-86821130D01*
X87267142Y-86397797D02*
X87146190Y-86458273D01*
X86904285Y-86458273D01*
X86783333Y-86397797D01*
X86722857Y-86337321D01*
X86662380Y-86216369D01*
X86662380Y-85853511D01*
X86722857Y-85732559D01*
X86783333Y-85672083D01*
X86904285Y-85611607D01*
X87146190Y-85611607D01*
X87267142Y-85672083D01*
X88355714Y-86397797D02*
X88234761Y-86458273D01*
X87992857Y-86458273D01*
X87871904Y-86397797D01*
X87811428Y-86276845D01*
X87811428Y-85793035D01*
X87871904Y-85672083D01*
X87992857Y-85611607D01*
X88234761Y-85611607D01*
X88355714Y-85672083D01*
X88416190Y-85793035D01*
X88416190Y-85913988D01*
X87811428Y-86034940D01*
X79254047Y-88559821D02*
X79193571Y-88620297D01*
X79012142Y-88680773D01*
X78891190Y-88680773D01*
X78709761Y-88620297D01*
X78588809Y-88499345D01*
X78528333Y-88378392D01*
X78467857Y-88136488D01*
X78467857Y-87955059D01*
X78528333Y-87713154D01*
X78588809Y-87592202D01*
X78709761Y-87471250D01*
X78891190Y-87410773D01*
X79012142Y-87410773D01*
X79193571Y-87471250D01*
X79254047Y-87531726D01*
X79798333Y-88680773D02*
X79798333Y-87410773D01*
X80342619Y-88680773D02*
X80342619Y-88015535D01*
X80282142Y-87894583D01*
X80161190Y-87834107D01*
X79979761Y-87834107D01*
X79858809Y-87894583D01*
X79798333Y-87955059D01*
X81491666Y-88680773D02*
X81491666Y-88015535D01*
X81431190Y-87894583D01*
X81310238Y-87834107D01*
X81068333Y-87834107D01*
X80947380Y-87894583D01*
X81491666Y-88620297D02*
X81370714Y-88680773D01*
X81068333Y-88680773D01*
X80947380Y-88620297D01*
X80886904Y-88499345D01*
X80886904Y-88378392D01*
X80947380Y-88257440D01*
X81068333Y-88196964D01*
X81370714Y-88196964D01*
X81491666Y-88136488D01*
X82096428Y-87834107D02*
X82096428Y-88680773D01*
X82096428Y-87955059D02*
X82156904Y-87894583D01*
X82277857Y-87834107D01*
X82459285Y-87834107D01*
X82580238Y-87894583D01*
X82640714Y-88015535D01*
X82640714Y-88680773D01*
X83245476Y-87834107D02*
X83245476Y-88680773D01*
X83245476Y-87955059D02*
X83305952Y-87894583D01*
X83426904Y-87834107D01*
X83608333Y-87834107D01*
X83729285Y-87894583D01*
X83789761Y-88015535D01*
X83789761Y-88680773D01*
X84878333Y-88620297D02*
X84757380Y-88680773D01*
X84515476Y-88680773D01*
X84394523Y-88620297D01*
X84334047Y-88499345D01*
X84334047Y-88015535D01*
X84394523Y-87894583D01*
X84515476Y-87834107D01*
X84757380Y-87834107D01*
X84878333Y-87894583D01*
X84938809Y-88015535D01*
X84938809Y-88136488D01*
X84334047Y-88257440D01*
X85664523Y-88680773D02*
X85543571Y-88620297D01*
X85483095Y-88499345D01*
X85483095Y-87410773D01*
X86087857Y-88620297D02*
X86208809Y-88680773D01*
X86450714Y-88680773D01*
X86571666Y-88620297D01*
X86632142Y-88499345D01*
X86632142Y-88438869D01*
X86571666Y-88317916D01*
X86450714Y-88257440D01*
X86269285Y-88257440D01*
X86148333Y-88196964D01*
X86087857Y-88076011D01*
X86087857Y-88015535D01*
X86148333Y-87894583D01*
X86269285Y-87834107D01*
X86450714Y-87834107D01*
X86571666Y-87894583D01*
X105349523Y-131409470D02*
X105349523Y-130562803D01*
X106619523Y-131107089D01*
X102809523Y-130744232D02*
X102809523Y-130986136D01*
X102870000Y-131107089D01*
X102930476Y-131167565D01*
X103111904Y-131288517D01*
X103353809Y-131348994D01*
X103837619Y-131348994D01*
X103958571Y-131288517D01*
X104019047Y-131228041D01*
X104079523Y-131107089D01*
X104079523Y-130865184D01*
X104019047Y-130744232D01*
X103958571Y-130683755D01*
X103837619Y-130623279D01*
X103535238Y-130623279D01*
X103414285Y-130683755D01*
X103353809Y-130744232D01*
X103293333Y-130865184D01*
X103293333Y-131107089D01*
X103353809Y-131228041D01*
X103414285Y-131288517D01*
X103535238Y-131348994D01*
X100269523Y-130683755D02*
X100269523Y-131288517D01*
X100874285Y-131348994D01*
X100813809Y-131288517D01*
X100753333Y-131167565D01*
X100753333Y-130865184D01*
X100813809Y-130744232D01*
X100874285Y-130683755D01*
X100995238Y-130623279D01*
X101297619Y-130623279D01*
X101418571Y-130683755D01*
X101479047Y-130744232D01*
X101539523Y-130865184D01*
X101539523Y-131167565D01*
X101479047Y-131288517D01*
X101418571Y-131348994D01*
X98152857Y-130744232D02*
X98999523Y-130744232D01*
X97669047Y-131046613D02*
X98576190Y-131348994D01*
X98576190Y-130562803D01*
X86299523Y-131409470D02*
X86299523Y-130623279D01*
X86783333Y-131046613D01*
X86783333Y-130865184D01*
X86843809Y-130744232D01*
X86904285Y-130683755D01*
X87025238Y-130623279D01*
X87327619Y-130623279D01*
X87448571Y-130683755D01*
X87509047Y-130744232D01*
X87569523Y-130865184D01*
X87569523Y-131228041D01*
X87509047Y-131348994D01*
X87448571Y-131409470D01*
X83880476Y-131348994D02*
X83820000Y-131288517D01*
X83759523Y-131167565D01*
X83759523Y-130865184D01*
X83820000Y-130744232D01*
X83880476Y-130683755D01*
X84001428Y-130623279D01*
X84122380Y-130623279D01*
X84303809Y-130683755D01*
X85029523Y-131409470D01*
X85029523Y-130623279D01*
X82489523Y-130623279D02*
X82489523Y-131348994D01*
X82489523Y-130986136D02*
X81219523Y-130986136D01*
X81400952Y-131107089D01*
X81521904Y-131228041D01*
X81582380Y-131348994D01*
X78679523Y-131046613D02*
X78679523Y-130925660D01*
X78740000Y-130804708D01*
X78800476Y-130744232D01*
X78921428Y-130683755D01*
X79163333Y-130623279D01*
X79465714Y-130623279D01*
X79707619Y-130683755D01*
X79828571Y-130744232D01*
X79889047Y-130804708D01*
X79949523Y-130925660D01*
X79949523Y-131046613D01*
X79889047Y-131167565D01*
X79828571Y-131228041D01*
X79707619Y-131288517D01*
X79465714Y-131348994D01*
X79163333Y-131348994D01*
X78921428Y-131288517D01*
X78800476Y-131228041D01*
X78740000Y-131167565D01*
X78679523Y-131046613D01*
X112304285Y-105984523D02*
X112727619Y-107254523D01*
X113150952Y-105984523D01*
X113574285Y-107254523D02*
X113574285Y-106407857D01*
X113574285Y-105984523D02*
X113513809Y-106045000D01*
X113574285Y-106105476D01*
X113634761Y-106045000D01*
X113574285Y-105984523D01*
X113574285Y-106105476D01*
X114118571Y-107194047D02*
X114239523Y-107254523D01*
X114481428Y-107254523D01*
X114602380Y-107194047D01*
X114662857Y-107073095D01*
X114662857Y-107012619D01*
X114602380Y-106891666D01*
X114481428Y-106831190D01*
X114300000Y-106831190D01*
X114179047Y-106770714D01*
X114118571Y-106649761D01*
X114118571Y-106589285D01*
X114179047Y-106468333D01*
X114300000Y-106407857D01*
X114481428Y-106407857D01*
X114602380Y-106468333D01*
X115207142Y-107254523D02*
X115207142Y-106407857D01*
X115207142Y-105984523D02*
X115146666Y-106045000D01*
X115207142Y-106105476D01*
X115267619Y-106045000D01*
X115207142Y-105984523D01*
X115207142Y-106105476D01*
X115811904Y-107254523D02*
X115811904Y-105984523D01*
X115811904Y-106468333D02*
X115932857Y-106407857D01*
X116174761Y-106407857D01*
X116295714Y-106468333D01*
X116356190Y-106528809D01*
X116416666Y-106649761D01*
X116416666Y-107012619D01*
X116356190Y-107133571D01*
X116295714Y-107194047D01*
X116174761Y-107254523D01*
X115932857Y-107254523D01*
X115811904Y-107194047D01*
X117142380Y-107254523D02*
X117021428Y-107194047D01*
X116960952Y-107073095D01*
X116960952Y-105984523D01*
X118110000Y-107194047D02*
X117989047Y-107254523D01*
X117747142Y-107254523D01*
X117626190Y-107194047D01*
X117565714Y-107073095D01*
X117565714Y-106589285D01*
X117626190Y-106468333D01*
X117747142Y-106407857D01*
X117989047Y-106407857D01*
X118110000Y-106468333D01*
X118170476Y-106589285D01*
X118170476Y-106710238D01*
X117565714Y-106831190D01*
X120105714Y-106589285D02*
X120287142Y-106649761D01*
X120347619Y-106710238D01*
X120408095Y-106831190D01*
X120408095Y-107012619D01*
X120347619Y-107133571D01*
X120287142Y-107194047D01*
X120166190Y-107254523D01*
X119682380Y-107254523D01*
X119682380Y-105984523D01*
X120105714Y-105984523D01*
X120226666Y-106045000D01*
X120287142Y-106105476D01*
X120347619Y-106226428D01*
X120347619Y-106347380D01*
X120287142Y-106468333D01*
X120226666Y-106528809D01*
X120105714Y-106589285D01*
X119682380Y-106589285D01*
X121496666Y-107254523D02*
X121496666Y-106589285D01*
X121436190Y-106468333D01*
X121315238Y-106407857D01*
X121073333Y-106407857D01*
X120952380Y-106468333D01*
X121496666Y-107194047D02*
X121375714Y-107254523D01*
X121073333Y-107254523D01*
X120952380Y-107194047D01*
X120891904Y-107073095D01*
X120891904Y-106952142D01*
X120952380Y-106831190D01*
X121073333Y-106770714D01*
X121375714Y-106770714D01*
X121496666Y-106710238D01*
X122645714Y-107194047D02*
X122524761Y-107254523D01*
X122282857Y-107254523D01*
X122161904Y-107194047D01*
X122101428Y-107133571D01*
X122040952Y-107012619D01*
X122040952Y-106649761D01*
X122101428Y-106528809D01*
X122161904Y-106468333D01*
X122282857Y-106407857D01*
X122524761Y-106407857D01*
X122645714Y-106468333D01*
X123190000Y-107254523D02*
X123190000Y-105984523D01*
X123310952Y-106770714D02*
X123673809Y-107254523D01*
X123673809Y-106407857D02*
X123190000Y-106891666D01*
X124399523Y-107254523D02*
X124278571Y-107194047D01*
X124218095Y-107073095D01*
X124218095Y-105984523D01*
X124883333Y-107254523D02*
X124883333Y-106407857D01*
X124883333Y-105984523D02*
X124822857Y-106045000D01*
X124883333Y-106105476D01*
X124943809Y-106045000D01*
X124883333Y-105984523D01*
X124883333Y-106105476D01*
X126032380Y-106407857D02*
X126032380Y-107435952D01*
X125971904Y-107556904D01*
X125911428Y-107617380D01*
X125790476Y-107677857D01*
X125609047Y-107677857D01*
X125488095Y-107617380D01*
X126032380Y-107194047D02*
X125911428Y-107254523D01*
X125669523Y-107254523D01*
X125548571Y-107194047D01*
X125488095Y-107133571D01*
X125427619Y-107012619D01*
X125427619Y-106649761D01*
X125488095Y-106528809D01*
X125548571Y-106468333D01*
X125669523Y-106407857D01*
X125911428Y-106407857D01*
X126032380Y-106468333D01*
X126637142Y-107254523D02*
X126637142Y-105984523D01*
X127181428Y-107254523D02*
X127181428Y-106589285D01*
X127120952Y-106468333D01*
X127000000Y-106407857D01*
X126818571Y-106407857D01*
X126697619Y-106468333D01*
X126637142Y-106528809D01*
X127604761Y-106407857D02*
X128088571Y-106407857D01*
X127786190Y-105984523D02*
X127786190Y-107073095D01*
X127846666Y-107194047D01*
X127967619Y-107254523D01*
X128088571Y-107254523D01*
X129721428Y-105984523D02*
X129842380Y-105984523D01*
X129963333Y-106045000D01*
X130023809Y-106105476D01*
X130084285Y-106226428D01*
X130144761Y-106468333D01*
X130144761Y-106770714D01*
X130084285Y-107012619D01*
X130023809Y-107133571D01*
X129963333Y-107194047D01*
X129842380Y-107254523D01*
X129721428Y-107254523D01*
X129600476Y-107194047D01*
X129540000Y-107133571D01*
X129479523Y-107012619D01*
X129419047Y-106770714D01*
X129419047Y-106468333D01*
X129479523Y-106226428D01*
X129540000Y-106105476D01*
X129600476Y-106045000D01*
X129721428Y-105984523D01*
X114662857Y-104714523D02*
X114662857Y-103444523D01*
X115993333Y-104714523D02*
X115570000Y-104109761D01*
X115267619Y-104714523D02*
X115267619Y-103444523D01*
X115751428Y-103444523D01*
X115872380Y-103505000D01*
X115932857Y-103565476D01*
X115993333Y-103686428D01*
X115993333Y-103867857D01*
X115932857Y-103988809D01*
X115872380Y-104049285D01*
X115751428Y-104109761D01*
X115267619Y-104109761D01*
X117928571Y-104049285D02*
X118110000Y-104109761D01*
X118170476Y-104170238D01*
X118230952Y-104291190D01*
X118230952Y-104472619D01*
X118170476Y-104593571D01*
X118110000Y-104654047D01*
X117989047Y-104714523D01*
X117505238Y-104714523D01*
X117505238Y-103444523D01*
X117928571Y-103444523D01*
X118049523Y-103505000D01*
X118110000Y-103565476D01*
X118170476Y-103686428D01*
X118170476Y-103807380D01*
X118110000Y-103928333D01*
X118049523Y-103988809D01*
X117928571Y-104049285D01*
X117505238Y-104049285D01*
X119319523Y-104714523D02*
X119319523Y-104049285D01*
X119259047Y-103928333D01*
X119138095Y-103867857D01*
X118896190Y-103867857D01*
X118775238Y-103928333D01*
X119319523Y-104654047D02*
X119198571Y-104714523D01*
X118896190Y-104714523D01*
X118775238Y-104654047D01*
X118714761Y-104533095D01*
X118714761Y-104412142D01*
X118775238Y-104291190D01*
X118896190Y-104230714D01*
X119198571Y-104230714D01*
X119319523Y-104170238D01*
X120468571Y-104654047D02*
X120347619Y-104714523D01*
X120105714Y-104714523D01*
X119984761Y-104654047D01*
X119924285Y-104593571D01*
X119863809Y-104472619D01*
X119863809Y-104109761D01*
X119924285Y-103988809D01*
X119984761Y-103928333D01*
X120105714Y-103867857D01*
X120347619Y-103867857D01*
X120468571Y-103928333D01*
X121012857Y-104714523D02*
X121012857Y-103444523D01*
X121133809Y-104230714D02*
X121496666Y-104714523D01*
X121496666Y-103867857D02*
X121012857Y-104351666D01*
X122222380Y-104714523D02*
X122101428Y-104654047D01*
X122040952Y-104533095D01*
X122040952Y-103444523D01*
X122706190Y-104714523D02*
X122706190Y-103867857D01*
X122706190Y-103444523D02*
X122645714Y-103505000D01*
X122706190Y-103565476D01*
X122766666Y-103505000D01*
X122706190Y-103444523D01*
X122706190Y-103565476D01*
X123855238Y-103867857D02*
X123855238Y-104895952D01*
X123794761Y-105016904D01*
X123734285Y-105077380D01*
X123613333Y-105137857D01*
X123431904Y-105137857D01*
X123310952Y-105077380D01*
X123855238Y-104654047D02*
X123734285Y-104714523D01*
X123492380Y-104714523D01*
X123371428Y-104654047D01*
X123310952Y-104593571D01*
X123250476Y-104472619D01*
X123250476Y-104109761D01*
X123310952Y-103988809D01*
X123371428Y-103928333D01*
X123492380Y-103867857D01*
X123734285Y-103867857D01*
X123855238Y-103928333D01*
X124460000Y-104714523D02*
X124460000Y-103444523D01*
X125004285Y-104714523D02*
X125004285Y-104049285D01*
X124943809Y-103928333D01*
X124822857Y-103867857D01*
X124641428Y-103867857D01*
X124520476Y-103928333D01*
X124460000Y-103988809D01*
X125427619Y-103867857D02*
X125911428Y-103867857D01*
X125609047Y-103444523D02*
X125609047Y-104533095D01*
X125669523Y-104654047D01*
X125790476Y-104714523D01*
X125911428Y-104714523D01*
X127544285Y-103444523D02*
X127665238Y-103444523D01*
X127786190Y-103505000D01*
X127846666Y-103565476D01*
X127907142Y-103686428D01*
X127967619Y-103928333D01*
X127967619Y-104230714D01*
X127907142Y-104472619D01*
X127846666Y-104593571D01*
X127786190Y-104654047D01*
X127665238Y-104714523D01*
X127544285Y-104714523D01*
X127423333Y-104654047D01*
X127362857Y-104593571D01*
X127302380Y-104472619D01*
X127241904Y-104230714D01*
X127241904Y-103928333D01*
X127302380Y-103686428D01*
X127362857Y-103565476D01*
X127423333Y-103505000D01*
X127544285Y-103444523D01*
X188655476Y-115811904D02*
X188595000Y-115751428D01*
X188534523Y-115630476D01*
X188534523Y-115328095D01*
X188595000Y-115207142D01*
X188655476Y-115146666D01*
X188776428Y-115086190D01*
X188897380Y-115086190D01*
X189078809Y-115146666D01*
X189804523Y-115872380D01*
X189804523Y-115086190D01*
X188957857Y-113997619D02*
X189804523Y-113997619D01*
X188474047Y-114300000D02*
X189381190Y-114602380D01*
X189381190Y-113816190D01*
X188534523Y-113513809D02*
X189804523Y-113090476D01*
X188534523Y-112667142D01*
D11*
X130810000Y-80010000D02*
X130810000Y-130810000D01*
X168910000Y-80010000D02*
X168910000Y-130810000D01*
X111760000Y-80010000D02*
X187960000Y-80010000D01*
X111760000Y-130810000D02*
X111760000Y-80010000D01*
X187960000Y-130810000D02*
X111760000Y-130810000D01*
D13*
X122917857Y-135079619D02*
X122917857Y-134063619D01*
X123353285Y-135079619D02*
X123353285Y-134547428D01*
X123304904Y-134450666D01*
X123208142Y-134402285D01*
X123063000Y-134402285D01*
X122966238Y-134450666D01*
X122917857Y-134499047D01*
X123691952Y-134402285D02*
X124079000Y-134402285D01*
X123837095Y-134063619D02*
X123837095Y-134934476D01*
X123885476Y-135031238D01*
X123982238Y-135079619D01*
X124079000Y-135079619D01*
X124272523Y-134402285D02*
X124659571Y-134402285D01*
X124417666Y-134063619D02*
X124417666Y-134934476D01*
X124466047Y-135031238D01*
X124562809Y-135079619D01*
X124659571Y-135079619D01*
X124998238Y-134402285D02*
X124998238Y-135418285D01*
X124998238Y-134450666D02*
X125095000Y-134402285D01*
X125288523Y-134402285D01*
X125385285Y-134450666D01*
X125433666Y-134499047D01*
X125482047Y-134595809D01*
X125482047Y-134886095D01*
X125433666Y-134982857D01*
X125385285Y-135031238D01*
X125288523Y-135079619D01*
X125095000Y-135079619D01*
X124998238Y-135031238D01*
X125869095Y-135031238D02*
X125965857Y-135079619D01*
X126159380Y-135079619D01*
X126256142Y-135031238D01*
X126304523Y-134934476D01*
X126304523Y-134886095D01*
X126256142Y-134789333D01*
X126159380Y-134740952D01*
X126014238Y-134740952D01*
X125917476Y-134692571D01*
X125869095Y-134595809D01*
X125869095Y-134547428D01*
X125917476Y-134450666D01*
X126014238Y-134402285D01*
X126159380Y-134402285D01*
X126256142Y-134450666D01*
X126739952Y-134982857D02*
X126788333Y-135031238D01*
X126739952Y-135079619D01*
X126691571Y-135031238D01*
X126739952Y-134982857D01*
X126739952Y-135079619D01*
X126739952Y-134450666D02*
X126788333Y-134499047D01*
X126739952Y-134547428D01*
X126691571Y-134499047D01*
X126739952Y-134450666D01*
X126739952Y-134547428D01*
X127949476Y-134015238D02*
X127078619Y-135321523D01*
X129013857Y-134015238D02*
X128143000Y-135321523D01*
X129787952Y-134402285D02*
X129787952Y-135224761D01*
X129739571Y-135321523D01*
X129691190Y-135369904D01*
X129594428Y-135418285D01*
X129449285Y-135418285D01*
X129352523Y-135369904D01*
X129787952Y-135031238D02*
X129691190Y-135079619D01*
X129497666Y-135079619D01*
X129400904Y-135031238D01*
X129352523Y-134982857D01*
X129304142Y-134886095D01*
X129304142Y-134595809D01*
X129352523Y-134499047D01*
X129400904Y-134450666D01*
X129497666Y-134402285D01*
X129691190Y-134402285D01*
X129787952Y-134450666D01*
X130271761Y-135079619D02*
X130271761Y-134402285D01*
X130271761Y-134063619D02*
X130223380Y-134112000D01*
X130271761Y-134160380D01*
X130320142Y-134112000D01*
X130271761Y-134063619D01*
X130271761Y-134160380D01*
X130610428Y-134402285D02*
X130997476Y-134402285D01*
X130755571Y-134063619D02*
X130755571Y-134934476D01*
X130803952Y-135031238D01*
X130900714Y-135079619D01*
X130997476Y-135079619D01*
X131336142Y-135079619D02*
X131336142Y-134063619D01*
X131771571Y-135079619D02*
X131771571Y-134547428D01*
X131723190Y-134450666D01*
X131626428Y-134402285D01*
X131481285Y-134402285D01*
X131384523Y-134450666D01*
X131336142Y-134499047D01*
X132690809Y-134402285D02*
X132690809Y-135079619D01*
X132255380Y-134402285D02*
X132255380Y-134934476D01*
X132303761Y-135031238D01*
X132400523Y-135079619D01*
X132545666Y-135079619D01*
X132642428Y-135031238D01*
X132690809Y-134982857D01*
X133174619Y-135079619D02*
X133174619Y-134063619D01*
X133174619Y-134450666D02*
X133271380Y-134402285D01*
X133464904Y-134402285D01*
X133561666Y-134450666D01*
X133610047Y-134499047D01*
X133658428Y-134595809D01*
X133658428Y-134886095D01*
X133610047Y-134982857D01*
X133561666Y-135031238D01*
X133464904Y-135079619D01*
X133271380Y-135079619D01*
X133174619Y-135031238D01*
X134093857Y-134982857D02*
X134142238Y-135031238D01*
X134093857Y-135079619D01*
X134045476Y-135031238D01*
X134093857Y-134982857D01*
X134093857Y-135079619D01*
X135013095Y-135031238D02*
X134916333Y-135079619D01*
X134722809Y-135079619D01*
X134626047Y-135031238D01*
X134577666Y-134982857D01*
X134529285Y-134886095D01*
X134529285Y-134595809D01*
X134577666Y-134499047D01*
X134626047Y-134450666D01*
X134722809Y-134402285D01*
X134916333Y-134402285D01*
X135013095Y-134450666D01*
X135593666Y-135079619D02*
X135496904Y-135031238D01*
X135448523Y-134982857D01*
X135400142Y-134886095D01*
X135400142Y-134595809D01*
X135448523Y-134499047D01*
X135496904Y-134450666D01*
X135593666Y-134402285D01*
X135738809Y-134402285D01*
X135835571Y-134450666D01*
X135883952Y-134499047D01*
X135932333Y-134595809D01*
X135932333Y-134886095D01*
X135883952Y-134982857D01*
X135835571Y-135031238D01*
X135738809Y-135079619D01*
X135593666Y-135079619D01*
X136367761Y-135079619D02*
X136367761Y-134402285D01*
X136367761Y-134499047D02*
X136416142Y-134450666D01*
X136512904Y-134402285D01*
X136658047Y-134402285D01*
X136754809Y-134450666D01*
X136803190Y-134547428D01*
X136803190Y-135079619D01*
X136803190Y-134547428D02*
X136851571Y-134450666D01*
X136948333Y-134402285D01*
X137093476Y-134402285D01*
X137190238Y-134450666D01*
X137238619Y-134547428D01*
X137238619Y-135079619D01*
X138448142Y-134015238D02*
X137577285Y-135321523D01*
X138786809Y-134402285D02*
X138786809Y-135273142D01*
X138738428Y-135369904D01*
X138641666Y-135418285D01*
X138593285Y-135418285D01*
X138786809Y-134063619D02*
X138738428Y-134112000D01*
X138786809Y-134160380D01*
X138835190Y-134112000D01*
X138786809Y-134063619D01*
X138786809Y-134160380D01*
X139706047Y-135079619D02*
X139706047Y-134547428D01*
X139657666Y-134450666D01*
X139560904Y-134402285D01*
X139367380Y-134402285D01*
X139270619Y-134450666D01*
X139706047Y-135031238D02*
X139609285Y-135079619D01*
X139367380Y-135079619D01*
X139270619Y-135031238D01*
X139222238Y-134934476D01*
X139222238Y-134837714D01*
X139270619Y-134740952D01*
X139367380Y-134692571D01*
X139609285Y-134692571D01*
X139706047Y-134644190D01*
X140189857Y-134402285D02*
X140189857Y-135079619D01*
X140189857Y-134499047D02*
X140238238Y-134450666D01*
X140335000Y-134402285D01*
X140480142Y-134402285D01*
X140576904Y-134450666D01*
X140625285Y-134547428D01*
X140625285Y-135079619D01*
X141496142Y-135031238D02*
X141399380Y-135079619D01*
X141205857Y-135079619D01*
X141109095Y-135031238D01*
X141060714Y-134934476D01*
X141060714Y-134547428D01*
X141109095Y-134450666D01*
X141205857Y-134402285D01*
X141399380Y-134402285D01*
X141496142Y-134450666D01*
X141544523Y-134547428D01*
X141544523Y-134644190D01*
X141060714Y-134740952D01*
X142125095Y-135079619D02*
X142028333Y-135031238D01*
X141979952Y-134934476D01*
X141979952Y-134063619D01*
X142512142Y-135079619D02*
X142512142Y-134402285D01*
X142512142Y-134063619D02*
X142463761Y-134112000D01*
X142512142Y-134160380D01*
X142560523Y-134112000D01*
X142512142Y-134063619D01*
X142512142Y-134160380D01*
X143431380Y-135079619D02*
X143431380Y-134547428D01*
X143383000Y-134450666D01*
X143286238Y-134402285D01*
X143092714Y-134402285D01*
X142995952Y-134450666D01*
X143431380Y-135031238D02*
X143334619Y-135079619D01*
X143092714Y-135079619D01*
X142995952Y-135031238D01*
X142947571Y-134934476D01*
X142947571Y-134837714D01*
X142995952Y-134740952D01*
X143092714Y-134692571D01*
X143334619Y-134692571D01*
X143431380Y-134644190D01*
X143915190Y-134692571D02*
X144689285Y-134692571D01*
X145173095Y-135079619D02*
X145173095Y-134402285D01*
X145173095Y-134499047D02*
X145221476Y-134450666D01*
X145318238Y-134402285D01*
X145463380Y-134402285D01*
X145560142Y-134450666D01*
X145608523Y-134547428D01*
X145608523Y-135079619D01*
X145608523Y-134547428D02*
X145656904Y-134450666D01*
X145753666Y-134402285D01*
X145898809Y-134402285D01*
X145995571Y-134450666D01*
X146043952Y-134547428D01*
X146043952Y-135079619D01*
X146672904Y-135079619D02*
X146576142Y-135031238D01*
X146527761Y-134982857D01*
X146479380Y-134886095D01*
X146479380Y-134595809D01*
X146527761Y-134499047D01*
X146576142Y-134450666D01*
X146672904Y-134402285D01*
X146818047Y-134402285D01*
X146914809Y-134450666D01*
X146963190Y-134499047D01*
X147011571Y-134595809D01*
X147011571Y-134886095D01*
X146963190Y-134982857D01*
X146914809Y-135031238D01*
X146818047Y-135079619D01*
X146672904Y-135079619D01*
X147882428Y-135079619D02*
X147882428Y-134063619D01*
X147882428Y-135031238D02*
X147785666Y-135079619D01*
X147592142Y-135079619D01*
X147495380Y-135031238D01*
X147447000Y-134982857D01*
X147398619Y-134886095D01*
X147398619Y-134595809D01*
X147447000Y-134499047D01*
X147495380Y-134450666D01*
X147592142Y-134402285D01*
X147785666Y-134402285D01*
X147882428Y-134450666D01*
X148801666Y-134402285D02*
X148801666Y-135079619D01*
X148366238Y-134402285D02*
X148366238Y-134934476D01*
X148414619Y-135031238D01*
X148511380Y-135079619D01*
X148656523Y-135079619D01*
X148753285Y-135031238D01*
X148801666Y-134982857D01*
X149430619Y-135079619D02*
X149333857Y-135031238D01*
X149285476Y-134934476D01*
X149285476Y-134063619D01*
X150253095Y-135079619D02*
X150253095Y-134547428D01*
X150204714Y-134450666D01*
X150107952Y-134402285D01*
X149914428Y-134402285D01*
X149817666Y-134450666D01*
X150253095Y-135031238D02*
X150156333Y-135079619D01*
X149914428Y-135079619D01*
X149817666Y-135031238D01*
X149769285Y-134934476D01*
X149769285Y-134837714D01*
X149817666Y-134740952D01*
X149914428Y-134692571D01*
X150156333Y-134692571D01*
X150253095Y-134644190D01*
X150736904Y-135079619D02*
X150736904Y-134402285D01*
X150736904Y-134595809D02*
X150785285Y-134499047D01*
X150833666Y-134450666D01*
X150930428Y-134402285D01*
X151027190Y-134402285D01*
X151365857Y-134692571D02*
X152139952Y-134692571D01*
X153059190Y-135079619D02*
X153059190Y-134063619D01*
X153059190Y-135031238D02*
X152962428Y-135079619D01*
X152768904Y-135079619D01*
X152672142Y-135031238D01*
X152623761Y-134982857D01*
X152575380Y-134886095D01*
X152575380Y-134595809D01*
X152623761Y-134499047D01*
X152672142Y-134450666D01*
X152768904Y-134402285D01*
X152962428Y-134402285D01*
X153059190Y-134450666D01*
X153930047Y-135031238D02*
X153833285Y-135079619D01*
X153639761Y-135079619D01*
X153543000Y-135031238D01*
X153494619Y-134934476D01*
X153494619Y-134547428D01*
X153543000Y-134450666D01*
X153639761Y-134402285D01*
X153833285Y-134402285D01*
X153930047Y-134450666D01*
X153978428Y-134547428D01*
X153978428Y-134644190D01*
X153494619Y-134740952D01*
X154317095Y-134402285D02*
X154559000Y-135079619D01*
X154800904Y-134402285D01*
X155187952Y-135079619D02*
X155187952Y-134402285D01*
X155187952Y-134063619D02*
X155139571Y-134112000D01*
X155187952Y-134160380D01*
X155236333Y-134112000D01*
X155187952Y-134063619D01*
X155187952Y-134160380D01*
X156107190Y-135031238D02*
X156010428Y-135079619D01*
X155816904Y-135079619D01*
X155720142Y-135031238D01*
X155671761Y-134982857D01*
X155623380Y-134886095D01*
X155623380Y-134595809D01*
X155671761Y-134499047D01*
X155720142Y-134450666D01*
X155816904Y-134402285D01*
X156010428Y-134402285D01*
X156107190Y-134450666D01*
X156929666Y-135031238D02*
X156832904Y-135079619D01*
X156639380Y-135079619D01*
X156542619Y-135031238D01*
X156494238Y-134934476D01*
X156494238Y-134547428D01*
X156542619Y-134450666D01*
X156639380Y-134402285D01*
X156832904Y-134402285D01*
X156929666Y-134450666D01*
X156978047Y-134547428D01*
X156978047Y-134644190D01*
X156494238Y-134740952D01*
X157365095Y-135031238D02*
X157461857Y-135079619D01*
X157655380Y-135079619D01*
X157752142Y-135031238D01*
X157800523Y-134934476D01*
X157800523Y-134886095D01*
X157752142Y-134789333D01*
X157655380Y-134740952D01*
X157510238Y-134740952D01*
X157413476Y-134692571D01*
X157365095Y-134595809D01*
X157365095Y-134547428D01*
X157413476Y-134450666D01*
X157510238Y-134402285D01*
X157655380Y-134402285D01*
X157752142Y-134450666D01*
D14*
X84315904Y-132031619D02*
X84315904Y-132757333D01*
X84267523Y-132902476D01*
X84170761Y-132999238D01*
X84025619Y-133047619D01*
X83928857Y-133047619D01*
X85235142Y-133047619D02*
X85235142Y-132515428D01*
X85186761Y-132418666D01*
X85090000Y-132370285D01*
X84896476Y-132370285D01*
X84799714Y-132418666D01*
X85235142Y-132999238D02*
X85138380Y-133047619D01*
X84896476Y-133047619D01*
X84799714Y-132999238D01*
X84751333Y-132902476D01*
X84751333Y-132805714D01*
X84799714Y-132708952D01*
X84896476Y-132660571D01*
X85138380Y-132660571D01*
X85235142Y-132612190D01*
X85718952Y-132370285D02*
X85718952Y-133047619D01*
X85718952Y-132467047D02*
X85767333Y-132418666D01*
X85864095Y-132370285D01*
X86009238Y-132370285D01*
X86106000Y-132418666D01*
X86154380Y-132515428D01*
X86154380Y-133047619D01*
X87025238Y-132999238D02*
X86928476Y-133047619D01*
X86734952Y-133047619D01*
X86638190Y-132999238D01*
X86589809Y-132902476D01*
X86589809Y-132515428D01*
X86638190Y-132418666D01*
X86734952Y-132370285D01*
X86928476Y-132370285D01*
X87025238Y-132418666D01*
X87073619Y-132515428D01*
X87073619Y-132612190D01*
X86589809Y-132708952D01*
X87654190Y-133047619D02*
X87557428Y-132999238D01*
X87509047Y-132902476D01*
X87509047Y-132031619D01*
X88041238Y-133047619D02*
X88041238Y-132370285D01*
X88041238Y-132031619D02*
X87992857Y-132080000D01*
X88041238Y-132128380D01*
X88089619Y-132080000D01*
X88041238Y-132031619D01*
X88041238Y-132128380D01*
X88960476Y-133047619D02*
X88960476Y-132515428D01*
X88912095Y-132418666D01*
X88815333Y-132370285D01*
X88621809Y-132370285D01*
X88525047Y-132418666D01*
X88960476Y-132999238D02*
X88863714Y-133047619D01*
X88621809Y-133047619D01*
X88525047Y-132999238D01*
X88476666Y-132902476D01*
X88476666Y-132805714D01*
X88525047Y-132708952D01*
X88621809Y-132660571D01*
X88863714Y-132660571D01*
X88960476Y-132612190D01*
X90218380Y-133047619D02*
X90218380Y-132031619D01*
X90557047Y-132757333D01*
X90895714Y-132031619D01*
X90895714Y-133047619D01*
X91524666Y-133047619D02*
X91427904Y-132999238D01*
X91379523Y-132950857D01*
X91331142Y-132854095D01*
X91331142Y-132563809D01*
X91379523Y-132467047D01*
X91427904Y-132418666D01*
X91524666Y-132370285D01*
X91669809Y-132370285D01*
X91766571Y-132418666D01*
X91814952Y-132467047D01*
X91863333Y-132563809D01*
X91863333Y-132854095D01*
X91814952Y-132950857D01*
X91766571Y-132999238D01*
X91669809Y-133047619D01*
X91524666Y-133047619D01*
X92734190Y-133047619D02*
X92734190Y-132031619D01*
X92734190Y-132999238D02*
X92637428Y-133047619D01*
X92443904Y-133047619D01*
X92347142Y-132999238D01*
X92298761Y-132950857D01*
X92250380Y-132854095D01*
X92250380Y-132563809D01*
X92298761Y-132467047D01*
X92347142Y-132418666D01*
X92443904Y-132370285D01*
X92637428Y-132370285D01*
X92734190Y-132418666D01*
X93653428Y-132370285D02*
X93653428Y-133047619D01*
X93218000Y-132370285D02*
X93218000Y-132902476D01*
X93266380Y-132999238D01*
X93363142Y-133047619D01*
X93508285Y-133047619D01*
X93605047Y-132999238D01*
X93653428Y-132950857D01*
X94282380Y-133047619D02*
X94185619Y-132999238D01*
X94137238Y-132902476D01*
X94137238Y-132031619D01*
X95104857Y-133047619D02*
X95104857Y-132515428D01*
X95056476Y-132418666D01*
X94959714Y-132370285D01*
X94766190Y-132370285D01*
X94669428Y-132418666D01*
X95104857Y-132999238D02*
X95008095Y-133047619D01*
X94766190Y-133047619D01*
X94669428Y-132999238D01*
X94621047Y-132902476D01*
X94621047Y-132805714D01*
X94669428Y-132708952D01*
X94766190Y-132660571D01*
X95008095Y-132660571D01*
X95104857Y-132612190D01*
X95588666Y-133047619D02*
X95588666Y-132370285D01*
X95588666Y-132563809D02*
X95637047Y-132467047D01*
X95685428Y-132418666D01*
X95782190Y-132370285D01*
X95878952Y-132370285D01*
X96991714Y-133047619D02*
X96991714Y-132031619D01*
X97233619Y-132031619D01*
X97378761Y-132080000D01*
X97475523Y-132176761D01*
X97523904Y-132273523D01*
X97572285Y-132467047D01*
X97572285Y-132612190D01*
X97523904Y-132805714D01*
X97475523Y-132902476D01*
X97378761Y-132999238D01*
X97233619Y-133047619D01*
X96991714Y-133047619D01*
X98394761Y-132999238D02*
X98298000Y-133047619D01*
X98104476Y-133047619D01*
X98007714Y-132999238D01*
X97959333Y-132902476D01*
X97959333Y-132515428D01*
X98007714Y-132418666D01*
X98104476Y-132370285D01*
X98298000Y-132370285D01*
X98394761Y-132418666D01*
X98443142Y-132515428D01*
X98443142Y-132612190D01*
X97959333Y-132708952D01*
X98781809Y-132370285D02*
X99023714Y-133047619D01*
X99265619Y-132370285D01*
X99652666Y-133047619D02*
X99652666Y-132370285D01*
X99652666Y-132031619D02*
X99604285Y-132080000D01*
X99652666Y-132128380D01*
X99701047Y-132080000D01*
X99652666Y-132031619D01*
X99652666Y-132128380D01*
X100571904Y-132999238D02*
X100475142Y-133047619D01*
X100281619Y-133047619D01*
X100184857Y-132999238D01*
X100136476Y-132950857D01*
X100088095Y-132854095D01*
X100088095Y-132563809D01*
X100136476Y-132467047D01*
X100184857Y-132418666D01*
X100281619Y-132370285D01*
X100475142Y-132370285D01*
X100571904Y-132418666D01*
X101394380Y-132999238D02*
X101297619Y-133047619D01*
X101104095Y-133047619D01*
X101007333Y-132999238D01*
X100958952Y-132902476D01*
X100958952Y-132515428D01*
X101007333Y-132418666D01*
X101104095Y-132370285D01*
X101297619Y-132370285D01*
X101394380Y-132418666D01*
X101442761Y-132515428D01*
X101442761Y-132612190D01*
X100958952Y-132708952D01*
X85380285Y-134825619D02*
X85380285Y-133809619D01*
X85380285Y-134196666D02*
X85477047Y-134148285D01*
X85670571Y-134148285D01*
X85767333Y-134196666D01*
X85815714Y-134245047D01*
X85864095Y-134341809D01*
X85864095Y-134632095D01*
X85815714Y-134728857D01*
X85767333Y-134777238D01*
X85670571Y-134825619D01*
X85477047Y-134825619D01*
X85380285Y-134777238D01*
X86734952Y-134825619D02*
X86734952Y-134293428D01*
X86686571Y-134196666D01*
X86589809Y-134148285D01*
X86396285Y-134148285D01*
X86299523Y-134196666D01*
X86734952Y-134777238D02*
X86638190Y-134825619D01*
X86396285Y-134825619D01*
X86299523Y-134777238D01*
X86251142Y-134680476D01*
X86251142Y-134583714D01*
X86299523Y-134486952D01*
X86396285Y-134438571D01*
X86638190Y-134438571D01*
X86734952Y-134390190D01*
X87654190Y-134777238D02*
X87557428Y-134825619D01*
X87363904Y-134825619D01*
X87267142Y-134777238D01*
X87218761Y-134728857D01*
X87170380Y-134632095D01*
X87170380Y-134341809D01*
X87218761Y-134245047D01*
X87267142Y-134196666D01*
X87363904Y-134148285D01*
X87557428Y-134148285D01*
X87654190Y-134196666D01*
X88089619Y-134825619D02*
X88089619Y-133809619D01*
X88186380Y-134438571D02*
X88476666Y-134825619D01*
X88476666Y-134148285D02*
X88089619Y-134535333D01*
X89057238Y-134825619D02*
X88960476Y-134777238D01*
X88912095Y-134680476D01*
X88912095Y-133809619D01*
X89444285Y-134825619D02*
X89444285Y-134148285D01*
X89444285Y-133809619D02*
X89395904Y-133858000D01*
X89444285Y-133906380D01*
X89492666Y-133858000D01*
X89444285Y-133809619D01*
X89444285Y-133906380D01*
X90363523Y-134148285D02*
X90363523Y-134970761D01*
X90315142Y-135067523D01*
X90266761Y-135115904D01*
X90170000Y-135164285D01*
X90024857Y-135164285D01*
X89928095Y-135115904D01*
X90363523Y-134777238D02*
X90266761Y-134825619D01*
X90073238Y-134825619D01*
X89976476Y-134777238D01*
X89928095Y-134728857D01*
X89879714Y-134632095D01*
X89879714Y-134341809D01*
X89928095Y-134245047D01*
X89976476Y-134196666D01*
X90073238Y-134148285D01*
X90266761Y-134148285D01*
X90363523Y-134196666D01*
X90847333Y-134825619D02*
X90847333Y-133809619D01*
X91282761Y-134825619D02*
X91282761Y-134293428D01*
X91234380Y-134196666D01*
X91137619Y-134148285D01*
X90992476Y-134148285D01*
X90895714Y-134196666D01*
X90847333Y-134245047D01*
X91621428Y-134148285D02*
X92008476Y-134148285D01*
X91766571Y-133809619D02*
X91766571Y-134680476D01*
X91814952Y-134777238D01*
X91911714Y-134825619D01*
X92008476Y-134825619D01*
X92105238Y-134922380D02*
X92879333Y-134922380D01*
X93556666Y-134777238D02*
X93459904Y-134825619D01*
X93266380Y-134825619D01*
X93169619Y-134777238D01*
X93121238Y-134728857D01*
X93072857Y-134632095D01*
X93072857Y-134341809D01*
X93121238Y-134245047D01*
X93169619Y-134196666D01*
X93266380Y-134148285D01*
X93459904Y-134148285D01*
X93556666Y-134196666D01*
X94137238Y-134825619D02*
X94040476Y-134777238D01*
X93992095Y-134728857D01*
X93943714Y-134632095D01*
X93943714Y-134341809D01*
X93992095Y-134245047D01*
X94040476Y-134196666D01*
X94137238Y-134148285D01*
X94282380Y-134148285D01*
X94379142Y-134196666D01*
X94427523Y-134245047D01*
X94475904Y-134341809D01*
X94475904Y-134632095D01*
X94427523Y-134728857D01*
X94379142Y-134777238D01*
X94282380Y-134825619D01*
X94137238Y-134825619D01*
X94911333Y-134148285D02*
X94911333Y-134825619D01*
X94911333Y-134245047D02*
X94959714Y-134196666D01*
X95056476Y-134148285D01*
X95201619Y-134148285D01*
X95298380Y-134196666D01*
X95346761Y-134293428D01*
X95346761Y-134825619D01*
X95685428Y-134148285D02*
X96072476Y-134148285D01*
X95830571Y-133809619D02*
X95830571Y-134680476D01*
X95878952Y-134777238D01*
X95975714Y-134825619D01*
X96072476Y-134825619D01*
X96411142Y-134825619D02*
X96411142Y-134148285D01*
X96411142Y-134341809D02*
X96459523Y-134245047D01*
X96507904Y-134196666D01*
X96604666Y-134148285D01*
X96701428Y-134148285D01*
X97185238Y-134825619D02*
X97088476Y-134777238D01*
X97040095Y-134728857D01*
X96991714Y-134632095D01*
X96991714Y-134341809D01*
X97040095Y-134245047D01*
X97088476Y-134196666D01*
X97185238Y-134148285D01*
X97330380Y-134148285D01*
X97427142Y-134196666D01*
X97475523Y-134245047D01*
X97523904Y-134341809D01*
X97523904Y-134632095D01*
X97475523Y-134728857D01*
X97427142Y-134777238D01*
X97330380Y-134825619D01*
X97185238Y-134825619D01*
X98104476Y-134825619D02*
X98007714Y-134777238D01*
X97959333Y-134680476D01*
X97959333Y-133809619D01*
X98636666Y-134825619D02*
X98539904Y-134777238D01*
X98491523Y-134680476D01*
X98491523Y-133809619D01*
X99410761Y-134777238D02*
X99314000Y-134825619D01*
X99120476Y-134825619D01*
X99023714Y-134777238D01*
X98975333Y-134680476D01*
X98975333Y-134293428D01*
X99023714Y-134196666D01*
X99120476Y-134148285D01*
X99314000Y-134148285D01*
X99410761Y-134196666D01*
X99459142Y-134293428D01*
X99459142Y-134390190D01*
X98975333Y-134486952D01*
X99894571Y-134825619D02*
X99894571Y-134148285D01*
X99894571Y-134341809D02*
X99942952Y-134245047D01*
X99991333Y-134196666D01*
X100088095Y-134148285D01*
X100184857Y-134148285D01*
X85670571Y-135926285D02*
X85670571Y-136942285D01*
X85670571Y-135974666D02*
X85767333Y-135926285D01*
X85960857Y-135926285D01*
X86057619Y-135974666D01*
X86106000Y-136023047D01*
X86154380Y-136119809D01*
X86154380Y-136410095D01*
X86106000Y-136506857D01*
X86057619Y-136555238D01*
X85960857Y-136603619D01*
X85767333Y-136603619D01*
X85670571Y-136555238D01*
X87025238Y-136603619D02*
X87025238Y-136071428D01*
X86976857Y-135974666D01*
X86880095Y-135926285D01*
X86686571Y-135926285D01*
X86589809Y-135974666D01*
X87025238Y-136555238D02*
X86928476Y-136603619D01*
X86686571Y-136603619D01*
X86589809Y-136555238D01*
X86541428Y-136458476D01*
X86541428Y-136361714D01*
X86589809Y-136264952D01*
X86686571Y-136216571D01*
X86928476Y-136216571D01*
X87025238Y-136168190D01*
X87509047Y-136603619D02*
X87509047Y-135926285D01*
X87509047Y-136119809D02*
X87557428Y-136023047D01*
X87605809Y-135974666D01*
X87702571Y-135926285D01*
X87799333Y-135926285D01*
X87992857Y-135926285D02*
X88379904Y-135926285D01*
X88138000Y-135587619D02*
X88138000Y-136458476D01*
X88186380Y-136555238D01*
X88283142Y-136603619D01*
X88379904Y-136603619D01*
X88476666Y-136700380D02*
X89250761Y-136700380D01*
X89492666Y-135926285D02*
X89492666Y-136603619D01*
X89492666Y-136023047D02*
X89541047Y-135974666D01*
X89637809Y-135926285D01*
X89782952Y-135926285D01*
X89879714Y-135974666D01*
X89928095Y-136071428D01*
X89928095Y-136603619D01*
X90847333Y-135926285D02*
X90847333Y-136603619D01*
X90411904Y-135926285D02*
X90411904Y-136458476D01*
X90460285Y-136555238D01*
X90557047Y-136603619D01*
X90702190Y-136603619D01*
X90798952Y-136555238D01*
X90847333Y-136506857D01*
X91331142Y-136603619D02*
X91331142Y-135926285D01*
X91331142Y-136023047D02*
X91379523Y-135974666D01*
X91476285Y-135926285D01*
X91621428Y-135926285D01*
X91718190Y-135974666D01*
X91766571Y-136071428D01*
X91766571Y-136603619D01*
X91766571Y-136071428D02*
X91814952Y-135974666D01*
X91911714Y-135926285D01*
X92056857Y-135926285D01*
X92153619Y-135974666D01*
X92202000Y-136071428D01*
X92202000Y-136603619D01*
X92685809Y-136603619D02*
X92685809Y-135587619D01*
X92685809Y-135974666D02*
X92782571Y-135926285D01*
X92976095Y-135926285D01*
X93072857Y-135974666D01*
X93121238Y-136023047D01*
X93169619Y-136119809D01*
X93169619Y-136410095D01*
X93121238Y-136506857D01*
X93072857Y-136555238D01*
X92976095Y-136603619D01*
X92782571Y-136603619D01*
X92685809Y-136555238D01*
X93992095Y-136555238D02*
X93895333Y-136603619D01*
X93701809Y-136603619D01*
X93605047Y-136555238D01*
X93556666Y-136458476D01*
X93556666Y-136071428D01*
X93605047Y-135974666D01*
X93701809Y-135926285D01*
X93895333Y-135926285D01*
X93992095Y-135974666D01*
X94040476Y-136071428D01*
X94040476Y-136168190D01*
X93556666Y-136264952D01*
X94475904Y-136603619D02*
X94475904Y-135926285D01*
X94475904Y-136119809D02*
X94524285Y-136023047D01*
X94572666Y-135974666D01*
X94669428Y-135926285D01*
X94766190Y-135926285D01*
X95104857Y-136506857D02*
X95153238Y-136555238D01*
X95104857Y-136603619D01*
X95056476Y-136555238D01*
X95104857Y-136506857D01*
X95104857Y-136603619D01*
X95104857Y-135974666D02*
X95153238Y-136023047D01*
X95104857Y-136071428D01*
X95056476Y-136023047D01*
X95104857Y-135974666D01*
X95104857Y-136071428D01*
X96894952Y-136603619D02*
X96314380Y-136603619D01*
X96604666Y-136603619D02*
X96604666Y-135587619D01*
X96507904Y-135732761D01*
X96411142Y-135829523D01*
X96314380Y-135877904D01*
X97282000Y-135684380D02*
X97330380Y-135636000D01*
X97427142Y-135587619D01*
X97669047Y-135587619D01*
X97765809Y-135636000D01*
X97814190Y-135684380D01*
X97862571Y-135781142D01*
X97862571Y-135877904D01*
X97814190Y-136023047D01*
X97233619Y-136603619D01*
X97862571Y-136603619D01*
X98201238Y-135587619D02*
X98878571Y-135587619D01*
X98443142Y-136603619D01*
X99217238Y-135684380D02*
X99265619Y-135636000D01*
X99362380Y-135587619D01*
X99604285Y-135587619D01*
X99701047Y-135636000D01*
X99749428Y-135684380D01*
X99797809Y-135781142D01*
X99797809Y-135877904D01*
X99749428Y-136023047D01*
X99168857Y-136603619D01*
X99797809Y-136603619D01*
X84823904Y-137365619D02*
X84920666Y-137365619D01*
X85017428Y-137414000D01*
X85065809Y-137462380D01*
X85114190Y-137559142D01*
X85162571Y-137752666D01*
X85162571Y-137994571D01*
X85114190Y-138188095D01*
X85065809Y-138284857D01*
X85017428Y-138333238D01*
X84920666Y-138381619D01*
X84823904Y-138381619D01*
X84727142Y-138333238D01*
X84678761Y-138284857D01*
X84630380Y-138188095D01*
X84582000Y-137994571D01*
X84582000Y-137752666D01*
X84630380Y-137559142D01*
X84678761Y-137462380D01*
X84727142Y-137414000D01*
X84823904Y-137365619D01*
X86033428Y-137365619D02*
X85839904Y-137365619D01*
X85743142Y-137414000D01*
X85694761Y-137462380D01*
X85598000Y-137607523D01*
X85549619Y-137801047D01*
X85549619Y-138188095D01*
X85598000Y-138284857D01*
X85646380Y-138333238D01*
X85743142Y-138381619D01*
X85936666Y-138381619D01*
X86033428Y-138333238D01*
X86081809Y-138284857D01*
X86130190Y-138188095D01*
X86130190Y-137946190D01*
X86081809Y-137849428D01*
X86033428Y-137801047D01*
X85936666Y-137752666D01*
X85743142Y-137752666D01*
X85646380Y-137801047D01*
X85598000Y-137849428D01*
X85549619Y-137946190D01*
X87291333Y-137317238D02*
X86420476Y-138623523D01*
X87581619Y-137462380D02*
X87630000Y-137414000D01*
X87726761Y-137365619D01*
X87968666Y-137365619D01*
X88065428Y-137414000D01*
X88113809Y-137462380D01*
X88162190Y-137559142D01*
X88162190Y-137655904D01*
X88113809Y-137801047D01*
X87533238Y-138381619D01*
X88162190Y-138381619D01*
X88791142Y-137365619D02*
X88887904Y-137365619D01*
X88984666Y-137414000D01*
X89033047Y-137462380D01*
X89081428Y-137559142D01*
X89129809Y-137752666D01*
X89129809Y-137994571D01*
X89081428Y-138188095D01*
X89033047Y-138284857D01*
X88984666Y-138333238D01*
X88887904Y-138381619D01*
X88791142Y-138381619D01*
X88694380Y-138333238D01*
X88646000Y-138284857D01*
X88597619Y-138188095D01*
X88549238Y-137994571D01*
X88549238Y-137752666D01*
X88597619Y-137559142D01*
X88646000Y-137462380D01*
X88694380Y-137414000D01*
X88791142Y-137365619D01*
X90097428Y-138381619D02*
X89516857Y-138381619D01*
X89807142Y-138381619D02*
X89807142Y-137365619D01*
X89710380Y-137510761D01*
X89613619Y-137607523D01*
X89516857Y-137655904D01*
X90581238Y-138381619D02*
X90774761Y-138381619D01*
X90871523Y-138333238D01*
X90919904Y-138284857D01*
X91016666Y-138139714D01*
X91065047Y-137946190D01*
X91065047Y-137559142D01*
X91016666Y-137462380D01*
X90968285Y-137414000D01*
X90871523Y-137365619D01*
X90678000Y-137365619D01*
X90581238Y-137414000D01*
X90532857Y-137462380D01*
X90484476Y-137559142D01*
X90484476Y-137801047D01*
X90532857Y-137897809D01*
X90581238Y-137946190D01*
X90678000Y-137994571D01*
X90871523Y-137994571D01*
X90968285Y-137946190D01*
X91016666Y-137897809D01*
X91065047Y-137801047D01*
X92177809Y-137704285D02*
X92419714Y-138381619D01*
X92661619Y-137704285D01*
X93435714Y-138333238D02*
X93338952Y-138381619D01*
X93145428Y-138381619D01*
X93048666Y-138333238D01*
X93000285Y-138236476D01*
X93000285Y-137849428D01*
X93048666Y-137752666D01*
X93145428Y-137704285D01*
X93338952Y-137704285D01*
X93435714Y-137752666D01*
X93484095Y-137849428D01*
X93484095Y-137946190D01*
X93000285Y-138042952D01*
X93919523Y-138381619D02*
X93919523Y-137704285D01*
X93919523Y-137897809D02*
X93967904Y-137801047D01*
X94016285Y-137752666D01*
X94113047Y-137704285D01*
X94209809Y-137704285D01*
X95854761Y-138381619D02*
X95274190Y-138381619D01*
X95564476Y-138381619D02*
X95564476Y-137365619D01*
X95467714Y-137510761D01*
X95370952Y-137607523D01*
X95274190Y-137655904D01*
X96290190Y-138284857D02*
X96338571Y-138333238D01*
X96290190Y-138381619D01*
X96241809Y-138333238D01*
X96290190Y-138284857D01*
X96290190Y-138381619D01*
X96967523Y-137365619D02*
X97064285Y-137365619D01*
X97161047Y-137414000D01*
X97209428Y-137462380D01*
X97257809Y-137559142D01*
X97306190Y-137752666D01*
X97306190Y-137994571D01*
X97257809Y-138188095D01*
X97209428Y-138284857D01*
X97161047Y-138333238D01*
X97064285Y-138381619D01*
X96967523Y-138381619D01*
X96870761Y-138333238D01*
X96822380Y-138284857D01*
X96774000Y-138188095D01*
X96725619Y-137994571D01*
X96725619Y-137752666D01*
X96774000Y-137559142D01*
X96822380Y-137462380D01*
X96870761Y-137414000D01*
X96967523Y-137365619D01*
X98951142Y-137365619D02*
X98757619Y-137365619D01*
X98660857Y-137414000D01*
X98612476Y-137462380D01*
X98515714Y-137607523D01*
X98467333Y-137801047D01*
X98467333Y-138188095D01*
X98515714Y-138284857D01*
X98564095Y-138333238D01*
X98660857Y-138381619D01*
X98854380Y-138381619D01*
X98951142Y-138333238D01*
X98999523Y-138284857D01*
X99047904Y-138188095D01*
X99047904Y-137946190D01*
X98999523Y-137849428D01*
X98951142Y-137801047D01*
X98854380Y-137752666D01*
X98660857Y-137752666D01*
X98564095Y-137801047D01*
X98515714Y-137849428D01*
X98467333Y-137946190D01*
X99386571Y-138381619D02*
X99918761Y-137704285D01*
X99386571Y-137704285D02*
X99918761Y-138381619D01*
X100209047Y-137365619D02*
X100838000Y-137365619D01*
X100499333Y-137752666D01*
X100644476Y-137752666D01*
X100741238Y-137801047D01*
X100789619Y-137849428D01*
X100838000Y-137946190D01*
X100838000Y-138188095D01*
X100789619Y-138284857D01*
X100741238Y-138333238D01*
X100644476Y-138381619D01*
X100354190Y-138381619D01*
X100257428Y-138333238D01*
X100209047Y-138284857D01*
D11*
X62230000Y-118745000D02*
G75*
G03X62230000Y-118745000I-1270000J0D01*
G01*
X58420000Y-120015000D02*
X63500000Y-120015000D01*
X63500000Y-120015000D02*
X63500000Y-117475000D01*
X63500000Y-117475000D02*
X58420000Y-117475000D01*
X58420000Y-117475000D02*
X58420000Y-120015000D01*
X57150000Y-74930000D02*
X57150000Y-73660000D01*
X57150000Y-73660000D02*
X64770000Y-73660000D01*
X64770000Y-73660000D02*
X64770000Y-74930000D01*
X52070000Y-135890000D02*
X69850000Y-135890000D01*
X69850000Y-74930000D02*
X52070000Y-74930000D01*
X52070000Y-74930000D02*
X52070000Y-135890000D01*
X69850000Y-74930000D02*
X69850000Y-135890000D01*
X66040000Y-123190000D02*
X66040000Y-135890000D01*
X55880000Y-123190000D02*
X66040000Y-123190000D01*
X55880000Y-135890000D02*
X55880000Y-123190000D01*
D15*
X52070000Y-105410000D02*
X69850000Y-105410000D01*
X60960000Y-116840000D02*
X60960000Y-77470000D01*
D11*
X92964000Y-81407000D02*
X100076000Y-81407000D01*
X92964000Y-74803000D02*
X92964000Y-81407000D01*
X100076000Y-74803000D02*
X92964000Y-74803000D01*
X100076000Y-81407000D02*
X100076000Y-74803000D01*
X99060000Y-80137000D02*
X93980000Y-80137000D01*
X99060000Y-76073000D02*
X93980000Y-76073000D01*
X96520000Y-80137000D02*
X96520000Y-78867000D01*
X96520000Y-76073000D02*
X96520000Y-77343000D01*
X96520000Y-77343000D02*
X97282000Y-78359000D01*
X80264000Y-81407000D02*
X87376000Y-81407000D01*
X80264000Y-74803000D02*
X80264000Y-81407000D01*
X87376000Y-74803000D02*
X80264000Y-74803000D01*
X87376000Y-81407000D02*
X87376000Y-74803000D01*
X86360000Y-80137000D02*
X81280000Y-80137000D01*
X86360000Y-76073000D02*
X81280000Y-76073000D01*
X83820000Y-80137000D02*
X83820000Y-78867000D01*
X83820000Y-76073000D02*
X83820000Y-77343000D01*
X83820000Y-77343000D02*
X84582000Y-78359000D01*
X111760000Y-84455000D02*
X111760000Y-73025000D01*
X103505000Y-84455000D02*
X111760000Y-84455000D01*
X103505000Y-73025000D02*
X103505000Y-84455000D01*
X111760000Y-73025000D02*
X103505000Y-73025000D01*
D10*
X139954000Y-78232000D02*
X140208000Y-78232000D01*
X139954000Y-77978000D02*
X139954000Y-78232000D01*
X140208000Y-77978000D02*
X139954000Y-77978000D01*
X140208000Y-78232000D02*
X140208000Y-77978000D01*
X140716000Y-78740000D02*
X140716000Y-77470000D01*
X140335000Y-78105000D02*
X140716000Y-77470000D01*
X140716000Y-78740000D02*
X140335000Y-78105000D01*
X103378000Y-127889000D02*
X103378000Y-128143000D01*
X103632000Y-127889000D02*
X103378000Y-127889000D01*
X103632000Y-128143000D02*
X103632000Y-127889000D01*
X103378000Y-128143000D02*
X103632000Y-128143000D01*
X102870000Y-128651000D02*
X104140000Y-128651000D01*
X103505000Y-128270000D02*
X104140000Y-128651000D01*
X102870000Y-128651000D02*
X103505000Y-128270000D01*
X100838000Y-127889000D02*
X100838000Y-128143000D01*
X101092000Y-127889000D02*
X100838000Y-127889000D01*
X101092000Y-128143000D02*
X101092000Y-127889000D01*
X100838000Y-128143000D02*
X101092000Y-128143000D01*
X100330000Y-128651000D02*
X101600000Y-128651000D01*
X100965000Y-128270000D02*
X101600000Y-128651000D01*
X100330000Y-128651000D02*
X100965000Y-128270000D01*
X105918000Y-127889000D02*
X105918000Y-128143000D01*
X106172000Y-127889000D02*
X105918000Y-127889000D01*
X106172000Y-128143000D02*
X106172000Y-127889000D01*
X105918000Y-128143000D02*
X106172000Y-128143000D01*
X105410000Y-128651000D02*
X106680000Y-128651000D01*
X106045000Y-128270000D02*
X106680000Y-128651000D01*
X105410000Y-128651000D02*
X106045000Y-128270000D01*
X98298000Y-127889000D02*
X98298000Y-128143000D01*
X98552000Y-127889000D02*
X98298000Y-127889000D01*
X98552000Y-128143000D02*
X98552000Y-127889000D01*
X98298000Y-128143000D02*
X98552000Y-128143000D01*
X97790000Y-128651000D02*
X99060000Y-128651000D01*
X98425000Y-128270000D02*
X99060000Y-128651000D01*
X97790000Y-128651000D02*
X98425000Y-128270000D01*
X189103000Y-95504000D02*
X189103000Y-95758000D01*
X189357000Y-95504000D02*
X189103000Y-95504000D01*
X189357000Y-95758000D02*
X189357000Y-95504000D01*
X189103000Y-95758000D02*
X189357000Y-95758000D01*
X188595000Y-96266000D02*
X189865000Y-96266000D01*
X189230000Y-95885000D02*
X189865000Y-96266000D01*
X188595000Y-96266000D02*
X189230000Y-95885000D01*
X120904000Y-78232000D02*
X121158000Y-78232000D01*
X120904000Y-77978000D02*
X120904000Y-78232000D01*
X121158000Y-77978000D02*
X120904000Y-77978000D01*
X121158000Y-78232000D02*
X121158000Y-77978000D01*
X121666000Y-78740000D02*
X121666000Y-77470000D01*
X121285000Y-78105000D02*
X121666000Y-77470000D01*
X121666000Y-78740000D02*
X121285000Y-78105000D01*
X178054000Y-132842000D02*
X178308000Y-132842000D01*
X178054000Y-132588000D02*
X178054000Y-132842000D01*
X178308000Y-132588000D02*
X178054000Y-132588000D01*
X178308000Y-132842000D02*
X178308000Y-132588000D01*
X178816000Y-133350000D02*
X178816000Y-132080000D01*
X178435000Y-132715000D02*
X178816000Y-132080000D01*
X178816000Y-133350000D02*
X178435000Y-132715000D01*
X120904000Y-132842000D02*
X121158000Y-132842000D01*
X120904000Y-132588000D02*
X120904000Y-132842000D01*
X121158000Y-132588000D02*
X120904000Y-132588000D01*
X121158000Y-132842000D02*
X121158000Y-132588000D01*
X121666000Y-133350000D02*
X121666000Y-132080000D01*
X121285000Y-132715000D02*
X121666000Y-132080000D01*
X121666000Y-133350000D02*
X121285000Y-132715000D01*
X86868000Y-127889000D02*
X86868000Y-128143000D01*
X87122000Y-127889000D02*
X86868000Y-127889000D01*
X87122000Y-128143000D02*
X87122000Y-127889000D01*
X86868000Y-128143000D02*
X87122000Y-128143000D01*
X86360000Y-128651000D02*
X87630000Y-128651000D01*
X86995000Y-128270000D02*
X87630000Y-128651000D01*
X86360000Y-128651000D02*
X86995000Y-128270000D01*
X79248000Y-127889000D02*
X79248000Y-128143000D01*
X79502000Y-127889000D02*
X79248000Y-127889000D01*
X79502000Y-128143000D02*
X79502000Y-127889000D01*
X79248000Y-128143000D02*
X79502000Y-128143000D01*
X78740000Y-128651000D02*
X80010000Y-128651000D01*
X79375000Y-128270000D02*
X80010000Y-128651000D01*
X78740000Y-128651000D02*
X79375000Y-128270000D01*
X159004000Y-132842000D02*
X159258000Y-132842000D01*
X159004000Y-132588000D02*
X159004000Y-132842000D01*
X159258000Y-132588000D02*
X159004000Y-132588000D01*
X159258000Y-132842000D02*
X159258000Y-132588000D01*
X159766000Y-133350000D02*
X159766000Y-132080000D01*
X159385000Y-132715000D02*
X159766000Y-132080000D01*
X159766000Y-133350000D02*
X159385000Y-132715000D01*
X84328000Y-127889000D02*
X84328000Y-128143000D01*
X84582000Y-127889000D02*
X84328000Y-127889000D01*
X84582000Y-128143000D02*
X84582000Y-127889000D01*
X84328000Y-128143000D02*
X84582000Y-128143000D01*
X83820000Y-128651000D02*
X85090000Y-128651000D01*
X84455000Y-128270000D02*
X85090000Y-128651000D01*
X83820000Y-128651000D02*
X84455000Y-128270000D01*
X81788000Y-127889000D02*
X81788000Y-128143000D01*
X82042000Y-127889000D02*
X81788000Y-127889000D01*
X82042000Y-128143000D02*
X82042000Y-127889000D01*
X81788000Y-128143000D02*
X82042000Y-128143000D01*
X81280000Y-128651000D02*
X82550000Y-128651000D01*
X81915000Y-128270000D02*
X82550000Y-128651000D01*
X81280000Y-128651000D02*
X81915000Y-128270000D01*
X159004000Y-78232000D02*
X159258000Y-78232000D01*
X159004000Y-77978000D02*
X159004000Y-78232000D01*
X159258000Y-77978000D02*
X159004000Y-77978000D01*
X159258000Y-78232000D02*
X159258000Y-77978000D01*
X159766000Y-78740000D02*
X159766000Y-77470000D01*
X159385000Y-78105000D02*
X159766000Y-77470000D01*
X159766000Y-78740000D02*
X159385000Y-78105000D01*
X139954000Y-132842000D02*
X140208000Y-132842000D01*
X139954000Y-132588000D02*
X139954000Y-132842000D01*
X140208000Y-132588000D02*
X139954000Y-132588000D01*
X140208000Y-132842000D02*
X140208000Y-132588000D01*
X140716000Y-133350000D02*
X140716000Y-132080000D01*
X140335000Y-132715000D02*
X140716000Y-132080000D01*
X140716000Y-133350000D02*
X140335000Y-132715000D01*
X178054000Y-78232000D02*
X178308000Y-78232000D01*
X178054000Y-77978000D02*
X178054000Y-78232000D01*
X178308000Y-77978000D02*
X178054000Y-77978000D01*
X178308000Y-78232000D02*
X178308000Y-77978000D01*
X178816000Y-78740000D02*
X178816000Y-77470000D01*
X178435000Y-78105000D02*
X178816000Y-77470000D01*
X178816000Y-78740000D02*
X178435000Y-78105000D01*
D11*
X76935000Y-120970000D02*
X89435000Y-120970000D01*
X89435000Y-120970000D02*
X89435000Y-89850000D01*
X89435000Y-89850000D02*
X76935000Y-89850000D01*
X76935000Y-89850000D02*
X76935000Y-120970000D01*
X95985000Y-120970000D02*
X108485000Y-120970000D01*
X108485000Y-120970000D02*
X108485000Y-89850000D01*
X108485000Y-89850000D02*
X95985000Y-89850000D01*
X95985000Y-89850000D02*
X95985000Y-120970000D01*
D16*
X126385000Y-89535000D02*
G75*
G03X126385000Y-89535000I-5100000J0D01*
G01*
X129285000Y-89535000D02*
G75*
G03X129285000Y-89535000I-8000000J0D01*
G01*
X122285000Y-85635000D02*
G75*
G02X120285000Y-85635000I-1000000J0D01*
G01*
X122287533Y-85635652D02*
G75*
G02X120285001Y-85635001I-1002533J-3899348D01*
G01*
X126385000Y-121285000D02*
G75*
G03X126385000Y-121285000I-5100000J0D01*
G01*
X129285000Y-121285000D02*
G75*
G03X129285000Y-121285000I-8000000J0D01*
G01*
X122285000Y-117385000D02*
G75*
G02X120285000Y-117385000I-1000000J0D01*
G01*
X122287533Y-117385652D02*
G75*
G02X120285001Y-117385001I-1002533J-3899348D01*
G01*
X141337533Y-85635652D02*
G75*
G02X139335001Y-85635001I-1002533J-3899348D01*
G01*
X141335000Y-85635000D02*
G75*
G02X139335000Y-85635000I-1000000J0D01*
G01*
X148335000Y-89535000D02*
G75*
G03X148335000Y-89535000I-8000000J0D01*
G01*
X145435000Y-89535000D02*
G75*
G03X145435000Y-89535000I-5100000J0D01*
G01*
X141337533Y-117385652D02*
G75*
G02X139335001Y-117385001I-1002533J-3899348D01*
G01*
X141335000Y-117385000D02*
G75*
G02X139335000Y-117385000I-1000000J0D01*
G01*
X148335000Y-121285000D02*
G75*
G03X148335000Y-121285000I-8000000J0D01*
G01*
X145435000Y-121285000D02*
G75*
G03X145435000Y-121285000I-5100000J0D01*
G01*
X160387533Y-85635652D02*
G75*
G02X158385001Y-85635001I-1002533J-3899348D01*
G01*
X160385000Y-85635000D02*
G75*
G02X158385000Y-85635000I-1000000J0D01*
G01*
X167385000Y-89535000D02*
G75*
G03X167385000Y-89535000I-8000000J0D01*
G01*
X164485000Y-89535000D02*
G75*
G03X164485000Y-89535000I-5100000J0D01*
G01*
X160387533Y-117385652D02*
G75*
G02X158385001Y-117385001I-1002533J-3899348D01*
G01*
X160385000Y-117385000D02*
G75*
G02X158385000Y-117385000I-1000000J0D01*
G01*
X167385000Y-121285000D02*
G75*
G03X167385000Y-121285000I-8000000J0D01*
G01*
X164485000Y-121285000D02*
G75*
G03X164485000Y-121285000I-5100000J0D01*
G01*
X179437533Y-117385652D02*
G75*
G02X177435001Y-117385001I-1002533J-3899348D01*
G01*
X179435000Y-117385000D02*
G75*
G02X177435000Y-117385000I-1000000J0D01*
G01*
X186435000Y-121285000D02*
G75*
G03X186435000Y-121285000I-8000000J0D01*
G01*
X183535000Y-121285000D02*
G75*
G03X183535000Y-121285000I-5100000J0D01*
G01*
X179437533Y-85635652D02*
G75*
G02X177435001Y-85635001I-1002533J-3899348D01*
G01*
X179435000Y-85635000D02*
G75*
G02X177435000Y-85635000I-1000000J0D01*
G01*
X186435000Y-89535000D02*
G75*
G03X186435000Y-89535000I-8000000J0D01*
G01*
X183535000Y-89535000D02*
G75*
G03X183535000Y-89535000I-5100000J0D01*
G01*
D15*
X76200000Y-80010000D02*
G75*
G03X76200000Y-80010000I-2540000J0D01*
G01*
X167640000Y-74930000D02*
G75*
G03X167640000Y-74930000I-2540000J0D01*
G01*
X167640000Y-135890000D02*
G75*
G03X167640000Y-135890000I-2540000J0D01*
G01*
X76200000Y-130810000D02*
G75*
G03X76200000Y-130810000I-2540000J0D01*
G01*
D16*
X194560000Y-112310000D02*
X194560000Y-98510000D01*
X181760000Y-112310000D02*
X181760000Y-98510000D01*
X181760000Y-112310000D02*
X194560000Y-112310000D01*
X181760000Y-98510000D02*
X194560000Y-98510000D01*
D10*
X70333809Y-106982380D02*
X70333809Y-106692095D01*
X70841809Y-106837238D02*
X70333809Y-106837238D01*
X70575714Y-106522761D02*
X70575714Y-106353428D01*
X70841809Y-106280857D02*
X70841809Y-106522761D01*
X70333809Y-106522761D01*
X70333809Y-106280857D01*
X70575714Y-106063142D02*
X70575714Y-105893809D01*
X70841809Y-105821238D02*
X70841809Y-106063142D01*
X70333809Y-106063142D01*
X70333809Y-105821238D01*
X70841809Y-105603523D02*
X70333809Y-105603523D01*
X70841809Y-105313238D01*
X70333809Y-105313238D01*
X70817619Y-105095523D02*
X70841809Y-105022952D01*
X70841809Y-104902000D01*
X70817619Y-104853619D01*
X70793428Y-104829428D01*
X70745047Y-104805238D01*
X70696666Y-104805238D01*
X70648285Y-104829428D01*
X70624095Y-104853619D01*
X70599904Y-104902000D01*
X70575714Y-104998761D01*
X70551523Y-105047142D01*
X70527333Y-105071333D01*
X70478952Y-105095523D01*
X70430571Y-105095523D01*
X70382190Y-105071333D01*
X70358000Y-105047142D01*
X70333809Y-104998761D01*
X70333809Y-104877809D01*
X70358000Y-104805238D01*
X70599904Y-104490761D02*
X70841809Y-104490761D01*
X70333809Y-104660095D02*
X70599904Y-104490761D01*
X70333809Y-104321428D01*
X70841809Y-103886000D02*
X70841809Y-104176285D01*
X70841809Y-104031142D02*
X70333809Y-104031142D01*
X70406380Y-104079523D01*
X70454761Y-104127904D01*
X70478952Y-104176285D01*
D14*
X56702476Y-75653619D02*
X57283047Y-75653619D01*
X56992761Y-76669619D02*
X56992761Y-75653619D01*
X57621714Y-76137428D02*
X57960380Y-76137428D01*
X58105523Y-76669619D02*
X57621714Y-76669619D01*
X57621714Y-75653619D01*
X58105523Y-75653619D01*
X58540952Y-76137428D02*
X58879619Y-76137428D01*
X59024761Y-76669619D02*
X58540952Y-76669619D01*
X58540952Y-75653619D01*
X59024761Y-75653619D01*
X59460190Y-76669619D02*
X59460190Y-75653619D01*
X60040761Y-76669619D01*
X60040761Y-75653619D01*
X60476190Y-76621238D02*
X60621333Y-76669619D01*
X60863238Y-76669619D01*
X60960000Y-76621238D01*
X61008380Y-76572857D01*
X61056761Y-76476095D01*
X61056761Y-76379333D01*
X61008380Y-76282571D01*
X60960000Y-76234190D01*
X60863238Y-76185809D01*
X60669714Y-76137428D01*
X60572952Y-76089047D01*
X60524571Y-76040666D01*
X60476190Y-75943904D01*
X60476190Y-75847142D01*
X60524571Y-75750380D01*
X60572952Y-75702000D01*
X60669714Y-75653619D01*
X60911619Y-75653619D01*
X61056761Y-75702000D01*
X61685714Y-76185809D02*
X61685714Y-76669619D01*
X61347047Y-75653619D02*
X61685714Y-76185809D01*
X62024380Y-75653619D01*
X62121142Y-76766380D02*
X62895238Y-76766380D01*
X63040380Y-75653619D02*
X63669333Y-75653619D01*
X63330666Y-76040666D01*
X63475809Y-76040666D01*
X63572571Y-76089047D01*
X63620952Y-76137428D01*
X63669333Y-76234190D01*
X63669333Y-76476095D01*
X63620952Y-76572857D01*
X63572571Y-76621238D01*
X63475809Y-76669619D01*
X63185523Y-76669619D01*
X63088761Y-76621238D01*
X63040380Y-76572857D01*
X64104761Y-76572857D02*
X64153142Y-76621238D01*
X64104761Y-76669619D01*
X64056380Y-76621238D01*
X64104761Y-76572857D01*
X64104761Y-76669619D01*
X65072380Y-75653619D02*
X64588571Y-75653619D01*
X64540190Y-76137428D01*
X64588571Y-76089047D01*
X64685333Y-76040666D01*
X64927238Y-76040666D01*
X65024000Y-76089047D01*
X65072380Y-76137428D01*
X65120761Y-76234190D01*
X65120761Y-76476095D01*
X65072380Y-76572857D01*
X65024000Y-76621238D01*
X64927238Y-76669619D01*
X64685333Y-76669619D01*
X64588571Y-76621238D01*
X64540190Y-76572857D01*
X95165333Y-82766238D02*
X95310476Y-82814619D01*
X95552380Y-82814619D01*
X95649142Y-82766238D01*
X95697523Y-82717857D01*
X95745904Y-82621095D01*
X95745904Y-82524333D01*
X95697523Y-82427571D01*
X95649142Y-82379190D01*
X95552380Y-82330809D01*
X95358857Y-82282428D01*
X95262095Y-82234047D01*
X95213714Y-82185666D01*
X95165333Y-82088904D01*
X95165333Y-81992142D01*
X95213714Y-81895380D01*
X95262095Y-81847000D01*
X95358857Y-81798619D01*
X95600761Y-81798619D01*
X95745904Y-81847000D01*
X96084571Y-81798619D02*
X96326476Y-82814619D01*
X96520000Y-82088904D01*
X96713523Y-82814619D01*
X96955428Y-81798619D01*
X97294095Y-81895380D02*
X97342476Y-81847000D01*
X97439238Y-81798619D01*
X97681142Y-81798619D01*
X97777904Y-81847000D01*
X97826285Y-81895380D01*
X97874666Y-81992142D01*
X97874666Y-82088904D01*
X97826285Y-82234047D01*
X97245714Y-82814619D01*
X97874666Y-82814619D01*
D13*
X92492285Y-73437714D02*
X92927714Y-73437714D01*
X92710000Y-74199714D02*
X92710000Y-73437714D01*
X93181714Y-73800571D02*
X93435714Y-73800571D01*
X93544571Y-74199714D02*
X93181714Y-74199714D01*
X93181714Y-73437714D01*
X93544571Y-73437714D01*
X93834857Y-74163428D02*
X93943714Y-74199714D01*
X94125142Y-74199714D01*
X94197714Y-74163428D01*
X94234000Y-74127142D01*
X94270285Y-74054571D01*
X94270285Y-73982000D01*
X94234000Y-73909428D01*
X94197714Y-73873142D01*
X94125142Y-73836857D01*
X93980000Y-73800571D01*
X93907428Y-73764285D01*
X93871142Y-73728000D01*
X93834857Y-73655428D01*
X93834857Y-73582857D01*
X93871142Y-73510285D01*
X93907428Y-73474000D01*
X93980000Y-73437714D01*
X94161428Y-73437714D01*
X94270285Y-73474000D01*
X94488000Y-73437714D02*
X94923428Y-73437714D01*
X94705714Y-74199714D02*
X94705714Y-73437714D01*
X95903142Y-73437714D02*
X96048285Y-73437714D01*
X96120857Y-73474000D01*
X96193428Y-73546571D01*
X96229714Y-73691714D01*
X96229714Y-73945714D01*
X96193428Y-74090857D01*
X96120857Y-74163428D01*
X96048285Y-74199714D01*
X95903142Y-74199714D01*
X95830571Y-74163428D01*
X95758000Y-74090857D01*
X95721714Y-73945714D01*
X95721714Y-73691714D01*
X95758000Y-73546571D01*
X95830571Y-73474000D01*
X95903142Y-73437714D01*
X96556285Y-73437714D02*
X96556285Y-74054571D01*
X96592571Y-74127142D01*
X96628857Y-74163428D01*
X96701428Y-74199714D01*
X96846571Y-74199714D01*
X96919142Y-74163428D01*
X96955428Y-74127142D01*
X96991714Y-74054571D01*
X96991714Y-73437714D01*
X97245714Y-73437714D02*
X97681142Y-73437714D01*
X97463428Y-74199714D02*
X97463428Y-73437714D01*
X97935142Y-74199714D02*
X97935142Y-73437714D01*
X98225428Y-73437714D01*
X98298000Y-73474000D01*
X98334285Y-73510285D01*
X98370571Y-73582857D01*
X98370571Y-73691714D01*
X98334285Y-73764285D01*
X98298000Y-73800571D01*
X98225428Y-73836857D01*
X97935142Y-73836857D01*
X98697142Y-73437714D02*
X98697142Y-74054571D01*
X98733428Y-74127142D01*
X98769714Y-74163428D01*
X98842285Y-74199714D01*
X98987428Y-74199714D01*
X99060000Y-74163428D01*
X99096285Y-74127142D01*
X99132571Y-74054571D01*
X99132571Y-73437714D01*
X99386571Y-73437714D02*
X99822000Y-73437714D01*
X99604285Y-74199714D02*
X99604285Y-73437714D01*
X100039714Y-74163428D02*
X100148571Y-74199714D01*
X100330000Y-74199714D01*
X100402571Y-74163428D01*
X100438857Y-74127142D01*
X100475142Y-74054571D01*
X100475142Y-73982000D01*
X100438857Y-73909428D01*
X100402571Y-73873142D01*
X100330000Y-73836857D01*
X100184857Y-73800571D01*
X100112285Y-73764285D01*
X100076000Y-73728000D01*
X100039714Y-73655428D01*
X100039714Y-73582857D01*
X100076000Y-73510285D01*
X100112285Y-73474000D01*
X100184857Y-73437714D01*
X100366285Y-73437714D01*
X100475142Y-73474000D01*
D14*
X82465333Y-82766238D02*
X82610476Y-82814619D01*
X82852380Y-82814619D01*
X82949142Y-82766238D01*
X82997523Y-82717857D01*
X83045904Y-82621095D01*
X83045904Y-82524333D01*
X82997523Y-82427571D01*
X82949142Y-82379190D01*
X82852380Y-82330809D01*
X82658857Y-82282428D01*
X82562095Y-82234047D01*
X82513714Y-82185666D01*
X82465333Y-82088904D01*
X82465333Y-81992142D01*
X82513714Y-81895380D01*
X82562095Y-81847000D01*
X82658857Y-81798619D01*
X82900761Y-81798619D01*
X83045904Y-81847000D01*
X83384571Y-81798619D02*
X83626476Y-82814619D01*
X83820000Y-82088904D01*
X84013523Y-82814619D01*
X84255428Y-81798619D01*
X85174666Y-82814619D02*
X84594095Y-82814619D01*
X84884380Y-82814619D02*
X84884380Y-81798619D01*
X84787619Y-81943761D01*
X84690857Y-82040523D01*
X84594095Y-82088904D01*
D13*
X77978000Y-73800571D02*
X78232000Y-73800571D01*
X78340857Y-74199714D02*
X77978000Y-74199714D01*
X77978000Y-73437714D01*
X78340857Y-73437714D01*
X78667428Y-74199714D02*
X78667428Y-73437714D01*
X79102857Y-74199714D01*
X79102857Y-73437714D01*
X79429428Y-73982000D02*
X79792285Y-73982000D01*
X79356857Y-74199714D02*
X79610857Y-73437714D01*
X79864857Y-74199714D01*
X80372857Y-73800571D02*
X80481714Y-73836857D01*
X80518000Y-73873142D01*
X80554285Y-73945714D01*
X80554285Y-74054571D01*
X80518000Y-74127142D01*
X80481714Y-74163428D01*
X80409142Y-74199714D01*
X80118857Y-74199714D01*
X80118857Y-73437714D01*
X80372857Y-73437714D01*
X80445428Y-73474000D01*
X80481714Y-73510285D01*
X80518000Y-73582857D01*
X80518000Y-73655428D01*
X80481714Y-73728000D01*
X80445428Y-73764285D01*
X80372857Y-73800571D01*
X80118857Y-73800571D01*
X81243714Y-74199714D02*
X80880857Y-74199714D01*
X80880857Y-73437714D01*
X81497714Y-73800571D02*
X81751714Y-73800571D01*
X81860571Y-74199714D02*
X81497714Y-74199714D01*
X81497714Y-73437714D01*
X81860571Y-73437714D01*
X82731428Y-73401428D02*
X82078285Y-74381142D01*
X82985428Y-74199714D02*
X82985428Y-73437714D01*
X83166857Y-73437714D01*
X83275714Y-73474000D01*
X83348285Y-73546571D01*
X83384571Y-73619142D01*
X83420857Y-73764285D01*
X83420857Y-73873142D01*
X83384571Y-74018285D01*
X83348285Y-74090857D01*
X83275714Y-74163428D01*
X83166857Y-74199714D01*
X82985428Y-74199714D01*
X83747428Y-74199714D02*
X83747428Y-73437714D01*
X84074000Y-74163428D02*
X84182857Y-74199714D01*
X84364285Y-74199714D01*
X84436857Y-74163428D01*
X84473142Y-74127142D01*
X84509428Y-74054571D01*
X84509428Y-73982000D01*
X84473142Y-73909428D01*
X84436857Y-73873142D01*
X84364285Y-73836857D01*
X84219142Y-73800571D01*
X84146571Y-73764285D01*
X84110285Y-73728000D01*
X84074000Y-73655428D01*
X84074000Y-73582857D01*
X84110285Y-73510285D01*
X84146571Y-73474000D01*
X84219142Y-73437714D01*
X84400571Y-73437714D01*
X84509428Y-73474000D01*
X84799714Y-73982000D02*
X85162571Y-73982000D01*
X84727142Y-74199714D02*
X84981142Y-73437714D01*
X85235142Y-74199714D01*
X85743142Y-73800571D02*
X85852000Y-73836857D01*
X85888285Y-73873142D01*
X85924571Y-73945714D01*
X85924571Y-74054571D01*
X85888285Y-74127142D01*
X85852000Y-74163428D01*
X85779428Y-74199714D01*
X85489142Y-74199714D01*
X85489142Y-73437714D01*
X85743142Y-73437714D01*
X85815714Y-73474000D01*
X85852000Y-73510285D01*
X85888285Y-73582857D01*
X85888285Y-73655428D01*
X85852000Y-73728000D01*
X85815714Y-73764285D01*
X85743142Y-73800571D01*
X85489142Y-73800571D01*
X86614000Y-74199714D02*
X86251142Y-74199714D01*
X86251142Y-73437714D01*
X86868000Y-73800571D02*
X87122000Y-73800571D01*
X87230857Y-74199714D02*
X86868000Y-74199714D01*
X86868000Y-73437714D01*
X87230857Y-73437714D01*
X88101714Y-73982000D02*
X88464571Y-73982000D01*
X88029142Y-74199714D02*
X88283142Y-73437714D01*
X88537142Y-74199714D01*
X89154000Y-74199714D02*
X88791142Y-74199714D01*
X88791142Y-73437714D01*
X89770857Y-74199714D02*
X89408000Y-74199714D01*
X89408000Y-73437714D01*
D14*
X113314619Y-78626952D02*
X112830809Y-78965619D01*
X113314619Y-79207523D02*
X112298619Y-79207523D01*
X112298619Y-78820476D01*
X112347000Y-78723714D01*
X112395380Y-78675333D01*
X112492142Y-78626952D01*
X112637285Y-78626952D01*
X112734047Y-78675333D01*
X112782428Y-78723714D01*
X112830809Y-78820476D01*
X112830809Y-79207523D01*
X112782428Y-78191523D02*
X112782428Y-77852857D01*
X113314619Y-77707714D02*
X113314619Y-78191523D01*
X112298619Y-78191523D01*
X112298619Y-77707714D01*
X112347000Y-76740095D02*
X112298619Y-76836857D01*
X112298619Y-76982000D01*
X112347000Y-77127142D01*
X112443761Y-77223904D01*
X112540523Y-77272285D01*
X112734047Y-77320666D01*
X112879190Y-77320666D01*
X113072714Y-77272285D01*
X113169476Y-77223904D01*
X113266238Y-77127142D01*
X113314619Y-76982000D01*
X113314619Y-76885238D01*
X113266238Y-76740095D01*
X113217857Y-76691714D01*
X112879190Y-76691714D01*
X112879190Y-76885238D01*
X113314619Y-75724095D02*
X113314619Y-76304666D01*
X113314619Y-76014380D02*
X112298619Y-76014380D01*
X112443761Y-76111142D01*
X112540523Y-76207904D01*
X112588904Y-76304666D01*
X102048619Y-83433523D02*
X102048619Y-83917333D01*
X102532428Y-83965714D01*
X102484047Y-83917333D01*
X102435666Y-83820571D01*
X102435666Y-83578666D01*
X102484047Y-83481904D01*
X102532428Y-83433523D01*
X102629190Y-83385142D01*
X102871095Y-83385142D01*
X102967857Y-83433523D01*
X103016238Y-83481904D01*
X103064619Y-83578666D01*
X103064619Y-83820571D01*
X103016238Y-83917333D01*
X102967857Y-83965714D01*
X102048619Y-83094857D02*
X103064619Y-82756190D01*
X102048619Y-82417523D01*
D17*
X138372261Y-78876071D02*
X137737261Y-78876071D01*
X137737261Y-78724880D01*
X137767500Y-78634166D01*
X137827976Y-78573690D01*
X137888452Y-78543452D01*
X138009404Y-78513214D01*
X138100119Y-78513214D01*
X138221071Y-78543452D01*
X138281547Y-78573690D01*
X138342023Y-78634166D01*
X138372261Y-78724880D01*
X138372261Y-78876071D01*
X138372261Y-77908452D02*
X138372261Y-78271309D01*
X138372261Y-78089880D02*
X137737261Y-78089880D01*
X137827976Y-78150357D01*
X137888452Y-78210833D01*
X137918690Y-78271309D01*
X137797738Y-77666547D02*
X137767500Y-77636309D01*
X137737261Y-77575833D01*
X137737261Y-77424642D01*
X137767500Y-77364166D01*
X137797738Y-77333928D01*
X137858214Y-77303690D01*
X137918690Y-77303690D01*
X138009404Y-77333928D01*
X138372261Y-77696785D01*
X138372261Y-77303690D01*
X103036309Y-126307261D02*
X103036309Y-125672261D01*
X103187500Y-125672261D01*
X103278214Y-125702500D01*
X103338690Y-125762976D01*
X103368928Y-125823452D01*
X103399166Y-125944404D01*
X103399166Y-126035119D01*
X103368928Y-126156071D01*
X103338690Y-126216547D01*
X103278214Y-126277023D01*
X103187500Y-126307261D01*
X103036309Y-126307261D01*
X103762023Y-125944404D02*
X103701547Y-125914166D01*
X103671309Y-125883928D01*
X103641071Y-125823452D01*
X103641071Y-125793214D01*
X103671309Y-125732738D01*
X103701547Y-125702500D01*
X103762023Y-125672261D01*
X103882976Y-125672261D01*
X103943452Y-125702500D01*
X103973690Y-125732738D01*
X104003928Y-125793214D01*
X104003928Y-125823452D01*
X103973690Y-125883928D01*
X103943452Y-125914166D01*
X103882976Y-125944404D01*
X103762023Y-125944404D01*
X103701547Y-125974642D01*
X103671309Y-126004880D01*
X103641071Y-126065357D01*
X103641071Y-126186309D01*
X103671309Y-126246785D01*
X103701547Y-126277023D01*
X103762023Y-126307261D01*
X103882976Y-126307261D01*
X103943452Y-126277023D01*
X103973690Y-126246785D01*
X104003928Y-126186309D01*
X104003928Y-126065357D01*
X103973690Y-126004880D01*
X103943452Y-125974642D01*
X103882976Y-125944404D01*
X100496309Y-126307261D02*
X100496309Y-125672261D01*
X100647500Y-125672261D01*
X100738214Y-125702500D01*
X100798690Y-125762976D01*
X100828928Y-125823452D01*
X100859166Y-125944404D01*
X100859166Y-126035119D01*
X100828928Y-126156071D01*
X100798690Y-126216547D01*
X100738214Y-126277023D01*
X100647500Y-126307261D01*
X100496309Y-126307261D01*
X101070833Y-125672261D02*
X101494166Y-125672261D01*
X101222023Y-126307261D01*
X105576309Y-126307261D02*
X105576309Y-125672261D01*
X105727500Y-125672261D01*
X105818214Y-125702500D01*
X105878690Y-125762976D01*
X105908928Y-125823452D01*
X105939166Y-125944404D01*
X105939166Y-126035119D01*
X105908928Y-126156071D01*
X105878690Y-126216547D01*
X105818214Y-126277023D01*
X105727500Y-126307261D01*
X105576309Y-126307261D01*
X106241547Y-126307261D02*
X106362500Y-126307261D01*
X106422976Y-126277023D01*
X106453214Y-126246785D01*
X106513690Y-126156071D01*
X106543928Y-126035119D01*
X106543928Y-125793214D01*
X106513690Y-125732738D01*
X106483452Y-125702500D01*
X106422976Y-125672261D01*
X106302023Y-125672261D01*
X106241547Y-125702500D01*
X106211309Y-125732738D01*
X106181071Y-125793214D01*
X106181071Y-125944404D01*
X106211309Y-126004880D01*
X106241547Y-126035119D01*
X106302023Y-126065357D01*
X106422976Y-126065357D01*
X106483452Y-126035119D01*
X106513690Y-126004880D01*
X106543928Y-125944404D01*
X97956309Y-126307261D02*
X97956309Y-125672261D01*
X98107500Y-125672261D01*
X98198214Y-125702500D01*
X98258690Y-125762976D01*
X98288928Y-125823452D01*
X98319166Y-125944404D01*
X98319166Y-126035119D01*
X98288928Y-126156071D01*
X98258690Y-126216547D01*
X98198214Y-126277023D01*
X98107500Y-126307261D01*
X97956309Y-126307261D01*
X98863452Y-125672261D02*
X98742500Y-125672261D01*
X98682023Y-125702500D01*
X98651785Y-125732738D01*
X98591309Y-125823452D01*
X98561071Y-125944404D01*
X98561071Y-126186309D01*
X98591309Y-126246785D01*
X98621547Y-126277023D01*
X98682023Y-126307261D01*
X98802976Y-126307261D01*
X98863452Y-126277023D01*
X98893690Y-126246785D01*
X98923928Y-126186309D01*
X98923928Y-126035119D01*
X98893690Y-125974642D01*
X98863452Y-125944404D01*
X98802976Y-125914166D01*
X98682023Y-125914166D01*
X98621547Y-125944404D01*
X98591309Y-125974642D01*
X98561071Y-126035119D01*
X188761309Y-93922261D02*
X188761309Y-93287261D01*
X188912500Y-93287261D01*
X189003214Y-93317500D01*
X189063690Y-93377976D01*
X189093928Y-93438452D01*
X189124166Y-93559404D01*
X189124166Y-93650119D01*
X189093928Y-93771071D01*
X189063690Y-93831547D01*
X189003214Y-93892023D01*
X188912500Y-93922261D01*
X188761309Y-93922261D01*
X189728928Y-93922261D02*
X189366071Y-93922261D01*
X189547500Y-93922261D02*
X189547500Y-93287261D01*
X189487023Y-93377976D01*
X189426547Y-93438452D01*
X189366071Y-93468690D01*
X119322261Y-78876071D02*
X118687261Y-78876071D01*
X118687261Y-78724880D01*
X118717500Y-78634166D01*
X118777976Y-78573690D01*
X118838452Y-78543452D01*
X118959404Y-78513214D01*
X119050119Y-78513214D01*
X119171071Y-78543452D01*
X119231547Y-78573690D01*
X119292023Y-78634166D01*
X119322261Y-78724880D01*
X119322261Y-78876071D01*
X119322261Y-77908452D02*
X119322261Y-78271309D01*
X119322261Y-78089880D02*
X118687261Y-78089880D01*
X118777976Y-78150357D01*
X118838452Y-78210833D01*
X118868690Y-78271309D01*
X118687261Y-77515357D02*
X118687261Y-77454880D01*
X118717500Y-77394404D01*
X118747738Y-77364166D01*
X118808214Y-77333928D01*
X118929166Y-77303690D01*
X119080357Y-77303690D01*
X119201309Y-77333928D01*
X119261785Y-77364166D01*
X119292023Y-77394404D01*
X119322261Y-77454880D01*
X119322261Y-77515357D01*
X119292023Y-77575833D01*
X119261785Y-77606071D01*
X119201309Y-77636309D01*
X119080357Y-77666547D01*
X118929166Y-77666547D01*
X118808214Y-77636309D01*
X118747738Y-77606071D01*
X118717500Y-77575833D01*
X118687261Y-77515357D01*
X176472261Y-133486071D02*
X175837261Y-133486071D01*
X175837261Y-133334880D01*
X175867500Y-133244166D01*
X175927976Y-133183690D01*
X175988452Y-133153452D01*
X176109404Y-133123214D01*
X176200119Y-133123214D01*
X176321071Y-133153452D01*
X176381547Y-133183690D01*
X176442023Y-133244166D01*
X176472261Y-133334880D01*
X176472261Y-133486071D01*
X176472261Y-132518452D02*
X176472261Y-132881309D01*
X176472261Y-132699880D02*
X175837261Y-132699880D01*
X175927976Y-132760357D01*
X175988452Y-132820833D01*
X176018690Y-132881309D01*
X175837261Y-132306785D02*
X175837261Y-131883452D01*
X176472261Y-132155595D01*
X119322261Y-133486071D02*
X118687261Y-133486071D01*
X118687261Y-133334880D01*
X118717500Y-133244166D01*
X118777976Y-133183690D01*
X118838452Y-133153452D01*
X118959404Y-133123214D01*
X119050119Y-133123214D01*
X119171071Y-133153452D01*
X119231547Y-133183690D01*
X119292023Y-133244166D01*
X119322261Y-133334880D01*
X119322261Y-133486071D01*
X119322261Y-132518452D02*
X119322261Y-132881309D01*
X119322261Y-132699880D02*
X118687261Y-132699880D01*
X118777976Y-132760357D01*
X118838452Y-132820833D01*
X118868690Y-132881309D01*
X119322261Y-131913690D02*
X119322261Y-132276547D01*
X119322261Y-132095119D02*
X118687261Y-132095119D01*
X118777976Y-132155595D01*
X118838452Y-132216071D01*
X118868690Y-132276547D01*
X86526309Y-126307261D02*
X86526309Y-125672261D01*
X86677500Y-125672261D01*
X86768214Y-125702500D01*
X86828690Y-125762976D01*
X86858928Y-125823452D01*
X86889166Y-125944404D01*
X86889166Y-126035119D01*
X86858928Y-126156071D01*
X86828690Y-126216547D01*
X86768214Y-126277023D01*
X86677500Y-126307261D01*
X86526309Y-126307261D01*
X87463690Y-125672261D02*
X87161309Y-125672261D01*
X87131071Y-125974642D01*
X87161309Y-125944404D01*
X87221785Y-125914166D01*
X87372976Y-125914166D01*
X87433452Y-125944404D01*
X87463690Y-125974642D01*
X87493928Y-126035119D01*
X87493928Y-126186309D01*
X87463690Y-126246785D01*
X87433452Y-126277023D01*
X87372976Y-126307261D01*
X87221785Y-126307261D01*
X87161309Y-126277023D01*
X87131071Y-126246785D01*
X78906309Y-126307261D02*
X78906309Y-125672261D01*
X79057500Y-125672261D01*
X79148214Y-125702500D01*
X79208690Y-125762976D01*
X79238928Y-125823452D01*
X79269166Y-125944404D01*
X79269166Y-126035119D01*
X79238928Y-126156071D01*
X79208690Y-126216547D01*
X79148214Y-126277023D01*
X79057500Y-126307261D01*
X78906309Y-126307261D01*
X79511071Y-125732738D02*
X79541309Y-125702500D01*
X79601785Y-125672261D01*
X79752976Y-125672261D01*
X79813452Y-125702500D01*
X79843690Y-125732738D01*
X79873928Y-125793214D01*
X79873928Y-125853690D01*
X79843690Y-125944404D01*
X79480833Y-126307261D01*
X79873928Y-126307261D01*
X157422261Y-133486071D02*
X156787261Y-133486071D01*
X156787261Y-133334880D01*
X156817500Y-133244166D01*
X156877976Y-133183690D01*
X156938452Y-133153452D01*
X157059404Y-133123214D01*
X157150119Y-133123214D01*
X157271071Y-133153452D01*
X157331547Y-133183690D01*
X157392023Y-133244166D01*
X157422261Y-133334880D01*
X157422261Y-133486071D01*
X157422261Y-132518452D02*
X157422261Y-132881309D01*
X157422261Y-132699880D02*
X156787261Y-132699880D01*
X156877976Y-132760357D01*
X156938452Y-132820833D01*
X156968690Y-132881309D01*
X156787261Y-131943928D02*
X156787261Y-132246309D01*
X157089642Y-132276547D01*
X157059404Y-132246309D01*
X157029166Y-132185833D01*
X157029166Y-132034642D01*
X157059404Y-131974166D01*
X157089642Y-131943928D01*
X157150119Y-131913690D01*
X157301309Y-131913690D01*
X157361785Y-131943928D01*
X157392023Y-131974166D01*
X157422261Y-132034642D01*
X157422261Y-132185833D01*
X157392023Y-132246309D01*
X157361785Y-132276547D01*
X83986309Y-126307261D02*
X83986309Y-125672261D01*
X84137500Y-125672261D01*
X84228214Y-125702500D01*
X84288690Y-125762976D01*
X84318928Y-125823452D01*
X84349166Y-125944404D01*
X84349166Y-126035119D01*
X84318928Y-126156071D01*
X84288690Y-126216547D01*
X84228214Y-126277023D01*
X84137500Y-126307261D01*
X83986309Y-126307261D01*
X84893452Y-125883928D02*
X84893452Y-126307261D01*
X84742261Y-125642023D02*
X84591071Y-126095595D01*
X84984166Y-126095595D01*
X81446309Y-126307261D02*
X81446309Y-125672261D01*
X81597500Y-125672261D01*
X81688214Y-125702500D01*
X81748690Y-125762976D01*
X81778928Y-125823452D01*
X81809166Y-125944404D01*
X81809166Y-126035119D01*
X81778928Y-126156071D01*
X81748690Y-126216547D01*
X81688214Y-126277023D01*
X81597500Y-126307261D01*
X81446309Y-126307261D01*
X82020833Y-125672261D02*
X82413928Y-125672261D01*
X82202261Y-125914166D01*
X82292976Y-125914166D01*
X82353452Y-125944404D01*
X82383690Y-125974642D01*
X82413928Y-126035119D01*
X82413928Y-126186309D01*
X82383690Y-126246785D01*
X82353452Y-126277023D01*
X82292976Y-126307261D01*
X82111547Y-126307261D01*
X82051071Y-126277023D01*
X82020833Y-126246785D01*
X157422261Y-78876071D02*
X156787261Y-78876071D01*
X156787261Y-78724880D01*
X156817500Y-78634166D01*
X156877976Y-78573690D01*
X156938452Y-78543452D01*
X157059404Y-78513214D01*
X157150119Y-78513214D01*
X157271071Y-78543452D01*
X157331547Y-78573690D01*
X157392023Y-78634166D01*
X157422261Y-78724880D01*
X157422261Y-78876071D01*
X157422261Y-77908452D02*
X157422261Y-78271309D01*
X157422261Y-78089880D02*
X156787261Y-78089880D01*
X156877976Y-78150357D01*
X156938452Y-78210833D01*
X156968690Y-78271309D01*
X156998928Y-77364166D02*
X157422261Y-77364166D01*
X156757023Y-77515357D02*
X157210595Y-77666547D01*
X157210595Y-77273452D01*
X138372261Y-133486071D02*
X137737261Y-133486071D01*
X137737261Y-133334880D01*
X137767500Y-133244166D01*
X137827976Y-133183690D01*
X137888452Y-133153452D01*
X138009404Y-133123214D01*
X138100119Y-133123214D01*
X138221071Y-133153452D01*
X138281547Y-133183690D01*
X138342023Y-133244166D01*
X138372261Y-133334880D01*
X138372261Y-133486071D01*
X138372261Y-132518452D02*
X138372261Y-132881309D01*
X138372261Y-132699880D02*
X137737261Y-132699880D01*
X137827976Y-132760357D01*
X137888452Y-132820833D01*
X137918690Y-132881309D01*
X137737261Y-132306785D02*
X137737261Y-131913690D01*
X137979166Y-132125357D01*
X137979166Y-132034642D01*
X138009404Y-131974166D01*
X138039642Y-131943928D01*
X138100119Y-131913690D01*
X138251309Y-131913690D01*
X138311785Y-131943928D01*
X138342023Y-131974166D01*
X138372261Y-132034642D01*
X138372261Y-132216071D01*
X138342023Y-132276547D01*
X138311785Y-132306785D01*
X176472261Y-78876071D02*
X175837261Y-78876071D01*
X175837261Y-78724880D01*
X175867500Y-78634166D01*
X175927976Y-78573690D01*
X175988452Y-78543452D01*
X176109404Y-78513214D01*
X176200119Y-78513214D01*
X176321071Y-78543452D01*
X176381547Y-78573690D01*
X176442023Y-78634166D01*
X176472261Y-78724880D01*
X176472261Y-78876071D01*
X176472261Y-77908452D02*
X176472261Y-78271309D01*
X176472261Y-78089880D02*
X175837261Y-78089880D01*
X175927976Y-78150357D01*
X175988452Y-78210833D01*
X176018690Y-78271309D01*
X175837261Y-77364166D02*
X175837261Y-77485119D01*
X175867500Y-77545595D01*
X175897738Y-77575833D01*
X175988452Y-77636309D01*
X176109404Y-77666547D01*
X176351309Y-77666547D01*
X176411785Y-77636309D01*
X176442023Y-77606071D01*
X176472261Y-77545595D01*
X176472261Y-77424642D01*
X176442023Y-77364166D01*
X176411785Y-77333928D01*
X176351309Y-77303690D01*
X176200119Y-77303690D01*
X176139642Y-77333928D01*
X176109404Y-77364166D01*
X176079166Y-77424642D01*
X176079166Y-77545595D01*
X176109404Y-77606071D01*
X176139642Y-77636309D01*
X176200119Y-77666547D01*
D14*
X75389619Y-115273666D02*
X76115333Y-115273666D01*
X76260476Y-115322047D01*
X76357238Y-115418809D01*
X76405619Y-115563952D01*
X76405619Y-115660714D01*
X76405619Y-114257666D02*
X76405619Y-114838238D01*
X76405619Y-114547952D02*
X75389619Y-114547952D01*
X75534761Y-114644714D01*
X75631523Y-114741476D01*
X75679904Y-114838238D01*
D18*
X79619928Y-98252642D02*
X79783214Y-98307071D01*
X80055357Y-98307071D01*
X80164214Y-98252642D01*
X80218642Y-98198214D01*
X80273071Y-98089357D01*
X80273071Y-97980500D01*
X80218642Y-97871642D01*
X80164214Y-97817214D01*
X80055357Y-97762785D01*
X79837642Y-97708357D01*
X79728785Y-97653928D01*
X79674357Y-97599500D01*
X79619928Y-97490642D01*
X79619928Y-97381785D01*
X79674357Y-97272928D01*
X79728785Y-97218500D01*
X79837642Y-97164071D01*
X80109785Y-97164071D01*
X80273071Y-97218500D01*
X80980642Y-97164071D02*
X81198357Y-97164071D01*
X81307214Y-97218500D01*
X81416071Y-97327357D01*
X81470500Y-97545071D01*
X81470500Y-97926071D01*
X81416071Y-98143785D01*
X81307214Y-98252642D01*
X81198357Y-98307071D01*
X80980642Y-98307071D01*
X80871785Y-98252642D01*
X80762928Y-98143785D01*
X80708500Y-97926071D01*
X80708500Y-97545071D01*
X80762928Y-97327357D01*
X80871785Y-97218500D01*
X80980642Y-97164071D01*
X82613500Y-98198214D02*
X82559071Y-98252642D01*
X82395785Y-98307071D01*
X82286928Y-98307071D01*
X82123642Y-98252642D01*
X82014785Y-98143785D01*
X81960357Y-98034928D01*
X81905928Y-97817214D01*
X81905928Y-97653928D01*
X81960357Y-97436214D01*
X82014785Y-97327357D01*
X82123642Y-97218500D01*
X82286928Y-97164071D01*
X82395785Y-97164071D01*
X82559071Y-97218500D01*
X82613500Y-97272928D01*
X83103357Y-98307071D02*
X83103357Y-97164071D01*
X83756500Y-98307071D02*
X83266642Y-97653928D01*
X83756500Y-97164071D02*
X83103357Y-97817214D01*
X84246357Y-97708357D02*
X84627357Y-97708357D01*
X84790642Y-98307071D02*
X84246357Y-98307071D01*
X84246357Y-97164071D01*
X84790642Y-97164071D01*
X85117214Y-97164071D02*
X85770357Y-97164071D01*
X85443785Y-98307071D02*
X85443785Y-97164071D01*
X86096928Y-98252642D02*
X86260214Y-98307071D01*
X86532357Y-98307071D01*
X86641214Y-98252642D01*
X86695642Y-98198214D01*
X86750071Y-98089357D01*
X86750071Y-97980500D01*
X86695642Y-97871642D01*
X86641214Y-97817214D01*
X86532357Y-97762785D01*
X86314642Y-97708357D01*
X86205785Y-97653928D01*
X86151357Y-97599500D01*
X86096928Y-97490642D01*
X86096928Y-97381785D01*
X86151357Y-97272928D01*
X86205785Y-97218500D01*
X86314642Y-97164071D01*
X86586785Y-97164071D01*
X86750071Y-97218500D01*
X80708500Y-95803357D02*
X80327500Y-95803357D01*
X80327500Y-96402071D02*
X80327500Y-95259071D01*
X80871785Y-95259071D01*
X81307214Y-95803357D02*
X81688214Y-95803357D01*
X81851500Y-96402071D02*
X81307214Y-96402071D01*
X81307214Y-95259071D01*
X81851500Y-95259071D01*
X82341357Y-96402071D02*
X82341357Y-95259071D01*
X82722357Y-96075500D01*
X83103357Y-95259071D01*
X83103357Y-96402071D01*
X83593214Y-96075500D02*
X84137500Y-96075500D01*
X83484357Y-96402071D02*
X83865357Y-95259071D01*
X84246357Y-96402071D01*
X85171642Y-96402071D02*
X84627357Y-96402071D01*
X84627357Y-95259071D01*
X85552642Y-95803357D02*
X85933642Y-95803357D01*
X86096928Y-96402071D02*
X85552642Y-96402071D01*
X85552642Y-95259071D01*
X86096928Y-95259071D01*
D14*
X94439619Y-115273666D02*
X95165333Y-115273666D01*
X95310476Y-115322047D01*
X95407238Y-115418809D01*
X95455619Y-115563952D01*
X95455619Y-115660714D01*
X94536380Y-114838238D02*
X94488000Y-114789857D01*
X94439619Y-114693095D01*
X94439619Y-114451190D01*
X94488000Y-114354428D01*
X94536380Y-114306047D01*
X94633142Y-114257666D01*
X94729904Y-114257666D01*
X94875047Y-114306047D01*
X95455619Y-114886619D01*
X95455619Y-114257666D01*
D18*
X100520500Y-98307071D02*
X100520500Y-97164071D01*
X100955928Y-97164071D01*
X101064785Y-97218500D01*
X101119214Y-97272928D01*
X101173642Y-97381785D01*
X101173642Y-97545071D01*
X101119214Y-97653928D01*
X101064785Y-97708357D01*
X100955928Y-97762785D01*
X100520500Y-97762785D01*
X101663500Y-98307071D02*
X101663500Y-97164071D01*
X102207785Y-98307071D02*
X102207785Y-97164071D01*
X102860928Y-98307071D01*
X102860928Y-97164071D01*
X103350785Y-98252642D02*
X103514071Y-98307071D01*
X103786214Y-98307071D01*
X103895071Y-98252642D01*
X103949500Y-98198214D01*
X104003928Y-98089357D01*
X104003928Y-97980500D01*
X103949500Y-97871642D01*
X103895071Y-97817214D01*
X103786214Y-97762785D01*
X103568500Y-97708357D01*
X103459642Y-97653928D01*
X103405214Y-97599500D01*
X103350785Y-97490642D01*
X103350785Y-97381785D01*
X103405214Y-97272928D01*
X103459642Y-97218500D01*
X103568500Y-97164071D01*
X103840642Y-97164071D01*
X104003928Y-97218500D01*
X100384428Y-96402071D02*
X100384428Y-95259071D01*
X100765428Y-96075500D01*
X101146428Y-95259071D01*
X101146428Y-96402071D01*
X101636285Y-96075500D02*
X102180571Y-96075500D01*
X101527428Y-96402071D02*
X101908428Y-95259071D01*
X102289428Y-96402071D01*
X103214714Y-96402071D02*
X102670428Y-96402071D01*
X102670428Y-95259071D01*
X103595714Y-95803357D02*
X103976714Y-95803357D01*
X104140000Y-96402071D02*
X103595714Y-96402071D01*
X103595714Y-95259071D01*
X104140000Y-95259071D01*
D14*
X113580333Y-95836619D02*
X113580333Y-96562333D01*
X113531952Y-96707476D01*
X113435190Y-96804238D01*
X113290047Y-96852619D01*
X113193285Y-96852619D01*
X113967380Y-95836619D02*
X114596333Y-95836619D01*
X114257666Y-96223666D01*
X114402809Y-96223666D01*
X114499571Y-96272047D01*
X114547952Y-96320428D01*
X114596333Y-96417190D01*
X114596333Y-96659095D01*
X114547952Y-96755857D01*
X114499571Y-96804238D01*
X114402809Y-96852619D01*
X114112523Y-96852619D01*
X114015761Y-96804238D01*
X113967380Y-96755857D01*
X113580333Y-127586619D02*
X113580333Y-128312333D01*
X113531952Y-128457476D01*
X113435190Y-128554238D01*
X113290047Y-128602619D01*
X113193285Y-128602619D01*
X114499571Y-127925285D02*
X114499571Y-128602619D01*
X114257666Y-127538238D02*
X114015761Y-128263952D01*
X114644714Y-128263952D01*
X132630333Y-95836619D02*
X132630333Y-96562333D01*
X132581952Y-96707476D01*
X132485190Y-96804238D01*
X132340047Y-96852619D01*
X132243285Y-96852619D01*
X133597952Y-95836619D02*
X133114142Y-95836619D01*
X133065761Y-96320428D01*
X133114142Y-96272047D01*
X133210904Y-96223666D01*
X133452809Y-96223666D01*
X133549571Y-96272047D01*
X133597952Y-96320428D01*
X133646333Y-96417190D01*
X133646333Y-96659095D01*
X133597952Y-96755857D01*
X133549571Y-96804238D01*
X133452809Y-96852619D01*
X133210904Y-96852619D01*
X133114142Y-96804238D01*
X133065761Y-96755857D01*
X132630333Y-127586619D02*
X132630333Y-128312333D01*
X132581952Y-128457476D01*
X132485190Y-128554238D01*
X132340047Y-128602619D01*
X132243285Y-128602619D01*
X133549571Y-127586619D02*
X133356047Y-127586619D01*
X133259285Y-127635000D01*
X133210904Y-127683380D01*
X133114142Y-127828523D01*
X133065761Y-128022047D01*
X133065761Y-128409095D01*
X133114142Y-128505857D01*
X133162523Y-128554238D01*
X133259285Y-128602619D01*
X133452809Y-128602619D01*
X133549571Y-128554238D01*
X133597952Y-128505857D01*
X133646333Y-128409095D01*
X133646333Y-128167190D01*
X133597952Y-128070428D01*
X133549571Y-128022047D01*
X133452809Y-127973666D01*
X133259285Y-127973666D01*
X133162523Y-128022047D01*
X133114142Y-128070428D01*
X133065761Y-128167190D01*
X151680333Y-95836619D02*
X151680333Y-96562333D01*
X151631952Y-96707476D01*
X151535190Y-96804238D01*
X151390047Y-96852619D01*
X151293285Y-96852619D01*
X152067380Y-95836619D02*
X152744714Y-95836619D01*
X152309285Y-96852619D01*
X151680333Y-127586619D02*
X151680333Y-128312333D01*
X151631952Y-128457476D01*
X151535190Y-128554238D01*
X151390047Y-128602619D01*
X151293285Y-128602619D01*
X152309285Y-128022047D02*
X152212523Y-127973666D01*
X152164142Y-127925285D01*
X152115761Y-127828523D01*
X152115761Y-127780142D01*
X152164142Y-127683380D01*
X152212523Y-127635000D01*
X152309285Y-127586619D01*
X152502809Y-127586619D01*
X152599571Y-127635000D01*
X152647952Y-127683380D01*
X152696333Y-127780142D01*
X152696333Y-127828523D01*
X152647952Y-127925285D01*
X152599571Y-127973666D01*
X152502809Y-128022047D01*
X152309285Y-128022047D01*
X152212523Y-128070428D01*
X152164142Y-128118809D01*
X152115761Y-128215571D01*
X152115761Y-128409095D01*
X152164142Y-128505857D01*
X152212523Y-128554238D01*
X152309285Y-128602619D01*
X152502809Y-128602619D01*
X152599571Y-128554238D01*
X152647952Y-128505857D01*
X152696333Y-128409095D01*
X152696333Y-128215571D01*
X152647952Y-128118809D01*
X152599571Y-128070428D01*
X152502809Y-128022047D01*
X170246523Y-127586619D02*
X170246523Y-128312333D01*
X170198142Y-128457476D01*
X170101380Y-128554238D01*
X169956238Y-128602619D01*
X169859476Y-128602619D01*
X171262523Y-128602619D02*
X170681952Y-128602619D01*
X170972238Y-128602619D02*
X170972238Y-127586619D01*
X170875476Y-127731761D01*
X170778714Y-127828523D01*
X170681952Y-127876904D01*
X171891476Y-127586619D02*
X171988238Y-127586619D01*
X172085000Y-127635000D01*
X172133380Y-127683380D01*
X172181761Y-127780142D01*
X172230142Y-127973666D01*
X172230142Y-128215571D01*
X172181761Y-128409095D01*
X172133380Y-128505857D01*
X172085000Y-128554238D01*
X171988238Y-128602619D01*
X171891476Y-128602619D01*
X171794714Y-128554238D01*
X171746333Y-128505857D01*
X171697952Y-128409095D01*
X171649571Y-128215571D01*
X171649571Y-127973666D01*
X171697952Y-127780142D01*
X171746333Y-127683380D01*
X171794714Y-127635000D01*
X171891476Y-127586619D01*
X170730333Y-95836619D02*
X170730333Y-96562333D01*
X170681952Y-96707476D01*
X170585190Y-96804238D01*
X170440047Y-96852619D01*
X170343285Y-96852619D01*
X171262523Y-96852619D02*
X171456047Y-96852619D01*
X171552809Y-96804238D01*
X171601190Y-96755857D01*
X171697952Y-96610714D01*
X171746333Y-96417190D01*
X171746333Y-96030142D01*
X171697952Y-95933380D01*
X171649571Y-95885000D01*
X171552809Y-95836619D01*
X171359285Y-95836619D01*
X171262523Y-95885000D01*
X171214142Y-95933380D01*
X171165761Y-96030142D01*
X171165761Y-96272047D01*
X171214142Y-96368809D01*
X171262523Y-96417190D01*
X171359285Y-96465571D01*
X171552809Y-96465571D01*
X171649571Y-96417190D01*
X171697952Y-96368809D01*
X171746333Y-96272047D01*
X184670095Y-114124619D02*
X184670095Y-113108619D01*
X185057142Y-113108619D01*
X185153904Y-113157000D01*
X185202285Y-113205380D01*
X185250666Y-113302142D01*
X185250666Y-113447285D01*
X185202285Y-113544047D01*
X185153904Y-113592428D01*
X185057142Y-113640809D01*
X184670095Y-113640809D01*
X186218285Y-114124619D02*
X185637714Y-114124619D01*
X185928000Y-114124619D02*
X185928000Y-113108619D01*
X185831238Y-113253761D01*
X185734476Y-113350523D01*
X185637714Y-113398904D01*
%LPC*%
D19*
X53340000Y-114300000D03*
X53340000Y-111760000D03*
D20*
X68580000Y-111760000D03*
D19*
X68580000Y-76200000D03*
X68580000Y-78740000D03*
X68580000Y-81280000D03*
X68580000Y-83820000D03*
X68580000Y-86360000D03*
X68580000Y-88900000D03*
X68580000Y-91440000D03*
X68580000Y-93980000D03*
X68580000Y-96520000D03*
X68580000Y-99060000D03*
X68580000Y-101600000D03*
X68580000Y-104140000D03*
X68580000Y-106680000D03*
X68580000Y-109220000D03*
X53340000Y-109220000D03*
X53340000Y-106680000D03*
X53340000Y-104140000D03*
X53340000Y-101600000D03*
X53340000Y-99060000D03*
X53340000Y-96520000D03*
X53340000Y-93980000D03*
X53340000Y-91440000D03*
X53340000Y-88900000D03*
X53340000Y-86360000D03*
X53340000Y-83820000D03*
X53340000Y-81280000D03*
X53340000Y-78740000D03*
D20*
X53340000Y-76200000D03*
D19*
X53340000Y-116840000D03*
X53340000Y-119380000D03*
X53340000Y-121920000D03*
X53340000Y-124460000D03*
X53340000Y-127000000D03*
X53340000Y-129540000D03*
X53340000Y-132080000D03*
X53340000Y-134620000D03*
X68580000Y-134620000D03*
X68580000Y-132080000D03*
X68580000Y-129540000D03*
X68580000Y-127000000D03*
X68580000Y-124460000D03*
X68580000Y-121920000D03*
X68580000Y-119380000D03*
X68580000Y-116840000D03*
X68580000Y-114300000D03*
D21*
X100647500Y-76106020D03*
X92392500Y-76106020D03*
X100647500Y-80103980D03*
X92392500Y-80103980D03*
X87947500Y-76106020D03*
X79692500Y-76106020D03*
X87947500Y-80103980D03*
X79692500Y-80103980D03*
D19*
X109855000Y-81280000D03*
X109855000Y-76200000D03*
X109855000Y-78740000D03*
D22*
X139280900Y-78105000D03*
X141389100Y-78105000D03*
X103505000Y-127215900D03*
X103505000Y-129324100D03*
X100965000Y-127215900D03*
X100965000Y-129324100D03*
X106045000Y-127215900D03*
X106045000Y-129324100D03*
X98425000Y-127215900D03*
X98425000Y-129324100D03*
X189230000Y-94830900D03*
X189230000Y-96939100D03*
X120230900Y-78105000D03*
X122339100Y-78105000D03*
X177380900Y-132715000D03*
X179489100Y-132715000D03*
X120230900Y-132715000D03*
X122339100Y-132715000D03*
X86995000Y-127215900D03*
X86995000Y-129324100D03*
X79375000Y-127215900D03*
X79375000Y-129324100D03*
X158330900Y-132715000D03*
X160439100Y-132715000D03*
X84455000Y-127215900D03*
X84455000Y-129324100D03*
X81915000Y-127215900D03*
X81915000Y-129324100D03*
X158330900Y-78105000D03*
X160439100Y-78105000D03*
X139280900Y-132715000D03*
X141389100Y-132715000D03*
X177380900Y-78105000D03*
X179489100Y-78105000D03*
D23*
X80085000Y-92910000D03*
X80085000Y-117910000D03*
D24*
X83185000Y-119610000D03*
D25*
X83185000Y-91210000D03*
D26*
X81465000Y-110890000D03*
X81465000Y-108150000D03*
X81465000Y-105410000D03*
X81465000Y-102670000D03*
X81465000Y-99930000D03*
X84905000Y-109520000D03*
X84905000Y-106780000D03*
X84905000Y-104040000D03*
X84905000Y-101300000D03*
D23*
X99135000Y-92910000D03*
X99135000Y-117910000D03*
D24*
X102235000Y-119610000D03*
D25*
X102235000Y-91210000D03*
D26*
X100515000Y-110890000D03*
X100515000Y-108150000D03*
X100515000Y-105410000D03*
X100515000Y-102670000D03*
X100515000Y-99930000D03*
X103955000Y-109520000D03*
X103955000Y-106780000D03*
X103955000Y-104040000D03*
X103955000Y-101300000D03*
D27*
X125785000Y-89535000D03*
D28*
X116785000Y-89535000D03*
D29*
X126960000Y-89535000D03*
X115610000Y-89535000D03*
D30*
X119515000Y-91305000D03*
X123055000Y-91305000D03*
X123055000Y-87765000D03*
X119515000Y-87765000D03*
X121285000Y-89535000D03*
D27*
X125785000Y-121285000D03*
D28*
X116785000Y-121285000D03*
D29*
X126960000Y-121285000D03*
X115610000Y-121285000D03*
D30*
X119515000Y-123055000D03*
X123055000Y-123055000D03*
X123055000Y-119515000D03*
X119515000Y-119515000D03*
X121285000Y-121285000D03*
D27*
X144835000Y-89535000D03*
D28*
X135835000Y-89535000D03*
D29*
X146010000Y-89535000D03*
X134660000Y-89535000D03*
D30*
X138565000Y-91305000D03*
X142105000Y-91305000D03*
X142105000Y-87765000D03*
X138565000Y-87765000D03*
X140335000Y-89535000D03*
D27*
X144835000Y-121285000D03*
D28*
X135835000Y-121285000D03*
D29*
X146010000Y-121285000D03*
X134660000Y-121285000D03*
D30*
X138565000Y-123055000D03*
X142105000Y-123055000D03*
X142105000Y-119515000D03*
X138565000Y-119515000D03*
X140335000Y-121285000D03*
D27*
X163885000Y-89535000D03*
D28*
X154885000Y-89535000D03*
D29*
X165060000Y-89535000D03*
X153710000Y-89535000D03*
D30*
X157615000Y-91305000D03*
X161155000Y-91305000D03*
X161155000Y-87765000D03*
X157615000Y-87765000D03*
X159385000Y-89535000D03*
D27*
X163885000Y-121285000D03*
D28*
X154885000Y-121285000D03*
D29*
X165060000Y-121285000D03*
X153710000Y-121285000D03*
D30*
X157615000Y-123055000D03*
X161155000Y-123055000D03*
X161155000Y-119515000D03*
X157615000Y-119515000D03*
X159385000Y-121285000D03*
D27*
X182935000Y-121285000D03*
D28*
X173935000Y-121285000D03*
D29*
X184110000Y-121285000D03*
X172760000Y-121285000D03*
D30*
X176665000Y-123055000D03*
X180205000Y-123055000D03*
X180205000Y-119515000D03*
X176665000Y-119515000D03*
X178435000Y-121285000D03*
D27*
X182935000Y-89535000D03*
D28*
X173935000Y-89535000D03*
D29*
X184110000Y-89535000D03*
X172760000Y-89535000D03*
D30*
X176665000Y-91305000D03*
X180205000Y-91305000D03*
X180205000Y-87765000D03*
X176665000Y-87765000D03*
X178435000Y-89535000D03*
D31*
X52070000Y-137795000D03*
X189865000Y-137795000D03*
X189865000Y-73025000D03*
X52070000Y-73025000D03*
D32*
X73660000Y-80010000D03*
X165100000Y-74930000D03*
X165100000Y-135890000D03*
X73660000Y-130810000D03*
D33*
X175160000Y-109610000D03*
X175160000Y-105410000D03*
X175160000Y-101210000D03*
X180660000Y-109610000D03*
X180660000Y-105410000D03*
D34*
X180660000Y-101210000D03*
D35*
X187960000Y-109610000D03*
X187960000Y-101210000D03*
M02*
