G04 #@! TF.GenerationSoftware,KiCad,Pcbnew,6.0.0-unknown-f1f26a9~86~ubuntu18.04.1*
G04 #@! TF.CreationDate,2019-06-07T10:14:52-04:00*
G04 #@! TF.ProjectId,backlight_controller_6x3,6261636b-6c69-4676-9874-5f636f6e7472,1.0*
G04 #@! TF.SameCoordinates,Original*
G04 #@! TF.FileFunction,Paste,Top*
G04 #@! TF.FilePolarity,Positive*
%FSLAX46Y46*%
G04 Gerber Fmt 4.6, Leading zero omitted, Abs format (unit mm)*
G04 Created by KiCad (PCBNEW 6.0.0-unknown-f1f26a9~86~ubuntu18.04.1) date 2019-06-07 10:14:52*
%MOMM*%
%LPD*%
G04 APERTURE LIST*
%ADD10R,2.667000X1.590040*%
%ADD11R,1.193800X1.193800*%
G04 APERTURE END LIST*
D10*
X100647500Y-76106020D03*
X92392500Y-76106020D03*
X100647500Y-80103980D03*
X92392500Y-80103980D03*
X87947500Y-76106020D03*
X79692500Y-76106020D03*
X87947500Y-80103980D03*
X79692500Y-80103980D03*
D11*
X139280900Y-78105000D03*
X141389100Y-78105000D03*
X103505000Y-127215900D03*
X103505000Y-129324100D03*
X100965000Y-127215900D03*
X100965000Y-129324100D03*
X106045000Y-127215900D03*
X106045000Y-129324100D03*
X98425000Y-127215900D03*
X98425000Y-129324100D03*
X189230000Y-94830900D03*
X189230000Y-96939100D03*
X120230900Y-78105000D03*
X122339100Y-78105000D03*
X177380900Y-132715000D03*
X179489100Y-132715000D03*
X120230900Y-132715000D03*
X122339100Y-132715000D03*
X86995000Y-127215900D03*
X86995000Y-129324100D03*
X79375000Y-127215900D03*
X79375000Y-129324100D03*
X158330900Y-132715000D03*
X160439100Y-132715000D03*
X84455000Y-127215900D03*
X84455000Y-129324100D03*
X81915000Y-127215900D03*
X81915000Y-129324100D03*
X158330900Y-78105000D03*
X160439100Y-78105000D03*
X139280900Y-132715000D03*
X141389100Y-132715000D03*
X177380900Y-78105000D03*
X179489100Y-78105000D03*
M02*
