G04 #@! TF.GenerationSoftware,KiCad,Pcbnew,6.0.0-unknown-f1f26a9~86~ubuntu18.04.1*
G04 #@! TF.CreationDate,2019-06-07T10:14:52-04:00*
G04 #@! TF.ProjectId,backlight_controller_6x3,6261636b-6c69-4676-9874-5f636f6e7472,1.0*
G04 #@! TF.SameCoordinates,Original*
G04 #@! TF.FileFunction,Paste,Bot*
G04 #@! TF.FilePolarity,Positive*
%FSLAX46Y46*%
G04 Gerber Fmt 4.6, Leading zero omitted, Abs format (unit mm)*
G04 Created by KiCad (PCBNEW 6.0.0-unknown-f1f26a9~86~ubuntu18.04.1) date 2019-06-07 10:14:52*
%MOMM*%
%LPD*%
G04 APERTURE LIST*
%ADD10R,2.000000X0.600000*%
%ADD11R,1.330960X0.558800*%
%ADD12R,0.787400X1.600200*%
%ADD13R,1.600200X0.787400*%
%ADD14R,6.400000X5.800000*%
%ADD15R,2.200000X0.800000*%
G04 APERTURE END LIST*
D10*
X56310000Y-123825000D03*
X56310000Y-122555000D03*
X56310000Y-121285000D03*
X56310000Y-120015000D03*
X56310000Y-118745000D03*
X56310000Y-117475000D03*
X56310000Y-116205000D03*
X56310000Y-114935000D03*
X56310000Y-113665000D03*
X56310000Y-112395000D03*
X65610000Y-112395000D03*
X65610000Y-113665000D03*
X65610000Y-114935000D03*
X65610000Y-116205000D03*
X65610000Y-117475000D03*
X65610000Y-118745000D03*
X65610000Y-120015000D03*
X65610000Y-121285000D03*
X65610000Y-122555000D03*
X65610000Y-123825000D03*
X56310000Y-98425000D03*
X56310000Y-97155000D03*
X56310000Y-95885000D03*
X56310000Y-94615000D03*
X56310000Y-93345000D03*
X56310000Y-92075000D03*
X56310000Y-90805000D03*
X56310000Y-89535000D03*
X56310000Y-88265000D03*
X56310000Y-86995000D03*
X65610000Y-86995000D03*
X65610000Y-88265000D03*
X65610000Y-89535000D03*
X65610000Y-90805000D03*
X65610000Y-92075000D03*
X65610000Y-93345000D03*
X65610000Y-94615000D03*
X65610000Y-95885000D03*
X65610000Y-97155000D03*
X65610000Y-98425000D03*
D11*
X72461120Y-84775040D03*
X72461120Y-85725000D03*
X72461120Y-86674960D03*
X74858880Y-86674960D03*
X74858880Y-85725000D03*
X74858880Y-84775040D03*
D12*
X74701400Y-88900000D03*
X72618600Y-88900000D03*
D13*
X83820000Y-85496400D03*
X83820000Y-83413600D03*
X83820000Y-95656400D03*
X83820000Y-93573600D03*
D12*
X179476400Y-132715000D03*
X177393600Y-132715000D03*
D13*
X98425000Y-129311400D03*
X98425000Y-127228600D03*
X86995000Y-129311400D03*
X86995000Y-127228600D03*
D12*
X81051400Y-79375000D03*
X78968600Y-79375000D03*
D13*
X83820000Y-105816400D03*
X83820000Y-103733600D03*
X100965000Y-129311400D03*
X100965000Y-127228600D03*
X98425000Y-122148600D03*
X98425000Y-124231400D03*
D12*
X81051400Y-89535000D03*
X78968600Y-89535000D03*
D13*
X84455000Y-129311400D03*
X84455000Y-127228600D03*
X83820000Y-115976400D03*
X83820000Y-113893600D03*
D12*
X81051400Y-99695000D03*
X78968600Y-99695000D03*
D13*
X81915000Y-129311400D03*
X81915000Y-127228600D03*
D12*
X59918600Y-101600000D03*
X62001400Y-101600000D03*
X81051400Y-109855000D03*
X78968600Y-109855000D03*
D13*
X100965000Y-122148600D03*
X100965000Y-124231400D03*
X79375000Y-129311400D03*
X79375000Y-127228600D03*
D12*
X59918600Y-127000000D03*
X62001400Y-127000000D03*
D13*
X106045000Y-80238600D03*
X106045000Y-82321400D03*
X61595000Y-78511400D03*
X61595000Y-76428600D03*
X189230000Y-96926400D03*
X189230000Y-94843600D03*
X103505000Y-129311400D03*
X103505000Y-127228600D03*
X106045000Y-129311400D03*
X106045000Y-127228600D03*
X103505000Y-122148600D03*
X103505000Y-124231400D03*
D12*
X179476400Y-78105000D03*
X177393600Y-78105000D03*
D13*
X106045000Y-122148600D03*
X106045000Y-124231400D03*
D12*
X141376400Y-132715000D03*
X139293600Y-132715000D03*
X122326400Y-78105000D03*
X120243600Y-78105000D03*
D13*
X106045000Y-77241400D03*
X106045000Y-75158600D03*
D12*
X160426400Y-78105000D03*
X158343600Y-78105000D03*
X160426400Y-132715000D03*
X158343600Y-132715000D03*
X122326400Y-132715000D03*
X120243600Y-132715000D03*
X141376400Y-78105000D03*
X139293600Y-78105000D03*
D14*
X90120000Y-109855000D03*
D15*
X83820000Y-112135000D03*
X83820000Y-110995000D03*
X83820000Y-108715000D03*
X83820000Y-107575000D03*
D14*
X90120000Y-99695000D03*
D15*
X83820000Y-101975000D03*
X83820000Y-100835000D03*
X83820000Y-98555000D03*
X83820000Y-97415000D03*
D14*
X90120000Y-89535000D03*
D15*
X83820000Y-91815000D03*
X83820000Y-90675000D03*
X83820000Y-88395000D03*
X83820000Y-87255000D03*
D14*
X90120000Y-79375000D03*
D15*
X83820000Y-81655000D03*
X83820000Y-80515000D03*
X83820000Y-78235000D03*
X83820000Y-77095000D03*
M02*
