M48
; DRILL file {KiCad 6.0.0-unknown-f1f26a9~86~ubuntu18.04.1} date Fri 07 Jun 2019 10:15:10 AM EDT
; FORMAT={2:4/ absolute / inch / keep zeros}
; #@! TF.CreationDate,2019-06-07T10:15:10-04:00
; #@! TF.GenerationSoftware,Kicad,Pcbnew,6.0.0-unknown-f1f26a9~86~ubuntu18.04.1
FMAT,2
INCH
T1C0.0250
T2C0.0280
T3C0.0390
T4C0.0400
T5C0.0433
T6C0.0440
T7C0.0591
T8C0.0709
T9C0.1181
T10C0.1300
%
G90
G05
T1
X021536Y-048398
X021568Y-042403
X022272Y-039091
X022546Y-031282
X022781Y-047765
X022790Y-047071
X022801Y-046566
X022919Y-034435
X023032Y-030900
X023141Y-033731
X023316Y-044732
X023345Y-045123
X023381Y-036036
X024090Y-051238
X024230Y-037997
X024984Y-045373
X025082Y-044743
X025118Y-045832
X025207Y-035232
X025457Y-033910
X025460Y-051166
X028113Y-036048
X028168Y-046182
X028192Y-037175
X029391Y-034462
X029608Y-035791
X030070Y-032475
X030718Y-050837
X031624Y-053046
X032305Y-030324
X032479Y-051367
X033284Y-051367
X034780Y-050915
X035446Y-037664
X038215Y-051002
X038839Y-042661
X039612Y-040896
X039865Y-051382
X040305Y-034818
X040461Y-043585
X040929Y-051374
X041044Y-053032
X041500Y-042517
X041625Y-051384
X041726Y-034643
X043656Y-034052
X048447Y-034026
X048621Y-052250
X048658Y-030785
X048736Y-047508
X054578Y-052829
X056007Y-033952
X056014Y-031187
X056128Y-052290
X056130Y-047844
X063546Y-033877
X063615Y-030750
X063617Y-052250
X063792Y-047936
X070288Y-048346
X070423Y-034499
X070513Y-052791
X071116Y-030723
X074500Y-038622
T2
X024614Y-032171
X024837Y-043961
X025117Y-038750
X025831Y-049260
T3
X043250Y-030000
X043250Y-031000
X043250Y-032000
T4
X021000Y-030000
X021000Y-031000
X021000Y-032000
X021000Y-033000
X021000Y-034000
X021000Y-035000
X021000Y-036000
X021000Y-037000
X021000Y-038000
X021000Y-039000
X021000Y-040000
X021000Y-041000
X021000Y-042000
X021000Y-043000
X021000Y-044000
X021000Y-045000
X021000Y-046000
X021000Y-047000
X021000Y-048000
X021000Y-049000
X021000Y-050000
X021000Y-051000
X021000Y-052000
X021000Y-053000
X027000Y-030000
X027000Y-031000
X027000Y-032000
X027000Y-033000
X027000Y-034000
X027000Y-035000
X027000Y-036000
X027000Y-037000
X027000Y-038000
X027000Y-039000
X027000Y-040000
X027000Y-041000
X027000Y-042000
X027000Y-043000
X027000Y-044000
X027000Y-045000
X027000Y-046000
X027000Y-047000
X027000Y-048000
X027000Y-049000
X027000Y-050000
X027000Y-051000
X027000Y-052000
X027000Y-053000
T5
X072022Y-035250
X072022Y-047750
X064522Y-047750
X057022Y-035250
X064522Y-035250
X057022Y-047750
X049522Y-047750
X049522Y-035250
T6
X030704Y-039899
X031199Y-041598
X031803Y-038369
X032285Y-032642
X034063Y-045115
X034606Y-048196
X034774Y-037708
X036461Y-037262
X036591Y-041708
T7
X053478Y-035250
X045978Y-035250
X060978Y-035250
X053478Y-047750
X068478Y-035250
X045978Y-047750
X060978Y-047750
X068478Y-047750
T8
X039030Y-036579
X039030Y-046421
X031530Y-036579
X031530Y-046421
X068961Y-039846
X068961Y-041500
X068961Y-043154
X071126Y-039846
X071126Y-041500
X071126Y-043154
T9
X074000Y-039846
X074000Y-043154
T10
X029000Y-031500
X065000Y-029500
X065000Y-053500
X029000Y-051500
T0
M30
